<svg xmlns="http://www.w3.org/2000/svg" xmlns:xlink="http://www.w3.org/1999/xlink" xmlns:xodm="http://www.corel.com/coreldraw/odm/2003" xml:space="preserve" version="1.1" style="shape-rendering:geometricPrecision; text-rendering:geometricPrecision; image-rendering:optimizeQuality; fill-rule:evenodd; clip-rule:evenodd" viewBox="-3437.24 5363.34 28403.53 14638.42">
 <defs>
  <style type="text/css">
   <![CDATA[
    .str0 {stroke:#FEFEFE;stroke-width:20;stroke-miterlimit:22.9256}
    .str1 {stroke:#6C757D;stroke-width:20;stroke-miterlimit:22.9256}
    .str3 {stroke:#ADB5A6;stroke-width:20;stroke-miterlimit:22.9256}
    .str2 {stroke:#D3402D;stroke-width:20;stroke-miterlimit:22.9256}
    .fil10 {fill:none}
    .fil9 {fill:#FEFEFE}
    .fil4 {fill:#007BFF}
    .fil3 {fill:#0376BA}
    .fil5 {fill:#17A1B7}
    .fil2 {fill:#17A2B8}
    .fil13 {fill:#27A9E1}
    .fil8 {fill:#28A745}
    .fil15 {fill:#323A41}
    .fil1 {fill:#343A40}
    .fil20 {fill:#3A4047}
    .fil14 {fill:#424B55}
    .fil0 {fill:#454D55}
    .fil6 {fill:#6C757D}
    .fil16 {fill:#6EA7B0}
    .fil12 {fill:#ADB5A6}
    .fil11 {fill:#D3402D}
    .fil17 {fill:#E86E5A}
    .fil7 {fill:#FFC107}
    .fil19 {fill:#FEFEFE;fill-rule:nonzero}
    .fil18 {fill:#3378C2;fill-rule:nonzero}
   ]]>
  </style>
 </defs>
 <g id="Capa_x0020_1">
  <metadata id="CorelCorpID_0Corel-Layer"/>
  <g id="_1959183204976">
   <rect class="fil0" x="-3437.21" y="5363.34" width="28403.5" height="14638.41"/>
   <rect class="fil1" x="-3437.22" y="5363.34" width="5173.77" height="14638.41"/>
   <rect class="fil1" x="-3437.24" y="5363.35" width="28403.5" height="1222.11"/>
   <rect class="fil1" x="2092.63" y="11690.27" width="5294.38" height="1653.65" rx="516.93" ry="57.07"/>
   <rect class="fil1" x="7812.63" y="11690.27" width="5294.38" height="1653.65" rx="516.93" ry="57.07"/>
   <rect class="fil1" x="13412.63" y="11690.27" width="5294.38" height="1653.65" rx="516.93" ry="57.07"/>
   <rect class="fil1" x="1912.62" y="13630.27" width="11176.2" height="6371.49" rx="1091.21" ry="219.87"/>
   <rect class="fil1" x="13492.62" y="15156.31" width="11176.2" height="4603.76" rx="557.47" ry="81.16"/>
   <rect class="fil1" x="13492.62" y="13676.31" width="11176.2" height="1030.21" rx="557.47" ry="18.16"/>
   <rect class="fil2" x="1804.29" y="8621.1" width="23162" height="2698.75" rx="196.14" ry="196.14"/>
   <rect class="fil3" x="23362.58" y="5816.36" width="502.71" height="502.71" rx="118.29" ry="118.29"/>
   <rect class="fil4" x="-3265.84" y="6792.09" width="4683.14" height="820.21" rx="119.06" ry="119.06"/>
   <rect class="fil5" x="2283.85" y="11875.48" width="1402.3" height="1250.16" rx="66.15" ry="66.15"/>
   <rect class="fil6" x="7983.85" y="11875.48" width="1402.3" height="1250.16" rx="66.15" ry="66.15"/>
   <rect class="fil7" x="13643.85" y="11875.48" width="1402.3" height="1250.16" rx="66.15" ry="66.15"/>
   <rect class="fil2" x="464.85" y="7916.65" width="605.24" height="330.73" rx="43" ry="43"/>
   <rect class="fil8" x="13899.12" y="16466.04" width="4716.21" height="410.1" rx="76.05" ry="76.05"/>
   <rect class="fil2" x="20999.13" y="16466.04" width="3592.49" height="410.1" rx="57.93" ry="76.05"/>
   <rect class="fil9 str0" x="-2790.39" y="7046.06" width="299.86" height="299.86" rx="70.56" ry="70.56"/>
   <rect class="fil9 str0" x="-2790.39" y="7926.06" width="299.86" height="299.86" rx="70.56" ry="70.56"/>
   <rect class="fil9 str0" x="-2790.39" y="10006.06" width="299.86" height="299.86" rx="70.56" ry="70.56"/>
   <rect class="fil9 str0" x="-2790.39" y="10906.06" width="299.86" height="299.86" rx="70.56" ry="70.56"/>
   <rect class="fil9 str0" x="-2790.39" y="11826.06" width="299.86" height="299.86" rx="70.56" ry="70.56"/>
   <rect class="fil9 str0" x="-2790.39" y="13906.06" width="299.86" height="299.86" rx="70.56" ry="70.56"/>
   <rect class="fil9 str0" x="-2790.39" y="14786.06" width="299.86" height="299.86" rx="70.56" ry="70.56"/>
   <rect class="fil9 str0" x="-2790.39" y="15686.06" width="299.86" height="299.86" rx="70.56" ry="70.56"/>
   <rect class="fil9 str0" x="-2790.39" y="16606.06" width="299.86" height="299.86" rx="70.56" ry="70.56"/>
   <rect class="fil9 str0" x="-2790.39" y="17486.06" width="299.86" height="299.86" rx="70.56" ry="70.56"/>
   <rect class="fil9 str0" x="-2790.39" y="18386.06" width="299.86" height="299.86" rx="70.56" ry="70.56"/>
   <rect class="fil9 str0" x="-2234.76" y="7130" width="1481.68" height="171.98" rx="49.17" ry="49.17"/>
   <rect class="fil9 str0" x="-2234.76" y="8030" width="1481.68" height="171.98" rx="49.17" ry="49.17"/>
   <rect class="fil9 str0" x="-2234.76" y="10090" width="1481.68" height="171.98" rx="49.17" ry="49.17"/>
   <rect class="fil9 str0" x="-2234.76" y="10980" width="1481.68" height="171.98" rx="49.17" ry="49.17"/>
   <rect class="fil9 str0" x="-2234.76" y="11910" width="2076.99" height="171.98" rx="68.93" ry="49.17"/>
   <rect class="fil9 str0" x="-2234.76" y="14010" width="727.61" height="171.98" rx="24.15" ry="49.17"/>
   <rect class="fil9 str0" x="-2234.76" y="14890" width="1481.68" height="171.98" rx="49.17" ry="49.17"/>
   <rect class="fil9 str0" x="-2234.76" y="15790" width="1481.68" height="171.98" rx="49.17" ry="49.17"/>
   <rect class="fil9 str0" x="-2234.76" y="17550" width="1481.68" height="171.98" rx="49.17" ry="49.17"/>
   <rect class="fil9 str0" x="-2234.76" y="16690" width="727.61" height="171.98" rx="24.15" ry="49.17"/>
   <rect class="fil9 str0" x="-2234.76" y="18490" width="1481.68" height="171.98" rx="49.17" ry="49.17"/>
   <rect class="fil9 str0" x="-2909.45" y="9324.88" width="1821.23" height="118.29" rx="60.44" ry="33.82"/>
   <rect class="fil9 str0" x="-2909.45" y="13184.88" width="1821.23" height="118.29" rx="60.44" ry="33.82"/>
   <rect class="fil9 str0" x="3242.13" y="5873.07" width="299.86" height="299.86" rx="70.56" ry="70.56"/>
   <rect class="fil9 str0" x="3797.76" y="5957.01" width="796.07" height="171.98" rx="26.42" ry="49.17"/>
   <rect class="fil9 str0" x="2252.13" y="5873.07" width="299.86" height="299.86" rx="70.56" ry="70.56"/>
   <rect class="fil9 str0" x="5262.13" y="5873.07" width="299.86" height="299.86" rx="70.56" ry="70.56"/>
   <rect class="fil9 str0" x="5630.12" y="5957.01" width="1816.82" height="171.98" rx="60.29" ry="49.17"/>
   <rect class="fil9 str0" x="20442.13" y="5873.07" width="299.86" height="299.86" rx="70.56" ry="70.56"/>
   <rect class="fil9 str0" x="20856.96" y="5952.6" width="978.97" height="171.98" rx="32.49" ry="49.17"/>
   <rect class="fil9 str0" x="19482.13" y="5873.07" width="299.86" height="299.86" rx="70.56" ry="70.56"/>
   <rect class="fil9 str0" x="22576.96" y="5952.6" width="603.94" height="171.98" rx="20.04" ry="49.17"/>
   <rect class="fil9 str0" x="565.24" y="8030" width="399.4" height="171.98" rx="13.25" ry="49.17"/>
   <rect class="fil9 str0" x="2155.25" y="7160.55" width="2610.6" height="294.4" rx="86.63" ry="84.17"/>
   <rect class="fil9 str0" x="2199.35" y="9598.27" width="8396.17" height="171.98" rx="278.63" ry="49.17"/>
   <rect class="fil9 str0" x="2199.35" y="10418.27" width="13202.79" height="171.98" rx="438.14" ry="49.17"/>
   <rect class="fil9 str0" x="3945.6" y="12063.99" width="1031.94" height="171.98" rx="34.25" ry="49.17"/>
   <rect class="fil9 str0" x="3945.6" y="12763.99" width="308.74" height="171.98" rx="10.25" ry="49.17"/>
   <rect class="fil9 str0" x="2665.6" y="12222.74" width="643.88" height="546.25" rx="21.37" ry="156.18"/>
   <rect class="fil9 str0" x="9625.6" y="12063.99" width="1031.94" height="171.98" rx="34.25" ry="49.17"/>
   <rect class="fil9 str0" x="8345.6" y="12222.74" width="643.88" height="546.25" rx="21.37" ry="156.18"/>
   <rect class="fil9 str0" x="9625.6" y="12753.99" width="1031.94" height="171.98" rx="34.25" ry="49.17"/>
   <rect class="fil9 str0" x="15305.6" y="12063.99" width="1825.18" height="171.98" rx="60.57" ry="49.17"/>
   <rect class="fil9 str0" x="14025.6" y="12222.74" width="643.88" height="546.25" rx="21.37" ry="156.18"/>
   <rect class="fil9 str0" x="15305.6" y="12753.99" width="1825.18" height="171.98" rx="60.57" ry="49.17"/>
   <rect class="fil9 str0" x="2429.61" y="13956.06" width="299.86" height="299.86" rx="70.56" ry="70.56"/>
   <rect class="fil9 str0" x="3015.24" y="14060" width="2985.46" height="171.98" rx="99.07" ry="49.17"/>
   <rect class="fil9 str0" x="13889.61" y="13956.06" width="299.86" height="299.86" rx="70.56" ry="70.56"/>
   <rect class="fil9 str0" x="14475.24" y="14060" width="2580.64" height="171.98" rx="85.64" ry="49.17"/>
   <rect class="fil9 str0" x="13889.61" y="15416.06" width="299.86" height="299.86" rx="70.56" ry="70.56"/>
   <rect class="fil9 str0" x="14475.24" y="15520" width="2580.64" height="171.98" rx="85.64" ry="49.17"/>
   <rect class="fil9 str0" x="13979.61" y="16526.06" width="299.86" height="299.86" rx="70.56" ry="70.56"/>
   <rect class="fil9 str0" x="14565.24" y="16590" width="3954.65" height="171.98" rx="131.24" ry="49.17"/>
   <rect class="fil9 str0" x="21105.24" y="16590" width="3248.76" height="171.98" rx="107.81" ry="49.17"/>
   <line class="fil10 str1" x1="13854.44" y1="17266.92" x2="24190.85" y2="17266.92"/>
   <line class="fil10 str1" x1="13854.44" y1="18286.92" x2="24190.85" y2="18286.92"/>
   <line class="fil10 str1" x1="13854.44" y1="19306.92" x2="24190.85" y2="19306.92"/>
   <rect class="fil9 str0" x="14105.24" y="17690" width="3954.65" height="171.98" rx="131.24" ry="49.17"/>
   <rect class="fil9 str0" x="14105.24" y="18730" width="1574.83" height="171.98" rx="52.26" ry="49.17"/>
   <rect class="fil9 str0" x="19065.24" y="17690" width="4349.49" height="171.98" rx="144.34" ry="49.17"/>
   <rect class="fil9 str0" x="19065.24" y="18730" width="892.26" height="171.98" rx="29.61" ry="49.17"/>
   <rect class="fil11 str2" x="2249.34" y="9078.27" width="1524.44" height="171.98" rx="50.59" ry="49.17"/>
   <rect class="fil12 str3" x="22996.96" y="7152.6" width="1449.66" height="171.98" rx="48.11" ry="49.17"/>
   <g>
    <circle class="fil13" cx="7553.58" cy="17053.74" r="2016.46"/>
    <g>
     <g>
      <rect class="fil14" x="6480.51" y="16682.52" width="2198.08" height="673.17" rx="108.77" ry="111.48"/>
      <path class="fil15" d="M8678.59 16793.99l0 450.22c0,61.32 -50.16,111.48 -111.48,111.48l-987.56 0 0 -673.17 987.56 0c61.32,0 111.48,50.16 111.48,111.47z"/>
     </g>
     <g>
      <rect class="fil15" x="6480.51" y="15987.96" width="2198.08" height="673.17" rx="108.77" ry="111.48"/>
      <path class="fil14" d="M8678.59 16099.44l0 450.22c0,61.31 -50.16,111.47 -111.48,111.47l-987.56 0 0 -673.17 987.56 0c61.32,0 111.48,50.16 111.48,111.48z"/>
     </g>
     <rect class="fil15" x="6480.51" y="17377.08" width="2198.08" height="673.17" rx="108.77" ry="111.48"/>
     <path class="fil14" d="M8678.59 17488.55l0 450.22c0,61.31 -50.16,111.48 -111.48,111.48l-987.56 0 0 -673.17 987.56 0c61.32,0 111.48,50.16 111.48,111.47z"/>
     <g>
      <rect class="fil16" x="6646.1" y="16137.61" width="658.02" height="138.53" rx="25.97" ry="34.63"/>
      <rect class="fil16" x="6646.1" y="16378.13" width="658.02" height="138.53" rx="25.97" ry="34.63"/>
     </g>
     <g>
      <rect class="fil16" x="6646.1" y="17526.72" width="658.02" height="138.53" rx="25.97" ry="34.63"/>
      <rect class="fil16" x="6646.1" y="17767.24" width="658.02" height="138.53" rx="25.97" ry="34.63"/>
     </g>
     <g>
      <rect class="fil16" x="7840.92" y="16830.49" width="658.02" height="138.53" rx="25.97" ry="34.63"/>
      <rect class="fil16" x="7840.92" y="17071.01" width="658.02" height="138.53" rx="25.97" ry="34.63"/>
     </g>
     <g>
      <rect class="fil17" x="8442.66" y="16137.18" width="99.57" height="104.98" rx="25.98" ry="27.39"/>
      <rect class="fil17" x="8442.66" y="16274.62" width="99.57" height="104.98" rx="25.98" ry="27.39"/>
      <rect class="fil17" x="8442.66" y="16412.06" width="99.57" height="104.98" rx="25.98" ry="27.39"/>
     </g>
     <g>
      <rect class="fil17" x="8442.66" y="17528.75" width="99.57" height="104.98" rx="25.98" ry="27.39"/>
      <rect class="fil17" x="8442.66" y="17666.19" width="99.57" height="104.98" rx="25.98" ry="27.39"/>
      <rect class="fil17" x="8442.66" y="17803.63" width="99.57" height="104.98" rx="25.98" ry="27.39"/>
     </g>
     <g>
      <rect class="fil17" x="6640.71" y="16834.52" width="99.57" height="104.98" rx="25.98" ry="27.39"/>
      <rect class="fil17" x="6640.71" y="16971.95" width="99.57" height="104.98" rx="25.98" ry="27.39"/>
      <rect class="fil17" x="6640.71" y="17109.39" width="99.57" height="104.98" rx="25.98" ry="27.39"/>
     </g>
    </g>
   </g>
   <g>
    <circle class="fil13" cx="-2437.75" cy="5984.7" r="471.7"/>
    <g>
     <g>
      <rect class="fil14" x="-2688.77" y="5897.86" width="514.18" height="157.47" rx="25.44" ry="26.08"/>
      <path class="fil15" d="M-2174.59 5923.94l0 105.31c0,14.34 -11.73,26.08 -26.07,26.08l-231.02 0 0 -157.47 231.02 0c14.34,0 26.07,11.73 26.07,26.08z"/>
     </g>
     <g>
      <rect class="fil15" x="-2688.77" y="5735.39" width="514.18" height="157.47" rx="25.44" ry="26.08"/>
      <path class="fil14" d="M-2174.59 5761.46l0 105.32c0,14.34 -11.73,26.08 -26.07,26.08l-231.02 0 0 -157.47 231.02 0c14.34,0 26.07,11.73 26.07,26.07z"/>
     </g>
     <rect class="fil15" x="-2688.77" y="6060.33" width="514.18" height="157.47" rx="25.44" ry="26.08"/>
     <path class="fil14" d="M-2174.59 6086.41l0 105.32c0,14.34 -11.73,26.07 -26.07,26.07l-231.02 0 0 -157.47 231.02 0c14.34,0 26.07,11.74 26.07,26.08z"/>
     <g>
      <rect class="fil16" x="-2650.03" y="5770.39" width="153.93" height="32.41" rx="6.08" ry="8.1"/>
      <rect class="fil16" x="-2650.03" y="5826.65" width="153.93" height="32.41" rx="6.08" ry="8.1"/>
     </g>
     <g>
      <rect class="fil16" x="-2650.03" y="6095.34" width="153.93" height="32.41" rx="6.08" ry="8.1"/>
      <rect class="fil16" x="-2650.03" y="6151.6" width="153.93" height="32.41" rx="6.08" ry="8.1"/>
     </g>
     <g>
      <rect class="fil16" x="-2370.54" y="5932.47" width="153.93" height="32.41" rx="6.08" ry="8.1"/>
      <rect class="fil16" x="-2370.54" y="5988.74" width="153.93" height="32.41" rx="6.08" ry="8.1"/>
     </g>
     <g>
      <rect class="fil17" x="-2229.78" y="5770.29" width="23.29" height="24.56" rx="6.08" ry="6.41"/>
      <rect class="fil17" x="-2229.78" y="5802.44" width="23.29" height="24.56" rx="6.08" ry="6.41"/>
      <rect class="fil17" x="-2229.78" y="5834.59" width="23.29" height="24.56" rx="6.08" ry="6.41"/>
     </g>
     <g>
      <rect class="fil17" x="-2229.78" y="6095.81" width="23.29" height="24.56" rx="6.08" ry="6.41"/>
      <rect class="fil17" x="-2229.78" y="6127.96" width="23.29" height="24.56" rx="6.08" ry="6.41"/>
      <rect class="fil17" x="-2229.78" y="6160.11" width="23.29" height="24.56" rx="6.08" ry="6.41"/>
     </g>
     <g>
      <rect class="fil17" x="-2651.29" y="5933.41" width="23.29" height="24.56" rx="6.08" ry="6.41"/>
      <rect class="fil17" x="-2651.29" y="5965.56" width="23.29" height="24.56" rx="6.08" ry="6.41"/>
      <rect class="fil17" x="-2651.29" y="5997.71" width="23.29" height="24.56" rx="6.08" ry="6.41"/>
     </g>
    </g>
   </g>
   <path class="fil18" d="M-1314.87 6068.22l36.29 9.17c-7.58,29.73 -21.2,52.34 -40.88,67.94 -19.68,15.6 -43.75,23.43 -72.21,23.43 -29.42,0 -53.36,-5.98 -71.83,-18.02 -18.47,-11.97 -32.48,-29.35 -42.09,-52.09 -9.62,-22.79 -14.46,-47.18 -14.46,-73.29 0,-28.46 5.42,-53.3 16.31,-74.5 10.88,-21.21 26.36,-37.32 46.42,-48.33 20.06,-11.02 42.15,-16.5 66.22,-16.5 27.38,0 50.37,6.94 68.97,20.89 18.65,13.95 31.64,33.49 38.97,58.71l-35.54 8.41c-6.3,-19.87 -15.53,-34.39 -27.57,-43.43 -12.03,-9.11 -27.19,-13.63 -45.46,-13.63 -20.95,0 -38.53,5.03 -52.6,15.09 -14.08,10.06 -24.01,23.63 -29.68,40.57 -5.73,17 -8.59,34.51 -8.59,52.53 0,23.24 3.37,43.56 10.12,60.88 6.75,17.38 17.26,30.31 31.52,38.9 14.27,8.6 29.68,12.87 46.3,12.87 20.25,0 37.31,-5.86 51.32,-17.51 14.01,-11.72 23.5,-29.04 28.47,-52.09zm149.83 65.97l4.59 29.67c-9.43,1.98 -17.9,2.99 -25.28,2.99 -12.17,0 -21.59,-1.91 -28.34,-5.79 -6.69,-3.88 -11.4,-8.92 -14.14,-15.22 -2.74,-6.3 -4.07,-19.55 -4.07,-39.73l0 -114.24 -24.84 0 0 -25.98 24.84 0 0 -49.04 33.62 -20.18 0 69.22 33.62 0 0 25.98 -33.62 0 0 116.15c0,9.61 0.57,15.79 1.78,18.53 1.15,2.73 3.06,4.9 5.73,6.55 2.68,1.6 6.5,2.42 11.47,2.42 3.69,0 8.59,-0.44 14.64,-1.33zm32.79 29.99l0 -198.29 30.19 0 0 30.37c7.7,-14.07 14.84,-23.37 21.39,-27.83 6.56,-4.52 13.76,-6.75 21.59,-6.75 11.34,0 22.86,3.57 34.58,10.64l-11.97 31.01c-8.15,-4.59 -16.3,-6.88 -24.46,-6.88 -7.32,0 -13.88,2.23 -19.67,6.62 -5.8,4.4 -9.94,10.51 -12.42,18.34 -3.76,11.91 -5.6,24.97 -5.6,39.17l0 103.6 -33.63 0zm126.85 0l0 -273.56 33.62 0 0 273.56 -33.62 0zm85.65 76.03l0 -274.32 30.56 0 0 26.04c7.2,-10.06 15.35,-17.64 24.45,-22.67 9.05,-5.03 20.06,-7.58 32.99,-7.58 16.94,0 31.84,4.33 44.77,13.06 12.92,8.66 22.67,20.95 29.29,36.74 6.56,15.86 9.87,33.18 9.87,52.09 0,20.18 -3.63,38.4 -10.89,54.63 -7.26,16.18 -17.83,28.6 -31.71,37.26 -13.82,8.59 -28.4,12.92 -43.69,12.92 -11.2,0 -21.26,-2.35 -30.12,-7.07 -8.91,-4.71 -16.17,-10.63 -21.9,-17.83l0 96.73 -33.62 0zm30.56 -173.97c0,25.41 5.16,44.2 15.41,56.36 10.32,12.16 22.8,18.27 37.45,18.27 14.9,0 27.63,-6.3 38.2,-18.91 10.64,-12.61 15.92,-32.09 15.92,-58.52 0,-25.22 -5.16,-44.06 -15.54,-56.61 -10.38,-12.54 -22.73,-18.78 -37.12,-18.78 -14.26,0 -26.87,6.68 -37.83,19.99 -11.01,13.37 -16.49,32.73 -16.49,58.2zm311.45 73.11c-12.48,10.63 -24.52,18.08 -36.04,22.47 -11.53,4.4 -23.88,6.56 -37.13,6.56 -21.78,0 -38.52,-5.28 -50.24,-15.92 -11.72,-10.57 -17.58,-24.13 -17.58,-40.62 0,-9.68 2.23,-18.53 6.63,-26.56 4.45,-8.02 10.25,-14.39 17.38,-19.23 7.2,-4.84 15.22,-8.53 24.2,-11.01 6.62,-1.72 16.62,-3.38 29.93,-5.04 27.12,-3.18 47.18,-7.06 59.98,-11.52 0.13,-4.59 0.19,-7.52 0.19,-8.72 0,-13.63 -3.18,-23.25 -9.55,-28.85 -8.59,-7.58 -21.39,-11.34 -38.33,-11.34 -15.86,0 -27.57,2.81 -35.09,8.35 -7.58,5.54 -13.12,15.34 -16.75,29.48l-32.85 -4.59c2.99,-14.07 7.89,-25.47 14.77,-34.13 6.88,-8.66 16.81,-15.28 29.8,-19.99 12.93,-4.65 28.02,-7.01 45.08,-7.01 16.94,0 30.76,1.98 41.4,5.99 10.57,4.01 18.4,8.98 23.37,15.03 4.96,6.05 8.46,13.69 10.5,22.92 1.08,5.73 1.66,16.05 1.66,30.88l0 44.58c0,31.14 0.7,50.82 2.1,59.16 1.34,8.34 4.14,16.3 8.21,23.94l-35.15 0c-3.37,-7.07 -5.54,-15.35 -6.49,-24.83zm-2.68 -74.51c-12.22,4.97 -30.56,9.17 -55.01,12.61 -13.89,1.97 -23.69,4.2 -29.42,6.69 -5.73,2.48 -10.13,6.11 -13.25,10.82 -3.12,4.78 -4.71,10.06 -4.71,15.92 0,8.85 3.37,16.3 10.19,22.22 6.81,5.93 16.75,8.92 29.8,8.92 12.93,0 24.45,-2.8 34.58,-8.47 10.06,-5.6 17.51,-13.31 22.22,-23.05 3.63,-7.58 5.41,-18.72 5.41,-33.43l0.19 -12.23zm85.65 99.34l0 -198.29 30.18 0 0 28.14c14.52,-21.59 35.53,-32.35 62.98,-32.35 11.97,0 22.92,2.17 32.92,6.43 10,4.27 17.51,9.94 22.48,16.88 4.97,6.94 8.47,15.22 10.44,24.77 1.21,6.24 1.85,17.13 1.85,32.67l0 121.75 -33.62 0 0 -120.48c0,-13.69 -1.28,-23.94 -3.89,-30.69 -2.61,-6.75 -7.26,-12.16 -13.88,-16.24 -6.62,-4.01 -14.46,-6.05 -23.37,-6.05 -14.26,0 -26.55,4.52 -36.93,13.63 -10.38,9.04 -15.54,26.3 -15.54,51.64l0 108.19 -33.62 0zm347.74 -64.19l34.77 4.59c-5.41,20.18 -15.54,35.91 -30.31,47.06 -14.78,11.14 -33.63,16.74 -56.61,16.74 -28.91,0 -51.84,-8.91 -68.78,-26.74 -16.93,-17.77 -25.4,-42.79 -25.4,-74.95 0,-33.24 8.53,-59.1 25.66,-77.43 17.13,-18.41 39.35,-27.58 66.67,-27.58 26.43,0 48.01,8.98 64.76,27 16.75,18.02 25.15,43.37 25.15,76.03 0,1.98 -0.06,4.97 -0.19,8.92l-147.67 0c1.28,21.71 7.39,38.4 18.47,49.92 11.02,11.53 24.83,17.32 41.33,17.32 12.29,0 22.79,-3.24 31.45,-9.74 8.73,-6.49 15.61,-16.87 20.7,-31.14zm-110.04 -53.87l110.42 0c-1.46,-16.68 -5.73,-29.16 -12.67,-37.51 -10.63,-12.92 -24.52,-19.42 -41.52,-19.42 -15.41,0 -28.34,5.16 -38.84,15.48 -10.45,10.31 -16.24,24.13 -17.39,41.45zm186.51 118.06l0 -273.56 33.62 0 0 273.56 -33.62 0zm95.2 0l0 -38.21 38.21 0 0 38.21 -38.21 0zm90.42 16.43l32.48 4.58c1.33,10.07 5.15,17.39 11.39,22.04 8.35,6.17 19.74,9.29 34.2,9.29 15.54,0 27.57,-3.12 36.04,-9.29 8.47,-6.18 14.2,-14.9 17.19,-26.05 1.72,-6.81 2.55,-21.14 2.42,-42.98 -14.71,17.32 -32.98,25.98 -54.89,25.98 -27.25,0 -48.39,-9.81 -63.29,-29.48 -14.97,-19.62 -22.42,-43.18 -22.42,-70.62 0,-18.91 3.44,-36.36 10.25,-52.35 6.82,-15.98 16.75,-28.27 29.74,-36.99 12.99,-8.73 28.28,-13.06 45.85,-13.06 23.37,0 42.67,9.55 57.82,28.66l0 -24.45 30.95 0 0 171.23c0,30.88 -3.12,52.72 -9.43,65.59 -6.24,12.86 -16.23,23.05 -29.8,30.5 -13.62,7.45 -30.37,11.2 -50.24,11.2 -23.62,0 -42.66,-5.28 -57.18,-15.91 -14.58,-10.58 -21.59,-26.56 -21.08,-47.89zm27.51 -118.95c0,25.91 5.16,44.83 15.47,56.74 10.38,11.9 23.31,17.89 38.85,17.89 15.47,0 28.4,-5.92 38.9,-17.77 10.45,-11.84 15.67,-30.44 15.67,-55.78 0,-24.2 -5.41,-42.47 -16.18,-54.76 -10.76,-12.29 -23.75,-18.41 -38.9,-18.41 -14.97,0 -27.64,6.05 -38.15,18.15 -10.44,12.1 -15.66,30.06 -15.66,53.94zm184.98 118.95l32.48 4.58c1.33,10.07 5.15,17.39 11.39,22.04 8.35,6.17 19.74,9.29 34.2,9.29 15.54,0 27.57,-3.12 36.04,-9.29 8.47,-6.18 14.2,-14.9 17.19,-26.05 1.72,-6.81 2.55,-21.14 2.42,-42.98 -14.71,17.32 -32.98,25.98 -54.89,25.98 -27.25,0 -48.39,-9.81 -63.29,-29.48 -14.97,-19.62 -22.42,-43.18 -22.42,-70.62 0,-18.91 3.44,-36.36 10.25,-52.35 6.82,-15.98 16.75,-28.27 29.74,-36.99 12.99,-8.73 28.28,-13.06 45.85,-13.06 23.37,0 42.67,9.55 57.82,28.66l0 -24.45 30.95 0 0 171.23c0,30.88 -3.12,52.72 -9.43,65.59 -6.24,12.86 -16.23,23.05 -29.8,30.5 -13.62,7.45 -30.37,11.2 -50.24,11.2 -23.62,0 -42.66,-5.28 -57.18,-15.91 -14.58,-10.58 -21.59,-26.56 -21.08,-47.89zm27.51 -118.95c0,25.91 5.16,44.83 15.47,56.74 10.38,11.9 23.31,17.89 38.85,17.89 15.47,0 28.4,-5.92 38.9,-17.77 10.45,-11.84 15.67,-30.44 15.67,-55.78 0,-24.2 -5.41,-42.47 -16.18,-54.76 -10.76,-12.29 -23.75,-18.41 -38.9,-18.41 -14.97,0 -27.64,6.05 -38.15,18.15 -10.44,12.1 -15.66,30.06 -15.66,53.94z"/>
   <path class="fil19" d="M5627.6 19575.46l117.18 36c-17.99,65.98 -47.99,114.94 -89.84,147.03 -41.85,31.94 -94.86,47.98 -159.16,47.98 -79.66,0 -145.08,-27.2 -196.42,-81.6 -51.19,-54.41 -76.86,-128.76 -76.86,-223.2 0,-99.74 25.81,-177.3 77.28,-232.54 51.48,-55.25 119.27,-82.87 203.25,-82.87 73.38,0 132.94,21.77 178.7,65.15 27.34,25.67 47.71,62.5 61.38,110.62l-119.69 28.46c-7.12,-30.97 -21.9,-55.52 -44.36,-73.52 -22.6,-17.99 -49.94,-26.92 -82.03,-26.92 -44.5,0 -80.63,15.9 -108.25,47.85 -27.76,31.8 -41.57,83.42 -41.57,154.84 0,75.61 13.67,129.6 40.87,161.68 27.34,32.22 62.78,48.27 106.44,48.27 32.22,0 59.98,-10.19 83.14,-30.69 23.16,-20.51 39.9,-52.59 49.94,-96.54zm418.64 -213.43l0 91.23 -78.68 0 0 175.91c0,35.71 0.7,56.5 2.23,62.36 1.54,5.86 4.89,10.74 10.33,14.64 5.3,3.77 11.72,5.72 19.39,5.72 10.74,0 26.08,-3.62 46.31,-11.02l9.63 89.28c-26.65,11.44 -56.78,17.16 -90.54,17.16 -20.64,0 -39.2,-3.49 -55.8,-10.46 -16.6,-6.98 -28.73,-16.04 -36.41,-27.06 -7.81,-11.16 -13.11,-26.09 -16.18,-45.06 -2.37,-13.39 -3.62,-40.46 -3.62,-81.33l0 -190.14 -52.74 0 0 -91.23 52.74 0 0 -86.21 114.66 -67.79 0 154 78.68 0zm190 434.4l-114.67 0 0 -434.4 106.3 0 0 61.66c18.27,-29.15 34.73,-48.27 49.38,-57.33 14.65,-9.07 31.25,-13.53 49.8,-13.53 26.23,0 51.48,7.25 75.75,21.62l-35.57 100.16c-19.39,-12.56 -37.39,-18.83 -53.99,-18.83 -16.18,0 -29.85,4.46 -41.01,13.25 -11.16,8.93 -19.95,24.83 -26.37,47.98 -6.41,23.16 -9.62,71.71 -9.62,145.5l0 133.92zm216.08 0l0 -599.28 114.67 0 0 599.28 -114.67 0zm229.2 -434.4l107.13 0 0 63.75c13.95,-21.76 32.64,-39.34 56.36,-52.87 23.71,-13.39 50.08,-20.08 78.95,-20.08 50.36,0 93.19,19.8 128.34,59.42 35.16,39.48 52.73,94.72 52.73,165.31 0,72.68 -17.71,129.03 -53.15,169.35 -35.43,40.31 -78.39,60.4 -128.89,60.4 -24,0 -45.76,-4.74 -65.29,-14.37 -19.39,-9.48 -40.03,-25.8 -61.52,-48.96l0 217.34 -114.66 0 0 -599.29zm112.99 210.51c0,48.96 9.62,85.09 29.01,108.52 19.26,23.3 42.83,35.02 70.45,35.02 26.65,0 48.83,-10.74 66.54,-32.23 17.72,-21.48 26.51,-56.63 26.51,-105.6 0,-45.75 -9.07,-79.65 -27.34,-101.83 -18.14,-22.18 -40.74,-33.2 -67.66,-33.2 -28.04,0 -51.34,10.88 -69.75,32.64 -18.55,21.76 -27.76,53.99 -27.76,96.68zm486.99 -76.59l-103.79 -18.41c11.72,-42.41 31.94,-73.8 60.54,-94.16 28.6,-20.37 71.15,-30.55 127.5,-30.55 51.2,0 89.42,5.99 114.53,18.13 24.97,12.14 42.69,27.48 52.87,46.17 10.18,18.7 15.35,52.87 15.35,102.81l-1.68 133.92c0,38.09 1.82,66.26 5.44,84.4 3.63,18.13 10.46,37.52 20.51,58.17l-113.83 0c-2.93,-7.53 -6.7,-18.69 -11.02,-33.48 -1.82,-6.84 -3.21,-11.3 -4.05,-13.39 -19.53,19.25 -40.45,33.62 -62.77,43.24 -22.32,9.63 -46.04,14.51 -71.29,14.51 -44.5,0 -79.65,-12.14 -105.32,-36.41 -25.66,-24.13 -38.5,-54.82 -38.5,-91.93 0,-24.41 5.86,-46.31 17.58,-65.56 11.72,-19.11 28.04,-33.9 49.24,-44.08 21.07,-10.19 51.48,-19.11 91.23,-26.79 53.57,-10.04 90.82,-19.53 111.46,-28.18l0 -11.57c0,-22.32 -5.44,-38.23 -16.32,-47.85 -11.02,-9.49 -31.66,-14.23 -61.94,-14.23 -20.5,0 -36.41,4.04 -47.84,12.28 -11.58,8.09 -20.79,22.45 -27.9,42.96zm154 92.91c-14.64,4.88 -37.94,10.74 -69.89,17.57 -31.8,6.84 -52.73,13.53 -62.49,19.95 -14.93,10.74 -22.46,24.13 -22.46,40.46 0,16.18 6,29.99 17.99,41.71 12,11.71 27.21,17.57 45.76,17.57 20.65,0 40.45,-6.83 59.29,-20.36 13.81,-10.47 23.01,-23.02 27.34,-38.09 2.93,-9.76 4.46,-28.45 4.46,-55.94l0 -22.87zm621.19 207.57l-114.67 0 0 -221.38c0,-46.88 -2.51,-77.15 -7.39,-90.82 -5.02,-13.81 -12.97,-24.41 -24.13,-32.08 -11.16,-7.67 -24.55,-11.44 -40.18,-11.44 -20.08,0 -38.08,5.44 -53.98,16.32 -16.05,10.88 -26.93,25.39 -32.79,43.25 -5.99,17.99 -8.92,51.19 -8.92,99.74l0 196.41 -114.67 0 0 -434.4 106.3 0 0 63.75c38.08,-48.68 85.93,-72.95 143.82,-72.95 25.39,0 48.68,4.6 69.75,13.67 21.2,9.2 37.11,20.78 47.85,34.87 10.88,14.23 18.41,30.27 22.6,48.27 4.32,17.99 6.41,43.66 6.41,77.14l0 269.65zm367.3 -137.27l114.67 19.25c-14.65,41.99 -37.95,73.94 -69.61,95.98 -31.81,21.9 -71.56,32.92 -119.13,32.92 -75.47,0 -131.41,-24.69 -167.54,-74.07 -28.6,-39.62 -42.97,-89.56 -42.97,-149.96 0,-71.98 18.84,-128.48 56.36,-169.21 37.53,-40.88 85.09,-61.24 142.57,-61.24 64.45,0 115.36,21.34 152.75,64.03 37.25,42.68 55.1,108.11 53.43,196.27l-287.09 0c0.84,34.04 10.04,60.54 27.76,79.51 17.58,18.98 39.62,28.46 65.84,28.46 18,0 33.06,-4.88 45.2,-14.65 12.28,-9.76 21.48,-25.52 27.76,-47.29zm6.7 -116.34c-0.84,-33.34 -9.35,-58.73 -25.67,-76.02 -16.32,-17.44 -36.13,-26.09 -59.57,-26.09 -24.97,0 -45.61,9.21 -61.93,27.48 -16.33,18.27 -24.28,43.24 -24,74.63l171.17 0zm207.71 253.61l0 -599.28 114.67 0 0 599.28 -114.67 0zm231.71 0l0 -114.67 114.66 0 0 114.67 -114.66 0zm222.49 27.62l131.41 15.9c2.23,15.49 7.25,26.09 15.07,31.95 11.02,8.23 28.17,12.41 51.61,12.41 29.99,0 52.45,-4.46 67.52,-13.53 10.04,-6 17.71,-15.62 22.87,-29.01 3.49,-9.49 5.31,-27.21 5.31,-52.73l0.55 -63.48c-34.59,47.29 -78.12,70.87 -130.57,70.87 -58.31,0 -104.62,-24.69 -138.66,-73.93 -26.78,-38.92 -40.17,-87.47 -40.17,-145.36 0,-72.82 17.57,-128.34 52.59,-166.7 35.01,-38.36 78.67,-57.61 130.85,-57.61 53.7,0 98.06,23.57 132.94,70.72l0 -61.52 107.13 0 0 389.48c0,51.2 -4.18,89.56 -12.69,114.81 -8.37,25.39 -20.23,45.2 -35.57,59.7 -15.21,14.37 -35.57,25.81 -61.1,33.9 -25.53,8.23 -57.76,12.28 -96.68,12.28 -73.65,0 -125.82,-12.7 -156.65,-37.95 -30.83,-25.38 -46.18,-57.33 -46.18,-96.25 0,-3.77 0.14,-8.51 0.42,-13.95zm102.95 -253.61c0,46.04 8.93,79.66 26.65,101 17.85,21.34 39.89,32.08 65.98,32.08 27.9,0 51.61,-11.02 70.86,-32.92 19.39,-21.9 29.02,-54.26 29.02,-97.23 0,-44.92 -9.21,-78.26 -27.76,-100.02 -18.41,-21.76 -41.85,-32.64 -70.17,-32.64 -27.48,0 -50.08,10.74 -67.93,32.08 -17.72,21.35 -26.65,53.85 -26.65,97.65zm408.31 253.61l131.41 15.9c2.23,15.49 7.25,26.09 15.07,31.95 11.02,8.23 28.17,12.41 51.61,12.41 29.99,0 52.45,-4.46 67.52,-13.53 10.04,-6 17.71,-15.62 22.87,-29.01 3.49,-9.49 5.31,-27.21 5.31,-52.73l0.55 -63.48c-34.59,47.29 -78.12,70.87 -130.57,70.87 -58.31,0 -104.62,-24.69 -138.66,-73.93 -26.78,-38.92 -40.17,-87.47 -40.17,-145.36 0,-72.82 17.57,-128.34 52.59,-166.7 35.01,-38.36 78.67,-57.61 130.85,-57.61 53.7,0 98.06,23.57 132.94,70.72l0 -61.52 107.13 0 0 389.48c0,51.2 -4.18,89.56 -12.69,114.81 -8.37,25.39 -20.23,45.2 -35.57,59.7 -15.21,14.37 -35.57,25.81 -61.1,33.9 -25.53,8.23 -57.76,12.28 -96.68,12.28 -73.65,0 -125.82,-12.7 -156.65,-37.95 -30.83,-25.38 -46.18,-57.33 -46.18,-96.25 0,-3.77 0.14,-8.51 0.42,-13.95zm102.95 -253.61c0,46.04 8.93,79.66 26.65,101 17.85,21.34 39.89,32.08 65.98,32.08 27.9,0 51.61,-11.02 70.86,-32.92 19.39,-21.9 29.02,-54.26 29.02,-97.23 0,-44.92 -9.21,-78.26 -27.76,-100.02 -18.41,-21.76 -41.85,-32.64 -70.17,-32.64 -27.48,0 -50.08,10.74 -67.93,32.08 -17.72,21.35 -26.65,53.85 -26.65,97.65z"/>
   <rect class="fil20" x="1564.41" y="6617.34" width="171.98" height="9634.42" rx="76.08" ry="76.53"/>
  </g>
 </g>
</svg>