<svg xmlns="http://www.w3.org/2000/svg" xmlns:xlink="http://www.w3.org/1999/xlink" xmlns:xodm="http://www.corel.com/coreldraw/odm/2003" xml:space="preserve" version="1.1" style="shape-rendering:geometricPrecision; text-rendering:geometricPrecision; image-rendering:optimizeQuality; fill-rule:evenodd; clip-rule:evenodd" viewBox="-3437.24 5363.34 28403.53 14638.42">
 <defs>
  <style type="text/css">
   <![CDATA[
    .str2 {stroke:#ADABA9;stroke-width:52.92;stroke-miterlimit:22.9256}
    .str0 {stroke:#FEFEFE;stroke-width:20;stroke-miterlimit:22.9256}
    .str1 {stroke:#ADABA9;stroke-width:20;stroke-miterlimit:22.9256}
    .fil15 {fill:none}
    .fil12 {fill:#FEFEFE}
    .fil4 {fill:#FEFEFE}
    .fil13 {fill:#007BEF}
    .fil3 {fill:#007BFF}
    .fil16 {fill:#007BFF}
    .fil2 {fill:#0376BA}
    .fil5 {fill:#27A9E1}
    .fil11 {fill:#28A745}
    .fil7 {fill:#323A41}
    .fil1 {fill:#343A40}
    .fil17 {fill:#3A4047}
    .fil6 {fill:#424B55}
    .fil0 {fill:#454D55}
    .fil8 {fill:#6EA7B0}
    .fil14 {fill:#ADABA9}
    .fil9 {fill:#E86E5A}
    .fil10 {fill:#3378C2;fill-rule:nonzero}
   ]]>
  </style>
 </defs>
 <g id="Capa_x0020_1">
  <metadata id="CorelCorpID_0Corel-Layer"/>
  <g id="_1958993706304">
   <rect class="fil0" x="-3437.21" y="5363.34" width="28403.5" height="14638.41"/>
   <rect class="fil1" x="-3437.22" y="5363.34" width="5173.77" height="14638.41"/>
   <rect class="fil1" x="2054.18" y="7910.04" width="22436.69" height="12091.72" rx="291.04" ry="291.04"/>
   <rect class="fil1" x="-3437.24" y="5363.35" width="28403.5" height="1222.11"/>
   <rect class="fil2" x="23362.58" y="5816.36" width="502.71" height="502.71" rx="118.29" ry="118.29"/>
   <rect class="fil3" x="-3265.84" y="10272.08" width="4683.14" height="820.21" rx="119.06" ry="119.06"/>
   <rect class="fil4 str0" x="-2790.39" y="6646.06" width="299.86" height="299.86" rx="70.56" ry="70.56"/>
   <rect class="fil4 str0" x="-2790.39" y="8726.06" width="299.86" height="299.86" rx="70.56" ry="70.56"/>
   <rect class="fil4 str0" x="-2790.39" y="9616.06" width="299.86" height="299.86" rx="70.56" ry="70.56"/>
   <rect class="fil4 str0" x="-2790.39" y="10536.06" width="299.86" height="299.86" rx="70.56" ry="70.56"/>
   <rect class="fil4 str0" x="-2790.39" y="11426.06" width="299.86" height="299.86" rx="70.56" ry="70.56"/>
   <rect class="fil4 str0" x="-2790.39" y="12286.06" width="299.86" height="299.86" rx="70.56" ry="70.56"/>
   <rect class="fil4 str0" x="-2790.39" y="13166.06" width="299.86" height="299.86" rx="70.56" ry="70.56"/>
   <rect class="fil4 str0" x="-2790.39" y="15266.06" width="299.86" height="299.86" rx="70.56" ry="70.56"/>
   <rect class="fil4 str0" x="-2790.39" y="16186.06" width="299.86" height="299.86" rx="70.56" ry="70.56"/>
   <rect class="fil4 str0" x="-2790.39" y="18306.06" width="299.86" height="299.86" rx="70.56" ry="70.56"/>
   <rect class="fil4 str0" x="-2790.39" y="19206.06" width="299.86" height="299.86" rx="70.56" ry="70.56"/>
   <rect class="fil4 str0" x="-2234.76" y="6750" width="2035.78" height="171.98" rx="67.56" ry="49.17"/>
   <rect class="fil4 str0" x="-2234.76" y="8850" width="677.58" height="171.98" rx="22.49" ry="49.17"/>
   <rect class="fil4 str0" x="-2234.76" y="9700" width="959.8" height="171.98" rx="31.85" ry="49.17"/>
   <rect class="fil4 str0" x="-2234.76" y="10610" width="1189.11" height="171.98" rx="39.46" ry="49.17"/>
   <rect class="fil4 str0" x="-2234.76" y="11510" width="906.89" height="171.98" rx="30.1" ry="49.17"/>
   <rect class="fil4 str0" x="-2234.76" y="12390" width="1224.39" height="171.98" rx="40.63" ry="49.17"/>
   <rect class="fil4 str0" x="-2234.76" y="13270" width="1481.68" height="171.98" rx="49.17" ry="49.17"/>
   <rect class="fil4 str0" x="-2234.76" y="15370" width="1481.68" height="171.98" rx="49.17" ry="49.17"/>
   <rect class="fil4 str0" x="-2234.76" y="18370" width="1481.68" height="171.98" rx="49.17" ry="49.17"/>
   <rect class="fil4 str0" x="-2234.76" y="19310" width="1481.68" height="171.98" rx="49.17" ry="49.17"/>
   <rect class="fil4 str0" x="-2909.45" y="8024.88" width="1821.23" height="118.29" rx="60.44" ry="33.82"/>
   <rect class="fil4 str0" x="-2909.45" y="14584.88" width="717.27" height="118.29" rx="23.8" ry="33.82"/>
   <rect class="fil4 str0" x="3242.13" y="5873.07" width="299.86" height="299.86" rx="70.56" ry="70.56"/>
   <rect class="fil4 str0" x="3797.76" y="5957.01" width="796.07" height="171.98" rx="26.42" ry="49.17"/>
   <rect class="fil4 str0" x="2252.13" y="5873.07" width="299.86" height="299.86" rx="70.56" ry="70.56"/>
   <rect class="fil4 str0" x="5262.13" y="5873.07" width="299.86" height="299.86" rx="70.56" ry="70.56"/>
   <rect class="fil4 str0" x="5630.12" y="5957.01" width="1816.82" height="171.98" rx="60.29" ry="49.17"/>
   <rect class="fil4 str0" x="20442.13" y="5873.07" width="299.86" height="299.86" rx="70.56" ry="70.56"/>
   <rect class="fil4 str0" x="20856.96" y="5952.6" width="978.97" height="171.98" rx="32.49" ry="49.17"/>
   <rect class="fil4 str0" x="19482.13" y="5873.07" width="299.86" height="299.86" rx="70.56" ry="70.56"/>
   <rect class="fil4 str0" x="22576.96" y="5952.6" width="603.94" height="171.98" rx="20.04" ry="49.17"/>
   <rect class="fil4 str0" x="2155.25" y="7160.55" width="2610.6" height="294.4" rx="86.63" ry="84.17"/>
   <g>
    <circle class="fil5" cx="-2437.75" cy="5984.7" r="471.7"/>
    <g>
     <g>
      <rect class="fil6" x="-2688.77" y="5897.86" width="514.18" height="157.47" rx="25.44" ry="26.08"/>
      <path class="fil7" d="M-2174.59 5923.94l0 105.31c0,14.34 -11.73,26.08 -26.07,26.08l-231.02 0 0 -157.47 231.02 0c14.34,0 26.07,11.73 26.07,26.08z"/>
     </g>
     <g>
      <rect class="fil7" x="-2688.77" y="5735.39" width="514.18" height="157.47" rx="25.44" ry="26.08"/>
      <path class="fil6" d="M-2174.59 5761.46l0 105.32c0,14.34 -11.73,26.08 -26.07,26.08l-231.02 0 0 -157.47 231.02 0c14.34,0 26.07,11.73 26.07,26.07z"/>
     </g>
     <rect class="fil7" x="-2688.77" y="6060.33" width="514.18" height="157.47" rx="25.44" ry="26.08"/>
     <path class="fil6" d="M-2174.59 6086.41l0 105.32c0,14.34 -11.73,26.07 -26.07,26.07l-231.02 0 0 -157.47 231.02 0c14.34,0 26.07,11.74 26.07,26.08z"/>
     <g>
      <rect class="fil8" x="-2650.03" y="5770.39" width="153.93" height="32.41" rx="6.08" ry="8.1"/>
      <rect class="fil8" x="-2650.03" y="5826.65" width="153.93" height="32.41" rx="6.08" ry="8.1"/>
     </g>
     <g>
      <rect class="fil8" x="-2650.03" y="6095.34" width="153.93" height="32.41" rx="6.08" ry="8.1"/>
      <rect class="fil8" x="-2650.03" y="6151.6" width="153.93" height="32.41" rx="6.08" ry="8.1"/>
     </g>
     <g>
      <rect class="fil8" x="-2370.54" y="5932.47" width="153.93" height="32.41" rx="6.08" ry="8.1"/>
      <rect class="fil8" x="-2370.54" y="5988.74" width="153.93" height="32.41" rx="6.08" ry="8.1"/>
     </g>
     <g>
      <rect class="fil9" x="-2229.78" y="5770.29" width="23.29" height="24.56" rx="6.08" ry="6.41"/>
      <rect class="fil9" x="-2229.78" y="5802.44" width="23.29" height="24.56" rx="6.08" ry="6.41"/>
      <rect class="fil9" x="-2229.78" y="5834.59" width="23.29" height="24.56" rx="6.08" ry="6.41"/>
     </g>
     <g>
      <rect class="fil9" x="-2229.78" y="6095.81" width="23.29" height="24.56" rx="6.08" ry="6.41"/>
      <rect class="fil9" x="-2229.78" y="6127.96" width="23.29" height="24.56" rx="6.08" ry="6.41"/>
      <rect class="fil9" x="-2229.78" y="6160.11" width="23.29" height="24.56" rx="6.08" ry="6.41"/>
     </g>
     <g>
      <rect class="fil9" x="-2651.29" y="5933.41" width="23.29" height="24.56" rx="6.08" ry="6.41"/>
      <rect class="fil9" x="-2651.29" y="5965.56" width="23.29" height="24.56" rx="6.08" ry="6.41"/>
      <rect class="fil9" x="-2651.29" y="5997.71" width="23.29" height="24.56" rx="6.08" ry="6.41"/>
     </g>
    </g>
   </g>
   <path class="fil10" d="M-1314.87 6068.22l36.29 9.17c-7.58,29.73 -21.2,52.34 -40.88,67.94 -19.68,15.6 -43.75,23.43 -72.21,23.43 -29.42,0 -53.36,-5.98 -71.83,-18.02 -18.47,-11.97 -32.48,-29.35 -42.09,-52.09 -9.62,-22.79 -14.46,-47.18 -14.46,-73.29 0,-28.46 5.42,-53.3 16.31,-74.5 10.88,-21.21 26.36,-37.32 46.42,-48.33 20.06,-11.02 42.15,-16.5 66.22,-16.5 27.38,0 50.37,6.94 68.97,20.89 18.65,13.95 31.64,33.49 38.97,58.71l-35.54 8.41c-6.3,-19.87 -15.53,-34.39 -27.57,-43.43 -12.03,-9.11 -27.19,-13.63 -45.46,-13.63 -20.95,0 -38.53,5.03 -52.6,15.09 -14.08,10.06 -24.01,23.63 -29.68,40.57 -5.73,17 -8.59,34.51 -8.59,52.53 0,23.24 3.37,43.56 10.12,60.88 6.75,17.38 17.26,30.31 31.52,38.9 14.27,8.6 29.68,12.87 46.3,12.87 20.25,0 37.31,-5.86 51.32,-17.51 14.01,-11.72 23.5,-29.04 28.47,-52.09zm149.83 65.97l4.59 29.67c-9.43,1.98 -17.9,2.99 -25.28,2.99 -12.17,0 -21.59,-1.91 -28.34,-5.79 -6.69,-3.88 -11.4,-8.92 -14.14,-15.22 -2.74,-6.3 -4.07,-19.55 -4.07,-39.73l0 -114.24 -24.84 0 0 -25.98 24.84 0 0 -49.04 33.62 -20.18 0 69.22 33.62 0 0 25.98 -33.62 0 0 116.15c0,9.61 0.57,15.79 1.78,18.53 1.15,2.73 3.06,4.9 5.73,6.55 2.68,1.6 6.5,2.42 11.47,2.42 3.69,0 8.59,-0.44 14.64,-1.33zm32.79 29.99l0 -198.29 30.19 0 0 30.37c7.7,-14.07 14.84,-23.37 21.39,-27.83 6.56,-4.52 13.76,-6.75 21.59,-6.75 11.34,0 22.86,3.57 34.58,10.64l-11.97 31.01c-8.15,-4.59 -16.3,-6.88 -24.46,-6.88 -7.32,0 -13.88,2.23 -19.67,6.62 -5.8,4.4 -9.94,10.51 -12.42,18.34 -3.76,11.91 -5.6,24.97 -5.6,39.17l0 103.6 -33.63 0zm126.85 0l0 -273.56 33.62 0 0 273.56 -33.62 0zm85.65 76.03l0 -274.32 30.56 0 0 26.04c7.2,-10.06 15.35,-17.64 24.45,-22.67 9.05,-5.03 20.06,-7.58 32.99,-7.58 16.94,0 31.84,4.33 44.77,13.06 12.92,8.66 22.67,20.95 29.29,36.74 6.56,15.86 9.87,33.18 9.87,52.09 0,20.18 -3.63,38.4 -10.89,54.63 -7.26,16.18 -17.83,28.6 -31.71,37.26 -13.82,8.59 -28.4,12.92 -43.69,12.92 -11.2,0 -21.26,-2.35 -30.12,-7.07 -8.91,-4.71 -16.17,-10.63 -21.9,-17.83l0 96.73 -33.62 0zm30.56 -173.97c0,25.41 5.16,44.2 15.41,56.36 10.32,12.16 22.8,18.27 37.45,18.27 14.9,0 27.63,-6.3 38.2,-18.91 10.64,-12.61 15.92,-32.09 15.92,-58.52 0,-25.22 -5.16,-44.06 -15.54,-56.61 -10.38,-12.54 -22.73,-18.78 -37.12,-18.78 -14.26,0 -26.87,6.68 -37.83,19.99 -11.01,13.37 -16.49,32.73 -16.49,58.2zm311.45 73.11c-12.48,10.63 -24.52,18.08 -36.04,22.47 -11.53,4.4 -23.88,6.56 -37.13,6.56 -21.78,0 -38.52,-5.28 -50.24,-15.92 -11.72,-10.57 -17.58,-24.13 -17.58,-40.62 0,-9.68 2.23,-18.53 6.63,-26.56 4.45,-8.02 10.25,-14.39 17.38,-19.23 7.2,-4.84 15.22,-8.53 24.2,-11.01 6.62,-1.72 16.62,-3.38 29.93,-5.04 27.12,-3.18 47.18,-7.06 59.98,-11.52 0.13,-4.59 0.19,-7.52 0.19,-8.72 0,-13.63 -3.18,-23.25 -9.55,-28.85 -8.59,-7.58 -21.39,-11.34 -38.33,-11.34 -15.86,0 -27.57,2.81 -35.09,8.35 -7.58,5.54 -13.12,15.34 -16.75,29.48l-32.85 -4.59c2.99,-14.07 7.89,-25.47 14.77,-34.13 6.88,-8.66 16.81,-15.28 29.8,-19.99 12.93,-4.65 28.02,-7.01 45.08,-7.01 16.94,0 30.76,1.98 41.4,5.99 10.57,4.01 18.4,8.98 23.37,15.03 4.96,6.05 8.46,13.69 10.5,22.92 1.08,5.73 1.66,16.05 1.66,30.88l0 44.58c0,31.14 0.7,50.82 2.1,59.16 1.34,8.34 4.14,16.3 8.21,23.94l-35.15 0c-3.37,-7.07 -5.54,-15.35 -6.49,-24.83zm-2.68 -74.51c-12.22,4.97 -30.56,9.17 -55.01,12.61 -13.89,1.97 -23.69,4.2 -29.42,6.69 -5.73,2.48 -10.13,6.11 -13.25,10.82 -3.12,4.78 -4.71,10.06 -4.71,15.92 0,8.85 3.37,16.3 10.19,22.22 6.81,5.93 16.75,8.92 29.8,8.92 12.93,0 24.45,-2.8 34.58,-8.47 10.06,-5.6 17.51,-13.31 22.22,-23.05 3.63,-7.58 5.41,-18.72 5.41,-33.43l0.19 -12.23zm85.65 99.34l0 -198.29 30.18 0 0 28.14c14.52,-21.59 35.53,-32.35 62.98,-32.35 11.97,0 22.92,2.17 32.92,6.43 10,4.27 17.51,9.94 22.48,16.88 4.97,6.94 8.47,15.22 10.44,24.77 1.21,6.24 1.85,17.13 1.85,32.67l0 121.75 -33.62 0 0 -120.48c0,-13.69 -1.28,-23.94 -3.89,-30.69 -2.61,-6.75 -7.26,-12.16 -13.88,-16.24 -6.62,-4.01 -14.46,-6.05 -23.37,-6.05 -14.26,0 -26.55,4.52 -36.93,13.63 -10.38,9.04 -15.54,26.3 -15.54,51.64l0 108.19 -33.62 0zm347.74 -64.19l34.77 4.59c-5.41,20.18 -15.54,35.91 -30.31,47.06 -14.78,11.14 -33.63,16.74 -56.61,16.74 -28.91,0 -51.84,-8.91 -68.78,-26.74 -16.93,-17.77 -25.4,-42.79 -25.4,-74.95 0,-33.24 8.53,-59.1 25.66,-77.43 17.13,-18.41 39.35,-27.58 66.67,-27.58 26.43,0 48.01,8.98 64.76,27 16.75,18.02 25.15,43.37 25.15,76.03 0,1.98 -0.06,4.97 -0.19,8.92l-147.67 0c1.28,21.71 7.39,38.4 18.47,49.92 11.02,11.53 24.83,17.32 41.33,17.32 12.29,0 22.79,-3.24 31.45,-9.74 8.73,-6.49 15.61,-16.87 20.7,-31.14zm-110.04 -53.87l110.42 0c-1.46,-16.68 -5.73,-29.16 -12.67,-37.51 -10.63,-12.92 -24.52,-19.42 -41.52,-19.42 -15.41,0 -28.34,5.16 -38.84,15.48 -10.45,10.31 -16.24,24.13 -17.39,41.45zm186.51 118.06l0 -273.56 33.62 0 0 273.56 -33.62 0zm95.2 0l0 -38.21 38.21 0 0 38.21 -38.21 0zm90.42 16.43l32.48 4.58c1.33,10.07 5.15,17.39 11.39,22.04 8.35,6.17 19.74,9.29 34.2,9.29 15.54,0 27.57,-3.12 36.04,-9.29 8.47,-6.18 14.2,-14.9 17.19,-26.05 1.72,-6.81 2.55,-21.14 2.42,-42.98 -14.71,17.32 -32.98,25.98 -54.89,25.98 -27.25,0 -48.39,-9.81 -63.29,-29.48 -14.97,-19.62 -22.42,-43.18 -22.42,-70.62 0,-18.91 3.44,-36.36 10.25,-52.35 6.82,-15.98 16.75,-28.27 29.74,-36.99 12.99,-8.73 28.28,-13.06 45.85,-13.06 23.37,0 42.67,9.55 57.82,28.66l0 -24.45 30.95 0 0 171.23c0,30.88 -3.12,52.72 -9.43,65.59 -6.24,12.86 -16.23,23.05 -29.8,30.5 -13.62,7.45 -30.37,11.2 -50.24,11.2 -23.62,0 -42.66,-5.28 -57.18,-15.91 -14.58,-10.58 -21.59,-26.56 -21.08,-47.89zm27.51 -118.95c0,25.91 5.16,44.83 15.47,56.74 10.38,11.9 23.31,17.89 38.85,17.89 15.47,0 28.4,-5.92 38.9,-17.77 10.45,-11.84 15.67,-30.44 15.67,-55.78 0,-24.2 -5.41,-42.47 -16.18,-54.76 -10.76,-12.29 -23.75,-18.41 -38.9,-18.41 -14.97,0 -27.64,6.05 -38.15,18.15 -10.44,12.1 -15.66,30.06 -15.66,53.94zm184.98 118.95l32.48 4.58c1.33,10.07 5.15,17.39 11.39,22.04 8.35,6.17 19.74,9.29 34.2,9.29 15.54,0 27.57,-3.12 36.04,-9.29 8.47,-6.18 14.2,-14.9 17.19,-26.05 1.72,-6.81 2.55,-21.14 2.42,-42.98 -14.71,17.32 -32.98,25.98 -54.89,25.98 -27.25,0 -48.39,-9.81 -63.29,-29.48 -14.97,-19.62 -22.42,-43.18 -22.42,-70.62 0,-18.91 3.44,-36.36 10.25,-52.35 6.82,-15.98 16.75,-28.27 29.74,-36.99 12.99,-8.73 28.28,-13.06 45.85,-13.06 23.37,0 42.67,9.55 57.82,28.66l0 -24.45 30.95 0 0 171.23c0,30.88 -3.12,52.72 -9.43,65.59 -6.24,12.86 -16.23,23.05 -29.8,30.5 -13.62,7.45 -30.37,11.2 -50.24,11.2 -23.62,0 -42.66,-5.28 -57.18,-15.91 -14.58,-10.58 -21.59,-26.56 -21.08,-47.89zm27.51 -118.95c0,25.91 5.16,44.83 15.47,56.74 10.38,11.9 23.31,17.89 38.85,17.89 15.47,0 28.4,-5.92 38.9,-17.77 10.45,-11.84 15.67,-30.44 15.67,-55.78 0,-24.2 -5.41,-42.47 -16.18,-54.76 -10.76,-12.29 -23.75,-18.41 -38.9,-18.41 -14.97,0 -27.64,6.05 -38.15,18.15 -10.44,12.1 -15.66,30.06 -15.66,53.94z"/>
   <rect class="fil4 str0" x="-2234.76" y="16290" width="1481.68" height="171.98" rx="49.17" ry="49.17"/>
   <rect class="fil4 str0" x="-2909.45" y="17564.88" width="717.27" height="118.29" rx="23.8" ry="33.82"/>
   <rect class="fil11" x="769.61" y="18286.06" width="299.86" height="299.86" rx="70.56" ry="70.56"/>
   <rect class="fil12" x="850.17" y="18356.62" width="158.74" height="158.74" rx="37.35" ry="37.35"/>
   <rect class="fil4 str0" x="2549.61" y="8206.06" width="299.86" height="299.86" rx="70.56" ry="70.56"/>
   <rect class="fil4 str0" x="3105.24" y="8330" width="1268.67" height="171.98" rx="42.1" ry="49.17"/>
   <rect class="fil13" x="21410.1" y="7139.4" width="1481.67" height="211.67" rx="55.58" ry="55.58"/>
   <rect class="fil14" x="23290.11" y="7139.4" width="1355.01" height="211.67" rx="50.83" ry="55.58"/>
   <line class="fil15 str1" x1="23163.44" y1="7118.04" x2="23070.84" y2="7391.45"/>
   <rect class="fil3" x="21995.25" y="8180.93" width="2054.94" height="617.36" rx="79.38" ry="79.38"/>
   <rect class="fil4 str0" x="22169.61" y="8306.06" width="299.86" height="299.86" rx="70.56" ry="70.56"/>
   <rect class="fil4 str0" x="22565.24" y="8390" width="1268.67" height="171.98" rx="42.1" ry="49.17"/>
   <line class="fil15 str1" x1="2499.75" y1="10446.21" x2="24482.27" y2="10446.21"/>
   <line class="fil15 str1" x1="2499.75" y1="15086.21" x2="24482.27" y2="15086.21"/>
   <line class="fil15 str1" x1="2499.75" y1="18166.21" x2="24482.27" y2="18166.21"/>
   <line class="fil15 str2" x1="2499.75" y1="11966.21" x2="24482.27" y2="11966.21"/>
   <rect class="fil4 str0" x="3805.44" y="11338.11" width="240.63" height="240.63" rx="56.62" ry="56.62"/>
   <rect class="fil4 str0" x="2805.24" y="11380" width="805.77" height="171.98" rx="26.74" ry="49.17"/>
   <rect class="fil4 str0" x="5585.44" y="11338.11" width="240.63" height="240.63" rx="56.62" ry="56.62"/>
   <rect class="fil4 str0" x="4585.24" y="11380" width="805.77" height="171.98" rx="26.74" ry="49.17"/>
   <rect class="fil4 str0" x="7365.44" y="11338.11" width="240.63" height="240.63" rx="56.62" ry="56.62"/>
   <rect class="fil4 str0" x="6365.24" y="11380" width="805.77" height="171.98" rx="26.74" ry="49.17"/>
   <rect class="fil4 str0" x="9345.44" y="11338.11" width="240.63" height="240.63" rx="56.62" ry="56.62"/>
   <rect class="fil4 str0" x="8045.24" y="11380" width="1152.91" height="171.98" rx="38.26" ry="49.17"/>
   <rect class="fil4 str0" x="10825.44" y="11338.11" width="240.63" height="240.63" rx="56.62" ry="56.62"/>
   <rect class="fil4 str0" x="10102.15" y="11380" width="546.81" height="171.98" rx="18.15" ry="49.17"/>
   <rect class="fil4 str0" x="12485.44" y="11338.11" width="240.63" height="240.63" rx="56.62" ry="56.62"/>
   <rect class="fil4 str0" x="11562.15" y="11380" width="771.33" height="171.98" rx="25.6" ry="49.17"/>
   <rect class="fil4 str0" x="14005.44" y="11338.11" width="240.63" height="240.63" rx="56.62" ry="56.62"/>
   <rect class="fil4 str0" x="13242.15" y="11380" width="564.19" height="171.98" rx="18.72" ry="49.17"/>
   <rect class="fil4 str0" x="16385.44" y="11338.11" width="240.63" height="240.63" rx="56.62" ry="56.62"/>
   <rect class="fil4 str0" x="14762.15" y="11380" width="1465.14" height="171.98" rx="48.62" ry="49.17"/>
   <rect class="fil4 str0" x="18505.44" y="11338.11" width="240.63" height="240.63" rx="56.62" ry="56.62"/>
   <rect class="fil4 str0" x="17122.15" y="11380" width="1221.82" height="171.98" rx="40.55" ry="49.17"/>
   <rect class="fil4 str0" x="19242.15" y="11380" width="892.17" height="171.98" rx="29.61" ry="49.17"/>
   <rect class="fil4 str0" x="20642.15" y="11380" width="718.08" height="171.98" rx="23.83" ry="49.17"/>
   <rect class="fil4 str0" x="23045.44" y="11338.11" width="240.63" height="240.63" rx="56.62" ry="56.62"/>
   <rect class="fil4 str0" x="21862.15" y="11380" width="1015.04" height="171.98" rx="33.68" ry="49.17"/>
   <rect class="fil4 str0" x="23750.32" y="11380" width="726.87" height="171.98" rx="24.12" ry="49.17"/>
   <rect class="fil15 str1" x="20456.27" y="9515.77" width="3607.17" height="626.18" rx="90.17" ry="88.19"/>
   <rect class="fil15 str1" x="3350.64" y="9513.4" width="1150.71" height="626.18" rx="28.77" ry="88.19"/>
   <rect class="fil4 str0" x="2505.24" y="9730" width="765.8" height="171.98" rx="25.41" ry="49.17"/>
   <rect class="fil4 str0" x="3565.24" y="9730" width="301.11" height="171.98" rx="9.99" ry="49.17"/>
   <rect class="fil4 str0" x="4605.24" y="9730" width="941.22" height="171.98" rx="31.23" ry="49.17"/>
   <rect class="fil4 str0" x="19316.71" y="9743.71" width="941.22" height="171.98" rx="31.23" ry="49.17"/>
   <rect class="fil16" x="2755.16" y="12341.47" width="598.62" height="334.04" rx="155.44" ry="155.44"/>
   <circle class="fil12" cx="3183.37" cy="12511.41" r="124.02"/>
   <rect class="fil16" x="2755.16" y="15441.47" width="598.62" height="334.04" rx="155.44" ry="155.44"/>
   <circle class="fil12" cx="3183.37" cy="15611.41" r="124.02"/>
   <rect class="fil16" x="2755.16" y="18541.47" width="598.62" height="334.04" rx="155.44" ry="155.44"/>
   <circle class="fil12" cx="3183.37" cy="18711.41" r="124.02"/>
   <rect class="fil4 str0" x="4585.24" y="12460" width="895.18" height="171.98" rx="29.71" ry="49.17"/>
   <rect class="fil4 str0" x="6425.24" y="12460" width="895.18" height="171.98" rx="29.71" ry="49.17"/>
   <rect class="fil4 str0" x="8025.24" y="12460" width="358.99" height="171.98" rx="11.91" ry="49.17"/>
   <rect class="fil4 str0" x="10125.24" y="12460" width="441.81" height="171.98" rx="14.66" ry="49.17"/>
   <rect class="fil4 str0" x="11565.24" y="12460" width="318.12" height="171.98" rx="10.56" ry="49.17"/>
   <rect class="fil4 str0" x="13265.24" y="12460" width="589.27" height="171.98" rx="19.56" ry="49.17"/>
   <rect class="fil4 str0" x="14705.24" y="12460" width="187.77" height="171.98" rx="6.23" ry="49.17"/>
   <rect class="fil4 str0" x="17105.24" y="12460" width="187.77" height="171.98" rx="6.23" ry="49.17"/>
   <rect class="fil4 str0" x="19225.24" y="12460" width="187.77" height="171.98" rx="6.23" ry="49.17"/>
   <rect class="fil4 str0" x="20645.24" y="12460" width="187.77" height="171.98" rx="6.23" ry="49.17"/>
   <rect class="fil4 str0" x="21905.24" y="12460" width="187.77" height="171.98" rx="6.23" ry="49.17"/>
   <rect class="fil4 str0" x="23765.24" y="12460" width="187.77" height="171.98" rx="6.23" ry="49.17"/>
   <rect class="fil4 str0" x="4585.24" y="15540" width="1199.51" height="171.98" rx="39.81" ry="49.17"/>
   <rect class="fil4 str0" x="6425.24" y="15540" width="895.18" height="171.98" rx="29.71" ry="49.17"/>
   <rect class="fil4 str0" x="8025.24" y="15540" width="358.99" height="171.98" rx="11.91" ry="49.17"/>
   <rect class="fil4 str0" x="10125.24" y="15540" width="441.81" height="171.98" rx="14.66" ry="49.17"/>
   <rect class="fil4 str0" x="11565.24" y="15540" width="318.12" height="171.98" rx="10.56" ry="49.17"/>
   <rect class="fil4 str0" x="13265.24" y="15540" width="589.27" height="171.98" rx="19.56" ry="49.17"/>
   <rect class="fil4 str0" x="14705.24" y="15540" width="187.77" height="171.98" rx="6.23" ry="49.17"/>
   <rect class="fil4 str0" x="17105.24" y="15540" width="187.77" height="171.98" rx="6.23" ry="49.17"/>
   <rect class="fil4 str0" x="19225.24" y="15540" width="187.77" height="171.98" rx="6.23" ry="49.17"/>
   <rect class="fil4 str0" x="20645.24" y="15540" width="187.77" height="171.98" rx="6.23" ry="49.17"/>
   <rect class="fil4 str0" x="21905.24" y="15540" width="187.77" height="171.98" rx="6.23" ry="49.17"/>
   <rect class="fil4 str0" x="23765.24" y="15540" width="187.77" height="171.98" rx="6.23" ry="49.17"/>
   <rect class="fil4 str0" x="4585.24" y="18640" width="1199.51" height="171.98" rx="39.81" ry="49.17"/>
   <rect class="fil4 str0" x="6425.24" y="18640" width="895.18" height="171.98" rx="29.71" ry="49.17"/>
   <rect class="fil4 str0" x="8025.24" y="18640" width="358.99" height="171.98" rx="11.91" ry="49.17"/>
   <rect class="fil4 str0" x="10125.24" y="18640" width="441.81" height="171.98" rx="14.66" ry="49.17"/>
   <rect class="fil4 str0" x="11565.24" y="18640" width="318.12" height="171.98" rx="10.56" ry="49.17"/>
   <rect class="fil4 str0" x="13265.24" y="18640" width="589.27" height="171.98" rx="19.56" ry="49.17"/>
   <rect class="fil4 str0" x="14705.24" y="18640" width="187.77" height="171.98" rx="6.23" ry="49.17"/>
   <rect class="fil4 str0" x="17105.24" y="18640" width="187.77" height="171.98" rx="6.23" ry="49.17"/>
   <rect class="fil4 str0" x="19225.24" y="18640" width="187.77" height="171.98" rx="6.23" ry="49.17"/>
   <rect class="fil4 str0" x="20645.24" y="18640" width="187.77" height="171.98" rx="6.23" ry="49.17"/>
   <rect class="fil4 str0" x="21905.24" y="18640" width="187.77" height="171.98" rx="6.23" ry="49.17"/>
   <rect class="fil4 str0" x="23765.24" y="18640" width="187.77" height="171.98" rx="6.23" ry="49.17"/>
   <rect class="fil17" x="1604.41" y="10367.34" width="171.98" height="9634.42" rx="76.08" ry="76.53"/>
  </g>
 </g>
</svg>