<svg xmlns="http://www.w3.org/2000/svg" xmlns:xlink="http://www.w3.org/1999/xlink" xmlns:xodm="http://www.corel.com/coreldraw/odm/2003" xml:space="preserve" version="1.1" style="shape-rendering:geometricPrecision; text-rendering:geometricPrecision; image-rendering:optimizeQuality; fill-rule:evenodd; clip-rule:evenodd" viewBox="792.59 3140.19 14772.21 7323.49">
 <defs>
  <style type="text/css">
   <![CDATA[
    .fil4 {fill:#FEFEFE}
    .fil2 {fill:#FEFEFE}
    .fil7 {fill:#002B8A}
    .fil8 {fill:#009AE0}
    .fil12 {fill:#040404}
    .fil3 {fill:#216ABF}
    .fil6 {fill:#27A5DB}
    .fil1 {fill:#31373E}
    .fil5 {fill:#31373E}
    .fil0 {fill:#434C54}
    .fil9 {fill:#635BFE}
    .fil10 {fill:#FDFDFD}
    .fil11 {fill:#FEFEFE}
    .fil13 {fill:#FEFEFE}
   ]]>
  </style>
 </defs>
 <g id="Capa_x0020_1">
  <metadata id="CorelCorpID_0Corel-Layer"/>
  <g id="_1278492659328">
   <rect class="fil0" x="1465.4" y="3140.19" width="13269.29" height="7323.49" rx="435.06" ry="435.06"/>
   <rect class="fil1" x="1465.4" y="3140.2" width="13269.29" height="916.84" rx="435.06" ry="54.47"/>
   <rect class="fil2" x="2059.79" y="5784.94" width="1459.86" height="173.24" rx="76.6" ry="49.09"/>
   <rect class="fil3" x="1708.7" y="3748.35" width="700.29" height="132.3" rx="36.75" ry="37.49"/>
   <rect class="fil4" x="1622.28" y="3355.89" width="442.76" height="132.3" rx="23.23" ry="37.49"/>
   <rect class="fil3" x="2538.7" y="3748.35" width="700.29" height="132.3" rx="36.75" ry="37.49"/>
   <rect class="fil4" x="3373.7" y="3748.35" width="700.29" height="132.3" rx="36.75" ry="37.49"/>
   <rect class="fil3" x="4203.7" y="3748.35" width="700.29" height="132.3" rx="36.75" ry="37.49"/>
   <rect class="fil3" x="5023.7" y="3748.35" width="700.29" height="132.3" rx="36.75" ry="37.49"/>
   <rect class="fil4" x="2694.94" y="4780.37" width="2472.76" height="646.34" rx="129.75" ry="183.14"/>
   <rect class="fil5" x="2059.79" y="6112.31" width="3743.06" height="173.24" rx="196.41" ry="49.09"/>
   <rect class="fil2" x="2059.79" y="6452.77" width="1459.86" height="173.24" rx="76.6" ry="49.09"/>
   <rect class="fil5" x="2059.79" y="6780.14" width="3743.06" height="173.24" rx="196.41" ry="49.09"/>
   <rect class="fil2" x="2059.79" y="7094.41" width="1459.86" height="173.24" rx="76.6" ry="49.09"/>
   <rect class="fil5" x="2059.79" y="7421.78" width="3743.06" height="173.24" rx="196.41" ry="49.09"/>
   <rect class="fil2" x="2059.79" y="7762.25" width="1459.86" height="173.24" rx="76.6" ry="49.09"/>
   <rect class="fil5" x="2059.79" y="8089.62" width="3743.06" height="173.24" rx="196.41" ry="49.09"/>
   <rect class="fil6" x="1814.48" y="9742.86" width="852.6" height="399.6" rx="44.74" ry="113.22"/>
   <rect class="fil2" x="6179.79" y="5784.94" width="1459.86" height="173.24" rx="76.6" ry="49.09"/>
   <rect class="fil4" x="6814.94" y="4780.37" width="2472.76" height="646.34" rx="129.75" ry="183.14"/>
   <rect class="fil5" x="6179.79" y="6112.31" width="3743.06" height="173.24" rx="196.41" ry="49.09"/>
   <rect class="fil2" x="6179.79" y="6452.77" width="1459.86" height="173.24" rx="76.6" ry="49.09"/>
   <rect class="fil5" x="6179.79" y="6780.14" width="3743.06" height="173.24" rx="196.41" ry="49.09"/>
   <rect class="fil2" x="6179.79" y="7094.41" width="1459.86" height="173.24" rx="76.6" ry="49.09"/>
   <rect class="fil5" x="6179.79" y="7421.78" width="3743.06" height="173.24" rx="196.41" ry="49.09"/>
   <rect class="fil2" x="6179.79" y="7762.25" width="1459.86" height="173.24" rx="76.6" ry="49.09"/>
   <rect class="fil5" x="6179.79" y="8089.62" width="3743.06" height="173.24" rx="196.41" ry="49.09"/>
   <rect class="fil2" x="10334.79" y="5784.94" width="1459.86" height="173.24" rx="76.6" ry="49.09"/>
   <rect class="fil4" x="10969.94" y="4780.37" width="2472.76" height="646.34" rx="129.75" ry="183.14"/>
   <rect class="fil5" x="10334.79" y="6112.31" width="3743.06" height="173.24" rx="196.41" ry="49.09"/>
   <rect class="fil2" x="6174.79" y="8422.25" width="1459.86" height="173.24" rx="76.6" ry="49.09"/>
   <rect class="fil5" x="6174.79" y="8749.62" width="3743.06" height="173.24" rx="196.41" ry="49.09"/>
   <g>
    <g>
     <path class="fil7" d="M1405.59 7909.17c25.45,-139.41 45.08,-282.71 67.29,-423.32 29.99,-189.85 60.56,-100.73 350.06,-134.13 147.38,-17 271.27,-75.34 362.29,-182.68 54.25,-63.98 118.65,-225.43 123.09,-309.24 44.61,-314.12 -168.01,-417.6 -444.55,-421.36 -145.73,-1.99 -292.97,0.04 -438.88,0.01 -79.06,-0.03 -145.66,-14.75 -164.33,58.12 -13.46,52.58 -21.71,134.24 -30.48,190.9 -39.61,255.7 -80.85,508.8 -120.46,763.35 -79.51,510.9 -106.77,458.06 75.42,458.12 73.31,0.03 147.33,-1.03 220.55,0.23z"/>
     <path class="fil8" d="M1405.59 7902.26c-24.83,218.1 -88.55,182.02 259.4,183.2 64.21,0.22 83.34,-14.82 93.05,-75.37 15.1,-94.29 29.58,-188.74 44.27,-282.45 23.02,-146.84 63.71,-86.12 225.08,-108.95 198.53,-28.08 314.16,-129.98 374.83,-286.25 74.09,-190.8 64.76,-404.38 -93.9,-479.55 -4.44,83.81 -68.84,245.26 -123.09,309.24 -91.02,107.34 -214.91,165.68 -362.29,182.68 -289.5,33.4 -320.07,-55.72 -350.06,134.13 -22.21,140.61 -41.84,283.91 -67.29,423.32z"/>
    </g>
    <g>
     <rect class="fil9" x="792.59" y="8237.94" width="1609.63" height="1609.63" rx="218.45" ry="218.45"/>
     <path class="fil10" d="M1300.41 9200.03l-0.02 231.63c136.98,42.66 273.84,84.77 430.81,26.62 115.39,-42.75 222.42,-174.93 159.48,-338.29 -56.12,-145.68 -181.88,-134.3 -317.03,-205.98 -77.72,-41.22 -42.76,-109.33 70.66,-102.14 98.37,6.25 136.52,36.57 214.49,57.66 -0.03,-252.79 26.64,-225.46 -92.21,-252.94 -34.87,-8.07 -74.96,-14.21 -112.64,-15.49 -318.81,-10.82 -434.01,216.78 -331.55,394.76 66.9,116.24 289.47,128.11 328.24,196 41.53,72.72 -59.6,93.78 -151.77,78.11 -84.07,-14.3 -129.41,-42.69 -198.46,-69.94z"/>
    </g>
    <g>
     <path class="fil6" d="M14749.22 3926.38c-405.22,-75.58 -730.49,235.59 -783.34,563.78 -65.09,404.3 226.21,728.24 554.42,785.71 431.03,75.48 742.71,-230.67 802.93,-566.4 74.9,-417.56 -238.14,-720.46 -574.01,-783.09zm-662.2 1408.04c-37.75,-46.24 -86.13,-70.6 -129.34,-124.87 -30.94,-38.86 -73.88,-93.4 -100.02,-141.43 -550.92,-1012.58 796.85,-1883.91 1500.49,-1044.36 438.58,523.31 145.4,1369.65 -562.19,1482.01 -306.29,48.64 -291.61,-63.27 -423.5,33.17 -181.2,132.5 -448.67,254.84 -735.46,257.96l38.76 -29.1c3.15,-1.81 6.48,-3.23 9.66,-4.83 98.77,-50.12 129.34,-50.75 240.31,-147.62 61.17,-53.4 148.85,-158.15 161.29,-280.93z"/>
     <path class="fil11" d="M14672.58 5206.44c-24.2,-40.42 -46.49,-44.12 -98.42,-90.43 -35.86,-32 -66.31,-55.75 -93.33,-91.93 -55.19,20.93 -101.55,56.08 -128.45,112.12 129.59,39.65 146.06,69.78 320.2,70.24zm180.03 -33.36c-7.95,-76.18 -87.5,-216.16 -113.7,-299.58 -87.71,20.75 -157.32,74.18 -222.31,110.41 31.17,85.46 194.87,213.88 336.01,189.17zm-550.62 -76.16c52.54,-26.87 82.92,-72.01 131.78,-109.75l-123.61 -211.7 -206.43 79.61c14.52,85.56 135.2,210.21 198.26,241.84zm706.44 -307.69c-72.47,2.06 -166.47,25.28 -223.68,62.37 10.88,79.93 77.21,180.59 99.11,259.16 93.34,-47.19 124.1,-230.67 124.57,-321.53zm-37.87 315.72c112.02,-54.35 206.48,-179.97 255.27,-337.53l-165.74 11.02c-52.7,285.48 6.61,70.59 -89.53,326.51zm-261.32 -274.19c-10.82,-54.33 -54.27,-161.46 -85.37,-193.5 -55,18.78 -232,85.53 -264.28,120.46 30.14,79.14 73.42,127.71 111.04,195.21l238.61 -122.17zm-424.39 -113.27c-33.84,-93.57 -41.87,-139.94 -56.35,-249.87 -49.91,-12.63 -137.57,-10.41 -173.39,2.61 -36.34,107.96 -15.62,230.82 18.24,341.08 63.14,-10.86 172.37,-53.87 211.5,-93.82zm719.26 20.86c0.57,-102.06 -20.26,-152.61 -45.84,-242.28l-282.92 115.57 83.15 188.49 245.61 -61.78zm-470.48 -345.18l-255.21 59.62c-5.53,89.44 27.02,175.58 53.97,253.72l277.57 -124.09 -76.33 -189.25zm707.53 326.76c17.79,-158 6.88,-187.9 -26.88,-334.08l-209 90.07 50.64 251.42 185.24 -7.41zm-309.33 -265.76c-26.19,-81.34 -72.77,-174.23 -151.61,-206.44 -56.14,47.51 -127.33,93.12 -210.1,119.03l94.38 199.36 267.33 -111.95zm-535.95 -361.72c-77.45,70.01 -110.94,176.04 -121.6,313.09 80.44,-12.01 170.32,-23.33 232.86,-65.44l-111.26 -247.65zm789.05 249.5c-26.64,-110.39 -136.45,-209.74 -223.76,-250.28 -45.53,46.48 -65.65,74.06 -122.26,113.3 20,54.11 40.76,58.08 77.55,111.81 27.76,40.57 40.03,77.12 71.17,113.57l197.3 -88.4zm-904.17 -169.28c6.66,-15.2 38.73,-52.63 35.69,-55.92l-44.1 7.38c-2.14,1.79 -5.43,4.12 -7.68,5.88 -90.78,71.26 -162.97,164.79 -192.8,285.43l156.68 -1.52c2.77,-85.92 18.61,-164.55 52.21,-241.25zm334.78 -63.78c-58.6,-28.19 -96.66,-41.34 -170.37,-42.13l103.05 254.49c46.57,-10.61 79.58,-28.67 114.78,-47.7l88.67 -65.72 -136.13 -98.94zm300.62 -46.84c-96.64,-47 -291.59,-107.41 -412.33,-42.77 131.34,42.64 215.5,82.67 294.4,154.49 36.19,-24.74 92.38,-75.78 117.93,-111.72zm-166.94 -135.67c335.87,62.63 648.91,365.53 574.01,783.09 -60.22,335.73 -371.9,641.88 -802.93,566.4 -328.21,-57.47 -619.51,-381.41 -554.42,-785.71 52.85,-328.19 378.12,-639.36 783.34,-563.78z"/>
     <path class="fil6" d="M14609.96 4582.42l-277.57 124.09c-26.95,-78.14 -59.5,-164.28 -53.97,-253.72l255.21 -59.62 76.33 189.25z"/>
     <path class="fil6" d="M14284.85 4717.49c-39.13,39.95 -148.36,82.96 -211.5,93.82 -33.86,-110.26 -54.58,-233.12 -18.24,-341.08 35.82,-13.02 123.48,-15.24 173.39,-2.61 14.48,109.93 22.51,156.3 56.35,249.87z"/>
     <path class="fil6" d="M14931.83 4454.17l-267.33 111.95 -94.38 -199.36c82.77,-25.91 153.96,-71.52 210.1,-119.03 78.84,32.21 125.42,125.1 151.61,206.44z"/>
     <path class="fil6" d="M14709.24 4830.76l-238.61 122.17c-37.62,-67.5 -80.9,-116.07 -111.04,-195.21 32.28,-34.93 209.28,-101.68 264.28,-120.46 31.1,32.04 74.55,139.17 85.37,193.5z"/>
     <path class="fil6" d="M15184.93 4341.95l-197.3 88.4c-31.14,-36.45 -43.41,-73 -71.17,-113.57 -36.79,-53.73 -57.55,-57.7 -77.55,-111.81 56.61,-39.24 76.73,-66.82 122.26,-113.3 87.31,40.54 197.12,139.89 223.76,250.28z"/>
     <path class="fil6" d="M15004.11 4738.35l-245.61 61.78 -83.15 -188.49 282.92 -115.57c25.58,89.67 46.41,140.22 45.84,242.28z"/>
     <path class="fil6" d="M15241.16 4719.93l-185.24 7.41 -50.64 -251.42 209 -90.07c33.76,146.18 44.67,176.08 26.88,334.08z"/>
     <path class="fil6" d="M14301.99 5096.92c-63.06,-31.63 -183.74,-156.28 -198.26,-241.84l206.43 -79.61 123.61 211.7c-48.86,37.74 -79.24,82.88 -131.78,109.75z"/>
     <path class="fil6" d="M14852.61 5173.08c-141.14,24.71 -304.84,-103.71 -336.01,-189.17 64.99,-36.23 134.6,-89.66 222.31,-110.41 26.2,83.42 105.75,223.4 113.7,299.58z"/>
     <path class="fil6" d="M14784.75 4851.6c57.21,-37.09 151.21,-60.31 223.68,-62.37 -0.47,90.86 -31.23,274.34 -124.57,321.53 -21.9,-78.57 -88.23,-179.23 -99.11,-259.16z"/>
     <path class="fil6" d="M14507.14 4340.1c-62.54,42.11 -152.42,53.43 -232.86,65.44 10.66,-137.05 44.15,-243.08 121.6,-313.09l111.26 247.65z"/>
     <path class="fil6" d="M14751.67 4207.83l-88.67 65.72c-35.2,19.03 -68.21,37.09 -114.78,47.7l-103.05 -254.49c73.71,0.79 111.77,13.94 170.37,42.13l136.13 98.94z"/>
     <path class="fil6" d="M14970.56 5104.95c96.14,-255.92 36.83,-41.03 89.53,-326.51l165.74 -11.02c-48.79,157.56 -143.25,283.18 -255.27,337.53z"/>
     <path class="fil6" d="M14916.16 4062.05c-25.55,35.94 -81.74,86.98 -117.93,111.72 -78.9,-71.82 -163.06,-111.85 -294.4,-154.49 120.74,-64.64 315.69,-4.23 412.33,42.77z"/>
     <path class="fil6" d="M14316.45 4116.75c3.04,3.29 -29.03,40.72 -35.69,55.92 -33.6,76.7 -49.44,155.33 -52.21,241.25l-156.68 1.52c29.83,-120.64 102.02,-214.17 192.8,-285.43 2.25,-1.76 5.54,-4.09 7.68,-5.88l44.1 -7.38z"/>
     <path class="fil6" d="M14672.58 5206.44c-174.14,-0.46 -190.61,-30.59 -320.2,-70.24 26.9,-56.04 73.26,-91.19 128.45,-112.12 27.02,36.18 57.47,59.93 93.33,91.93 51.93,46.31 74.22,50.01 98.42,90.43z"/>
    </g>
   </g>
   <path class="fil11" d="M13990.86 9352.76c20.6,-35.64 -20.93,-24.26 62.47,-29.07l633.02 0.43c77.93,0.71 54.45,-12.45 77.57,28.64 -23.63,18.75 4.75,9.62 -34.07,18.46l-644.85 3.36c-3.63,-0.02 -44.97,-0.67 -45.84,-0.82 -66.59,-11.2 -22.29,-0.92 -48.3,-21zm0.15 -245.87c23.68,-31.12 -30.75,-23.46 140.64,-22.5l1045.64 -0.29c70.15,-0.62 107.77,-19.1 109.4,40.62l-1233.34 9.63c-104.69,-5.42 -35.59,-7.75 -62.34,-27.46zm47.53 -247.86c-74.83,-10.02 -24.47,10.23 -48.35,-28.73 24.74,-19.19 -3.85,-8.41 34.97,-18.57l1120.82 -2.61c19.06,-0.15 61.51,-2.33 77.77,-0.91 25.23,2.18 20.55,2.23 41.58,8.4l22.63 13.69c-21.48,35.24 19.35,24.57 -63.63,29.2l-1185.79 -0.47zm-48.31 -740.72l1297.53 1.65 -3.88 521.91 -1293.22 1.47 -0.43 -525.03zm110.53 -213.87c-120.08,1.58 -93.35,1.6 -109.86,-26.86 23.54,-19.29 -26.48,-16.19 62.9,-23.29l339.2 1.45c154.09,-2.01 106.24,4.78 129.46,21.84 -26.34,38.38 29.42,18.8 -51.24,28.15l-370.46 -1.29zm-256.42 1854.96l87.66 -61.43 108.3 86.53 91.73 -87.86 94.52 82.07 104.61 -85.03 107.16 86.85c44.57,-29.97 57.71,-58.72 109.8,-84.63 38.06,27.4 56.94,62.45 105.18,84.48l91.43 -85.37c44.07,37.1 57.43,65.14 112,86.97l89.92 -85.1 103.63 86.21c39.02,-37.77 63.81,-68.43 111.64,-87.45l90.44 84.14 106.84 -88.2c34.7,26.28 39.06,40.42 74.85,60.22l-0.6 -1854.33 -304.27 -3.96 -2.6 -301.4 -1282.49 -4.56 0.25 2171.85z"/>
   <path class="fil3" d="M13844.09 7587.55l1282.49 4.56 2.6 301.4 304.27 3.96 0.6 1854.33c-35.79,-19.8 -40.15,-33.94 -74.85,-60.22l-106.84 88.2 -90.44 -84.14c-47.83,19.02 -72.62,49.68 -111.64,87.45l-103.63 -86.21 -89.92 85.1c-54.57,-21.83 -67.93,-49.87 -112,-86.97l-91.43 85.37c-48.24,-22.03 -67.12,-57.08 -105.18,-84.48 -52.09,25.91 -65.23,54.66 -109.8,84.63l-107.16 -86.85 -104.61 85.03 -94.52 -82.07 -91.73 87.86 -108.3 -86.53 -87.66 61.43 -0.25 -2171.85zm1332.89 42.76c45.96,28.06 188.95,166.99 212.75,214.51l-213.71 -0.11 0.96 -214.4zm-840.1 2130.36l102.2 85.74c43.79,-25.15 66.21,-56.9 105.54,-82.96l89.57 87.77 112.23 -87.57c52.93,30.02 56.72,56.59 107.36,79.06l92.39 -78.83c66.67,29.41 51.08,43.75 109.45,83.17l95.59 -87.68 105.99 90.58 94.92 -90.08c53.51,39.46 61.73,73.07 129.73,105l-0.29 -1910.45c0,-105.23 -4.17,-99.04 -60.41,-152.04l-215.48 -214.79c-59.23,-61.58 -61.03,-48.81 -167.3,-48.81l-1242.33 2.33 5.67 2326.1 133.09 -107.66 96.68 87.66 100.27 -84.36c56.81,27.82 55.38,46.21 108.47,83.51l96.66 -85.69z"/>
   <path class="fil3" d="M14570.64 8483.06l666.72 -1.27 -4.79 112.2 -664.25 -2.92 2.32 -108.01zm-282.89 -0.53l229.3 -0.87 -5.05 112.22 -227.97 -0.2 3.72 -111.15zm-242.75 -0.56l186.43 4.68 -1.49 105.62 -189.13 2.85 4.19 -113.15zm522.76 -54.14c-2.83,-103.56 -22.31,-103.1 84.43,-102.83l584.94 1.9 2.18 107.92 -671.55 -6.99zm-283.37 -101.36l232.15 0.63 1.71 106.85 -237.96 0.36 4.1 -107.84zm-242.49 -0.29l190.24 4.68 0.63 100.82 -195.1 1.94 4.23 -107.44zm526.35 -158.97l671.53 -1.76 -0.98 105.12 -672.2 2.38 1.65 -105.74zm-286.49 -0.55l236.69 -1.69 0 111.28 -237 0.13 0.31 -109.72zm-243.6 -1.69l194.54 0 0.96 108.83 -195.16 2.45 -0.34 -111.28zm-47.5 478.37l1293.22 -1.47 3.88 -521.91 -1297.53 -1.65 0.43 525.03z"/>
   <polygon class="fil11" points="14568.25,8272.96 15238.74,8276.25 15239.78,8164.97 14568.25,8164.97 "/>
   <polygon class="fil11" points="14568.32,8591.07 15232.57,8593.99 15237.36,8481.79 14570.64,8483.06 "/>
   <path class="fil11" d="M14567.76 8427.83l671.55 6.99 -2.18 -107.92 -584.94 -1.9c-106.74,-0.27 -87.26,-0.73 -84.43,102.83z"/>
   <path class="fil12" d="M13990.19 8830.3c23.88,38.96 -26.48,18.71 48.35,28.73l1185.79 0.47c82.98,-4.63 42.15,6.04 63.63,-29.2l-22.63 -13.69c-21.03,-6.17 -16.35,-6.22 -41.58,-8.4 -16.26,-1.42 -58.71,0.76 -77.77,0.91l-1120.82 2.61c-38.82,10.16 -10.23,-0.62 -34.97,18.57z"/>
   <polygon class="fil11" points="14281.76,8276.38 14518.45,8276.25 14518.45,8165.63 14281.76,8166.66 "/>
   <polygon class="fil11" points="14284.03,8593.68 14512,8593.88 14517.05,8481.66 14287.75,8482.53 "/>
   <path class="fil11" d="M15176.02 7844.71l213.71 0.11c-23.8,-47.52 -166.79,-186.45 -212.75,-214.51l-0.96 214.4z"/>
   <polygon class="fil11" points="14280.29,8434.31 14518.25,8433.95 14516.54,8327.1 14284.39,8326.47 "/>
   <polygon class="fil11" points="14038.5,8276.25 14233.66,8273.8 14232.7,8164.97 14038.16,8164.97 "/>
   <polygon class="fil11" points="14040.81,8595.12 14229.94,8592.27 14231.43,8486.65 14045,8481.97 "/>
   <rect class="fil11" x="13901.73" y="8733.59" width="1455.22" height="833.44"/>
   <polygon class="fil11" points="14037.67,8433.62 14232.77,8431.68 14232.14,8330.86 14041.9,8326.18 "/>
   <rect class="fil3" x="13954.09" y="7835.26" width="731" height="76.71" rx="38.36" ry="21.74"/>
   <rect class="fil3" x="13954.09" y="8795.26" width="1331.68" height="76.71" rx="69.88" ry="21.74"/>
   <rect class="fil3" x="13990.23" y="8118.31" width="1293.65" height="523.56"/>
   <rect class="fil3" x="13954.09" y="9055.26" width="1331.68" height="76.71" rx="69.88" ry="21.74"/>
   <rect class="fil3" x="13954.09" y="9315.26" width="665.84" height="76.71" rx="34.94" ry="21.74"/>
   <rect class="fil13" x="14038.16" y="8164.97" width="195.5" height="108.83"/>
   <rect class="fil13" x="14281.76" y="8166.65" width="236.69" height="109.59"/>
   <rect class="fil4" x="14568.24" y="8164.97" width="671.53" height="111.28"/>
   <polygon class="fil11" points="14568.25,8432.96 15238.74,8436.25 15239.78,8324.97 14568.25,8324.97 "/>
   <polygon class="fil11" points="14281.76,8436.38 14518.45,8436.25 14518.45,8325.63 14281.76,8326.66 "/>
   <polygon class="fil11" points="14038.5,8436.25 14233.66,8433.8 14232.7,8324.97 14038.16,8324.97 "/>
   <rect class="fil13" x="14038.16" y="8324.97" width="195.5" height="108.83"/>
   <rect class="fil13" x="14281.76" y="8326.65" width="236.69" height="109.59"/>
   <rect class="fil4" x="14568.24" y="8324.97" width="671.53" height="111.28"/>
   <polygon class="fil11" points="14568.25,8592.96 15238.74,8596.25 15239.78,8484.97 14568.25,8484.97 "/>
   <polygon class="fil11" points="14281.76,8596.38 14518.45,8596.25 14518.45,8485.63 14281.76,8486.66 "/>
   <polygon class="fil11" points="14038.5,8596.25 14233.66,8593.8 14232.7,8484.97 14038.16,8484.97 "/>
   <rect class="fil13" x="14038.16" y="8484.97" width="195.5" height="108.83"/>
   <rect class="fil13" x="14281.76" y="8486.65" width="236.69" height="109.59"/>
   <rect class="fil4" x="14568.24" y="8484.97" width="671.53" height="111.28"/>
  </g>
 </g>
</svg>