<svg xmlns="http://www.w3.org/2000/svg" xmlns:xlink="http://www.w3.org/1999/xlink" xmlns:xodm="http://www.corel.com/coreldraw/odm/2003" xml:space="preserve" version="1.1" style="shape-rendering:geometricPrecision; text-rendering:geometricPrecision; image-rendering:optimizeQuality; fill-rule:evenodd; clip-rule:evenodd" viewBox="1465.39 3140.19 13269.29 7323.5">
 <defs>
  <style type="text/css">
   <![CDATA[
    .fil3 {fill:#FEFEFE}
    .fil2 {fill:#27A5DB}
    .fil1 {fill:#31373E}
    .fil0 {fill:#434C54}
   ]]>
  </style>
 </defs>
 <g id="Capa_x0020_1">
  <metadata id="CorelCorpID_0Corel-Layer"/>
  <g id="_1242132138176">
   <rect class="fil0" x="1465.39" y="3140.19" width="13269.29" height="7323.49" rx="435.06" ry="435.06"/>
   <path class="fil1" d="M1580.39 3140.2l1705.78 0c63.25,0 114.99,51.74 114.99,114.99l0 7093.51c0,63.23 -51.76,114.99 -114.99,114.99l-1397.15 0c-216.45,0 -423.62,-212.36 -423.62,-384.54l0 -6823.96c0,-63.25 51.74,-114.99 114.99,-114.99z"/>
   <rect class="fil1" x="1465.39" y="3140.2" width="13269.29" height="716.12" rx="435.06" ry="42.54"/>
   <rect class="fil2" x="1465.4" y="3140.2" width="1935.76" height="716.12" rx="63.47" ry="42.54"/>
   <rect class="fil1" x="3872" y="4144.29" width="2323.65" height="690.16" rx="76.19" ry="41"/>
   <rect class="fil1" x="6564.2" y="4144.29" width="2323.65" height="690.16" rx="76.19" ry="41"/>
   <rect class="fil1" x="9280.19" y="4144.29" width="2323.65" height="690.16" rx="76.19" ry="41"/>
   <rect class="fil1" x="11971.87" y="4144.29" width="2323.65" height="690.16" rx="76.19" ry="41"/>
   <rect class="fil1" x="3872" y="5164.29" width="5015.85" height="5147.88" rx="164.45" ry="305.82"/>
   <rect class="fil1" x="9272" y="5164.29" width="5015.85" height="2519.68" rx="164.45" ry="149.68"/>
   <rect class="fil3" x="1579.9" y="4369.1" width="1666.88" height="132.3" rx="87.47" ry="37.49"/>
   <rect class="fil3" x="1579.9" y="4609.1" width="1666.88" height="132.3" rx="87.47" ry="37.49"/>
   <rect class="fil3" x="1579.9" y="5029.1" width="1666.88" height="132.3" rx="87.47" ry="37.49"/>
   <rect class="fil3" x="1579.9" y="5269.1" width="1666.88" height="132.3" rx="87.47" ry="37.49"/>
   <rect class="fil3" x="1579.9" y="5509.1" width="1666.88" height="132.3" rx="87.47" ry="37.49"/>
   <rect class="fil3" x="1579.9" y="5769.1" width="1666.88" height="132.3" rx="87.47" ry="37.49"/>
   <rect class="fil3" x="1579.9" y="6189.1" width="1666.88" height="132.3" rx="87.47" ry="37.49"/>
   <rect class="fil3" x="1579.9" y="6429.1" width="1666.88" height="132.3" rx="87.47" ry="37.49"/>
   <rect class="fil3" x="1579.9" y="6669.1" width="1666.88" height="132.3" rx="87.47" ry="37.49"/>
   <rect class="fil3" x="1579.9" y="6929.1" width="1666.88" height="132.3" rx="87.47" ry="37.49"/>
   <rect class="fil3" x="1579.9" y="7309.1" width="1666.88" height="132.3" rx="87.47" ry="37.49"/>
   <rect class="fil3" x="1579.9" y="7549.1" width="1666.88" height="132.3" rx="87.47" ry="37.49"/>
   <rect class="fil3" x="1579.9" y="7789.1" width="1666.88" height="132.3" rx="87.47" ry="37.49"/>
   <rect class="fil3" x="1579.9" y="8049.1" width="1666.88" height="132.3" rx="87.47" ry="37.49"/>
   <rect class="fil3" x="1579.9" y="8429.1" width="1666.88" height="132.3" rx="87.47" ry="37.49"/>
   <rect class="fil3" x="1579.9" y="8669.1" width="1666.88" height="132.3" rx="87.47" ry="37.49"/>
   <rect class="fil3" x="1579.9" y="8909.1" width="1666.88" height="132.3" rx="87.47" ry="37.49"/>
   <rect class="fil3" x="1579.9" y="9169.1" width="1666.88" height="132.3" rx="87.47" ry="37.49"/>
   <rect class="fil3" x="1579.9" y="9529.1" width="1666.88" height="132.3" rx="87.47" ry="37.49"/>
   <rect class="fil3" x="1579.9" y="9769.1" width="1666.88" height="132.3" rx="87.47" ry="37.49"/>
   <rect class="fil3" x="1579.9" y="10009.1" width="1666.88" height="132.3" rx="87.47" ry="37.49"/>
   <rect class="fil3" x="4097.85" y="5730.3" width="2826.64" height="132.3" rx="148.32" ry="37.49"/>
   <rect class="fil3" x="4097.84" y="5470.3" width="4502.34" height="132.3" rx="236.25" ry="37.49"/>
   <rect class="fil3" x="4097.85" y="6260.3" width="2826.64" height="132.3" rx="148.32" ry="37.49"/>
   <rect class="fil3" x="4097.84" y="6000.3" width="4502.34" height="132.3" rx="236.25" ry="37.49"/>
   <rect class="fil3" x="4097.85" y="6790.3" width="2826.64" height="132.3" rx="148.32" ry="37.49"/>
   <rect class="fil3" x="4097.84" y="6530.3" width="4502.34" height="132.3" rx="236.25" ry="37.49"/>
   <rect class="fil3" x="4097.85" y="7300.3" width="2826.64" height="132.3" rx="148.32" ry="37.49"/>
   <rect class="fil3" x="4097.84" y="7040.3" width="4502.34" height="132.3" rx="236.25" ry="37.49"/>
   <rect class="fil3" x="9437.84" y="5470.3" width="4502.34" height="132.3" rx="236.25" ry="37.49"/>
   <rect class="fil3" x="9437.85" y="5720.3" width="2826.64" height="132.3" rx="148.32" ry="37.49"/>
   <rect class="fil3" x="9437.84" y="5980.3" width="4502.34" height="132.3" rx="236.25" ry="37.49"/>
   <rect class="fil3" x="9437.85" y="6240.3" width="2826.64" height="132.3" rx="148.32" ry="37.49"/>
  </g>
 </g>
</svg>