<svg xmlns="http://www.w3.org/2000/svg" xmlns:xlink="http://www.w3.org/1999/xlink" xmlns:xodm="http://www.corel.com/coreldraw/odm/2003" xml:space="preserve" version="1.1" style="shape-rendering:geometricPrecision; text-rendering:geometricPrecision; image-rendering:optimizeQuality; fill-rule:evenodd; clip-rule:evenodd" viewBox="-245.67 3140.19 14980.36 7800.63">
 <defs>
  <style type="text/css">
   <![CDATA[
    .fil2 {fill:#FEFEFE}
    .fil22 {fill:#151515}
    .fil23 {fill:#161616}
    .fil19 {fill:#222222}
    .fil3 {fill:#27A5DB}
    .fil12 {fill:#2E2E2E}
    .fil14 {fill:#2F2F2F}
    .fil1 {fill:#31373E}
    .fil11 {fill:#393939}
    .fil16 {fill:#3D3D3D}
    .fil24 {fill:#3E3E3E}
    .fil0 {fill:#434C54}
    .fil15 {fill:#444444}
    .fil17 {fill:#505050}
    .fil8 {fill:#6C3B0F}
    .fil20 {fill:#7B441E}
    .fil25 {fill:#824008}
    .fil5 {fill:#904904}
    .fil26 {fill:#91552C}
    .fil7 {fill:#A2551E}
    .fil18 {fill:#A3561F}
    .fil10 {fill:#A45F30}
    .fil29 {fill:#AAAAAA}
    .fil6 {fill:#B06633}
    .fil27 {fill:#B15F8B}
    .fil13 {fill:#B16734}
    .fil4 {fill:#BB6C34}
    .fil21 {fill:#CA62D1}
    .fil30 {fill:#E4B03A}
    .fil28 {fill:#FDFDFC}
    .fil9 {fill:#FEFEFE}
    .fil31 {fill:#FFC33C}
   ]]>
  </style>
 </defs>
 <g id="Capa_x0020_1">
  <metadata id="CorelCorpID_0Corel-Layer"/>
  <g id="_1242136336208">
   <rect class="fil0" x="1465.4" y="3140.19" width="13269.29" height="7323.49" rx="435.06" ry="435.06"/>
   <rect class="fil1" x="1465.4" y="3140.2" width="13269.29" height="358.06" rx="435.06" ry="21.27"/>
   <rect class="fil1" x="3182" y="6372.6" width="3052.48" height="3919.57" rx="100.08" ry="232.85"/>
   <rect class="fil1" x="3182" y="3697.9" width="9842.49" height="2519.68" rx="322.71" ry="149.68"/>
   <rect class="fil2" x="3402.02" y="6880.3" width="1619.56" height="132.3" rx="84.98" ry="37.49"/>
   <rect class="fil2" x="3402.02" y="6620.3" width="2558.2" height="132.3" rx="134.24" ry="37.49"/>
   <rect class="fil2" x="3402.02" y="7410.3" width="1619.56" height="132.3" rx="84.98" ry="37.49"/>
   <rect class="fil2" x="3402.02" y="7150.3" width="2579.67" height="132.3" rx="135.36" ry="37.49"/>
   <rect class="fil2" x="3402.02" y="7940.3" width="1619.56" height="132.3" rx="84.98" ry="37.49"/>
   <rect class="fil2" x="3402.02" y="7680.3" width="2579.67" height="132.3" rx="135.36" ry="37.49"/>
   <rect class="fil2" x="3402.02" y="8450.3" width="1619.56" height="132.3" rx="84.98" ry="37.49"/>
   <rect class="fil2" x="3402.02" y="8190.3" width="2579.67" height="132.3" rx="135.36" ry="37.49"/>
   <rect class="fil2" x="3507.43" y="4003.91" width="8834.83" height="132.3" rx="463.59" ry="37.49"/>
   <rect class="fil2" x="3507.44" y="4253.91" width="5546.65" height="132.3" rx="291.05" ry="37.49"/>
   <rect class="fil2" x="3507.43" y="4513.91" width="8834.83" height="132.3" rx="463.59" ry="37.49"/>
   <rect class="fil2" x="3507.44" y="4773.91" width="5546.65" height="132.3" rx="291.05" ry="37.49"/>
   <rect class="fil1" x="6582" y="6372.6" width="3052.48" height="3919.57" rx="100.08" ry="232.85"/>
   <rect class="fil2" x="6802.02" y="6880.3" width="1619.56" height="132.3" rx="84.98" ry="37.49"/>
   <rect class="fil2" x="6802.02" y="6620.3" width="2558.2" height="132.3" rx="134.24" ry="37.49"/>
   <rect class="fil2" x="6802.02" y="7410.3" width="1619.56" height="132.3" rx="84.98" ry="37.49"/>
   <rect class="fil2" x="6802.02" y="7150.3" width="2579.67" height="132.3" rx="135.36" ry="37.49"/>
   <rect class="fil2" x="6802.02" y="7940.3" width="1619.56" height="132.3" rx="84.98" ry="37.49"/>
   <rect class="fil2" x="6802.02" y="7680.3" width="2579.67" height="132.3" rx="135.36" ry="37.49"/>
   <rect class="fil2" x="6802.02" y="8450.3" width="1619.56" height="132.3" rx="84.98" ry="37.49"/>
   <rect class="fil2" x="6802.02" y="8190.3" width="2579.67" height="132.3" rx="135.36" ry="37.49"/>
   <rect class="fil1" x="9972" y="6372.6" width="3052.48" height="3919.57" rx="100.08" ry="232.85"/>
   <rect class="fil2" x="10192.02" y="6880.3" width="1619.56" height="132.3" rx="84.98" ry="37.49"/>
   <rect class="fil2" x="10192.02" y="6620.3" width="2558.2" height="132.3" rx="134.24" ry="37.49"/>
   <rect class="fil2" x="10192.02" y="7410.3" width="1619.56" height="132.3" rx="84.98" ry="37.49"/>
   <rect class="fil2" x="10192.02" y="7150.3" width="2579.67" height="132.3" rx="135.36" ry="37.49"/>
   <rect class="fil2" x="10192.02" y="7940.3" width="1619.56" height="132.3" rx="84.98" ry="37.49"/>
   <rect class="fil2" x="10192.02" y="7680.3" width="2579.67" height="132.3" rx="135.36" ry="37.49"/>
   <rect class="fil2" x="10192.02" y="8450.3" width="1619.56" height="132.3" rx="84.98" ry="37.49"/>
   <rect class="fil2" x="10192.02" y="8190.3" width="2579.67" height="132.3" rx="135.36" ry="37.49"/>
   <rect class="fil3" x="3764.05" y="9390.22" width="1888.36" height="493.59" rx="99.09" ry="139.86"/>
   <rect class="fil3" x="7164.05" y="9390.22" width="1888.36" height="493.59" rx="99.09" ry="139.86"/>
   <rect class="fil3" x="10554.05" y="9390.23" width="1888.36" height="493.59" rx="99.09" ry="139.86"/>
   <g>
    <path class="fil4" d="M1304.02 7868.09c-27.54,4.16 -33.16,-5.52 -41.51,-27.57 -6.93,-18.32 -12.29,-46.78 4.9,-56 25.64,-13.75 48.9,45.71 36.61,83.57zm291.65 1.62c-10.62,-35.78 8.15,-103.58 38.15,-85.4 18.46,11.19 14.02,85.89 -38.15,85.4zm-566.05 -1444.27c-15.23,54.57 -45.58,124.56 -68.11,172.3 -13.25,21.42 -18.31,36.37 -28.89,61.13 -10.32,24.15 -18.62,39.57 -29.72,65.34 -14.55,33.82 -45.74,94.95 -49.23,133.94 82.28,-13.98 203.1,-40.27 273.24,-0.24 14.37,82.06 -69.49,38.5 -140.92,44.06 -79.2,6.17 -101.64,11.37 -162.03,40.06 0,21.23 -2.56,27.12 -5.94,43.45 24.16,-4.21 46.6,-10.05 71.55,-13.41 10.14,-1.36 28.79,-4.38 38.23,-4.71 21.69,-0.76 29.61,-7.56 27.79,10.41 39.58,-38.05 112.17,-36.22 164.27,-16.39 239.07,90.99 246.89,594.29 -8.56,660.48 -159,41.19 -229.66,-113.98 -257.78,-143.96 3.51,30.8 16.99,120.06 0.15,139.28 18.4,47.48 31.38,92.77 55.41,137.17 10.87,20.09 22.96,40.67 36.16,58.9 14.43,19.92 35.15,40.27 45.08,57.27 23.42,14.64 85.16,98.5 160.76,152.15 14.42,10.24 21.02,20.09 31.92,34.28 21.93,28.55 44.84,37.1 56.89,71 22.31,18.61 101.05,102.16 116.76,126.2 36.74,19.66 85.49,82.65 122.02,84.2 17.5,-19.52 34.37,-29.53 58.05,-53.37 18.81,-18.93 39.39,-31.84 58.95,-52.76 -0.31,-0.95 -0.3,-3.66 -0.25,-2.99l14.32 -32c101.69,-161.18 244.42,-458.35 263.5,-631.43 -107.61,37.5 -160.15,38.76 -239.82,-30.71 -23.67,-20.64 -48.77,-53.47 -67.08,-87.46 -21.64,-40.17 -24.04,-68.37 -40.63,-110.61 -42.57,-7.29 -72.66,-21.79 -118.55,-18.71 -42.35,2.84 -67.19,20.31 -104.59,28.17 3.94,-39.59 -3.66,-48.47 21.54,-64.28 64.71,-40.6 135.65,-29.7 194.61,6.98 -4.52,-107.22 13.76,-210.35 66.6,-280.63 27.24,-36.23 48.32,-57.84 93.17,-79.31 37.73,-18.06 102.3,-28.38 137.2,-3.41l0.5 -1.4c11.1,-9.14 1.65,-3.78 17.78,-9.43 14.82,-5.19 -2.46,-0.25 11.43,-2.77 0.27,-0.05 18.56,0.4 19.68,0.26l-12.56 -53.76c-37.04,0.28 -71.89,4.48 -105.82,14.11 -30.8,8.74 -68.4,27.86 -76.76,-10.01 -12.03,-54.44 115.4,-64.4 163.09,-67.44 -5.49,-41.23 -32.23,-120.16 -46.23,-161.69 -50.35,-149.33 -106.23,-313.42 -148.11,-464.06 -30.53,-109.84 -151.54,-600.75 -101.77,-684.11 -4.69,-15.82 -3.33,-9.8 -11.89,-22.58 -69.88,1.56 -144.24,135.3 -175.73,186.68 -66.56,108.62 -129.82,244.24 -174.11,366.55l-120.32 337.17c-7.74,23.41 -14.76,46.94 -25.25,72.09z"/>
    <path class="fil5" d="M2826.18 8243.34c38,36.73 127.47,103.53 80.8,193.83 -36.12,69.91 -144.87,103.68 -173.44,127.13l-3.27 81.17c-15.54,-18.18 -32.78,-64.69 -46.03,-64.38l-4.72 13.82c-5.16,26.16 3.67,96.92 -4.77,141.44l-73.04 -129.23c-56.01,8.66 -126.46,31.7 -188.17,44.11 -167.24,33.64 -456.21,77.48 -616.28,79.52l125.14 137.3c187.5,217.79 330.42,609.41 401.52,893.58 17.99,71.91 33.22,141.59 47.32,215.04 13.12,68.31 19.77,154.33 35.93,219.9 36.42,-122.79 99.05,-330.54 165.91,-406.01 97.16,-109.68 273.34,160.99 305.05,217.09 -42.45,-223.06 -167.43,-500.62 -65,-725.69 79.22,-174.06 215.12,-472.33 207.88,-658.33 -5.8,-148.97 -59.32,-317.55 -194.83,-380.29z"/>
    <path class="fil5" d="M117.08 8652.41c-14.76,-114.1 30.48,-61.36 -63.9,-113.39 -44.65,-24.61 -75.91,-45.83 -100.22,-78.23 -65.43,-87.21 19.95,-181.27 78.64,-215.8 -16.44,6.25 -31.3,18.15 -45.69,27.72 -22.68,15.08 -19.15,16.11 -37.21,34.25 -266.59,267.84 -28.1,713.12 85.85,981.35 39.24,92.37 45.91,131.56 36.33,245.19 -7.1,84.12 -23.39,170.62 -41.52,249.91 -17.66,77.2 -45.22,158.06 -59.29,230.93 317.04,-514.18 367.32,-90.71 471.35,189.24 15.19,-73.35 21.87,-152.09 36.62,-226.04 14.75,-73.92 29.14,-141.73 47.6,-214.47 78.75,-310.29 203.11,-645.69 403.01,-892.08l121.96 -133.39c-239.15,0 -580.91,-68.13 -803.42,-124.02l-77.15 128.83 -0.33 -154.34c-29.78,4.37 -34.88,46.6 -52.63,64.34z"/>
    <path class="fil4" d="M1008.11 9237.07l-9.39 13.48c-4.2,10.29 -3.52,7.79 -4.08,20.75 -5.39,123.89 63.06,422.03 102.53,522.34 30.77,78.2 76.08,163.78 120.43,212.94 37.5,41.57 127.23,126.16 212.19,125.27 212.84,-2.22 371.26,-384.28 406.57,-598.3 11.56,-70.08 26.29,-256.84 -8.29,-316.6 -1.38,-8.06 -1.5,-5.18 -9.39,-13.08 -36.87,-36.93 -50.61,-52.34 -80.78,-103.83 -24.55,-41.9 -61.73,-134.73 -76.22,-138.03l-452.37 0.02c-12.19,44.65 -56.96,125.69 -80.31,162.93 -31.26,49.85 -62.54,86.64 -120.89,112.11z"/>
    <path class="fil6" d="M861.35 9138.33c-4.44,74.56 75.6,462.64 100.58,577.03 10.55,48.3 38.31,143.3 41.42,185.73 -32.72,26.14 -45.93,36.29 -68.13,75.6 -56.1,99.34 -75.29,211.98 -82.79,328.41 7.79,96.25 8.45,175.74 70.05,269.85 28.27,43.19 37.31,43.89 50.01,62.86 -5.72,24.56 -15.77,39.85 -17.82,66.55l190.12 25.08c-9.96,-141.01 -27.94,-70.94 19.83,-166.86 31.22,-62.66 87.11,-198.27 87.11,-269.36 120.48,57.8 254.17,54.48 368.37,-5.94l70.48 244.4c38.97,106.22 12.69,47.93 12.69,171.58l190.12 -23.97c-7.93,-16.36 -19.18,-51.52 -23.76,-71.18 98.67,-66.08 108.67,-222.35 124.77,-298.31 -6.35,-15.98 -5.41,-129.88 -35.89,-236.13 -19.77,-68.93 -51.02,-144.14 -95.31,-177.14 5.43,-46.75 31.38,-122.12 42.97,-172.99l111.26 -518.27c4.19,-30.01 -10.85,-59.3 -30.97,-75.17 -28.19,95.36 -54.68,132.03 -158.39,86.85 34.58,59.76 19.85,246.52 8.29,316.6 -35.31,214.02 -193.73,596.08 -406.57,598.3 -84.96,0.89 -174.69,-83.7 -212.19,-125.27 -44.35,-49.16 -89.66,-134.74 -120.43,-212.94 -39.47,-100.31 -107.92,-398.45 -102.53,-522.34 0.56,-12.96 -0.12,-10.46 4.08,-20.75l9.39 -13.48c-90.64,4.09 -112.54,-64.45 -118.44,-152.19l-11.95 14.69c-13.83,19.09 -15.52,22.08 -16.37,38.76z"/>
    <path class="fil7" d="M117.08 8652.41c17.75,-17.74 22.85,-59.97 52.63,-64.34l0.33 154.34 77.15 -128.83c222.51,55.89 564.27,124.02 803.42,124.02l-121.96 133.39c-199.9,246.39 -324.26,581.79 -403.01,892.08 -18.46,72.74 -32.85,140.55 -47.6,214.47 -14.75,73.95 -21.43,152.69 -36.62,226.04 -104.03,-279.95 -154.31,-703.42 -471.35,-189.24 14.07,-72.87 41.63,-153.73 59.29,-230.93 18.13,-79.29 34.42,-165.79 41.52,-249.91 9.58,-113.63 2.91,-152.82 -36.33,-245.19 -113.95,-268.23 -352.44,-713.51 -85.85,-981.35 18.06,-18.14 14.53,-19.17 37.21,-34.25 14.39,-9.57 29.25,-21.47 45.69,-27.72 -58.69,34.53 -144.07,128.59 -78.64,215.8 24.31,32.4 55.57,53.62 100.22,78.23 94.38,52.03 49.14,-0.71 63.9,113.39zm154.34 -532.63c-56.67,-2.8 -215.21,68.21 -267.71,99.57 -38.24,22.86 -73.17,48.42 -105.06,79.12 -9.16,8.82 -14.37,11.54 -22.52,19.07 -113.33,104.82 -121.98,235.57 -121.8,389.56 0.2,179.7 124.7,396.01 192.05,550.6 64.67,148.46 45.51,315.68 21.01,487.9 -7.43,52.27 -15.3,104.04 -25.24,158.93l-62.85 313.37 83.97 -131.75c47,-67.43 146.51,-195.55 241.36,-183.12 40.93,5.37 90.56,71.72 100.75,116.89 20.82,29.82 65.52,162.7 78.23,202.7 22.77,71.7 42.67,150.2 60.11,225.07l3.54 -8.34c0.33,-0.99 1.19,-3.11 1.57,-4.37l64.7 -345.25c9.14,-42.98 19.93,-74.66 27.61,-117.34 22.52,-145.94 226.16,-716.85 313.48,-826.53 0.9,-1.13 2.55,-2.86 3.31,-3.77 0.77,-0.92 2.22,-2.56 3.42,-3.76 0.85,-16.68 2.54,-19.67 16.37,-38.76l11.95 -14.69c8.69,-28.4 76.08,-130.17 92.52,-145.7 15.83,-29.87 38.36,-55.58 57.88,-81.49 19.39,-25.74 40.64,-56.32 65.09,-73.51 6.84,-21.82 15.25,-24.69 33.82,-40.21 21.68,-26.59 42.12,-52.23 80.79,-70.01 -32.8,-5.47 -80.13,-4.12 -116.67,-7.88 -18.54,-1.91 -35.95,-3.82 -54.06,-5.42 -48.95,-4.31 -38,-3.82 -48.52,-14.68 -16.41,13.08 -22.04,8.05 -47.95,4.74 -18.07,-2.31 -34.09,-4.21 -51.95,-6.42 -35.56,-4.4 -72.75,-7.04 -106.26,-16.34 -52.29,-0.82 -385.38,-51 -405.1,-76.21 -40.59,9.06 -158.54,-33.16 -199.44,-48.07 -60.33,-22 -122.13,-50.69 -159.13,-84.82 -62.47,-57.64 -26.87,-123.97 22.03,-162.47 106.3,-83.7 142.86,-74.68 156.69,-85.45l112.15 -50.67c8.39,-4.44 8.77,-5.12 13.03,-9.65l-63.17 9.16z"/>
    <path class="fil7" d="M2826.18 8243.34c135.51,62.74 189.03,231.32 194.83,380.29 7.24,186 -128.66,484.27 -207.88,658.33 -102.43,225.07 22.55,502.63 65,725.69 -31.71,-56.1 -207.89,-326.77 -305.05,-217.09 -66.86,75.47 -129.49,283.22 -165.91,406.01 -16.16,-65.57 -22.81,-151.59 -35.93,-219.9 -14.1,-73.45 -29.33,-143.13 -47.32,-215.04 -71.1,-284.17 -214.02,-675.79 -401.52,-893.58l-125.14 -137.3c160.07,-2.04 449.04,-45.88 616.28,-79.52 61.71,-12.41 132.16,-35.45 188.17,-44.11l73.04 129.23c8.44,-44.52 -0.39,-115.28 4.77,-141.44l4.72 -13.82c13.25,-0.31 30.49,46.2 46.03,64.38l3.27 -81.17c28.57,-23.45 137.32,-57.22 173.44,-127.13 46.67,-90.3 -42.8,-157.1 -80.8,-193.83zm-177.71 -76.34c58.91,28.54 79.28,26.62 151.49,84.91 201.9,162.98 -247.22,297.92 -318.04,288.28 -26.24,24.04 -136,36.27 -181.98,44.29 -45.15,7.88 -154.35,33.13 -192.88,25.55 -30.7,16.75 -191.56,37.76 -233.12,30.56 -21.15,15.04 -80.1,13.45 -111.86,16.74 -45.04,4.66 -78.16,6.26 -123.15,7.56l-8.3 5.95c38.6,13.83 66,45.22 83.71,72.58 34.84,30.19 134.08,150.58 155.84,198.23 22.92,16.45 109.84,163.27 116.28,188.45 20.12,15.87 35.16,45.16 30.97,75.17 15.75,-11.68 17.07,3.39 27.94,26.55 7.37,15.7 14.12,29.52 21.03,44.44 76.3,164.8 218.59,535.52 244.08,702.07 4.58,12.57 7.49,35 11.83,52.32l37.97 175.92c8.29,41.43 14.17,73.66 21.14,115.52l21.11 115.54c0.35,0.93 1.01,2.85 1.81,4.12 19.24,-82.58 41.07,-168.43 67.59,-247.3 14.46,-43.01 25.32,-77.29 41.83,-118.59 12.13,-30.33 35.61,-86.93 53.8,-109.41 7.07,-21.04 21.94,-38.24 39,-53.2 61.76,-54.18 150.15,20.05 189.24,59.78 62.16,63.17 125.87,143.9 161.38,225.13 4.86,10.42 4.63,10.14 11.59,17.82 -0.56,-25.18 -8.61,-50.58 -14.22,-74.9 -6.59,-28.6 -10.2,-51 -16.67,-78.39 -44.27,-187.35 -86.73,-455.51 -76.23,-648.96 3.6,-66.46 15.44,-101.34 34.9,-149.27 53.5,-131.82 126.08,-250.1 166.04,-392.45 40.84,-145.53 51.7,-340.86 -20.47,-476.12 -13.08,-24.52 -23.17,-31.58 -38.54,-50.58 -87.67,-108.46 -311.15,-230.69 -421,-231.47l-50.76 2.09c3.94,1.92 13.25,4.97 17.62,6.53l99.03 44.54z"/>
    <path class="fil6" d="M1647.87 8624.09c41.69,0.71 191.53,-8.4 214.72,5.73l11.35 10.77c41.56,7.2 202.42,-13.81 233.12,-30.56 36.73,-35.37 86.75,-62.31 153,-76.47 95.27,-20.36 137.59,0.48 221.86,6.63 70.82,9.64 519.94,-125.3 318.04,-288.28 -72.21,-58.29 -92.58,-56.37 -151.49,-84.91l-726.56 -114.19 -230.41 505.69c-14.39,23.23 -32.57,40.43 -43.63,65.59z"/>
    <path class="fil6" d="M209.41 8170.94c-13.83,10.77 -50.39,1.75 -156.69,85.45 -48.9,38.5 -84.5,104.83 -22.03,162.47 37,34.13 98.8,62.82 159.13,84.82 40.9,14.91 158.85,57.13 199.44,48.07 90.18,-7.87 129.25,-32.1 234.62,-12.63 70.61,13.06 138.77,51.75 170.48,88.84 33.51,9.3 70.7,11.94 106.26,16.34 17.86,2.21 33.88,4.11 51.95,6.42 25.91,3.31 31.54,8.34 47.95,-4.74l20.65 -16.14c24.93,-15.32 223.7,-5.68 271.33,-5.89 -12.88,-20.5 -28.75,-31.81 -42.32,-52.02 -13.29,-19.79 -20.61,-43.3 -30.53,-64.67 -17.31,-37.26 -50.97,-98.68 -60.69,-134.28 -203.23,5.25 -359.76,-6.61 -510.49,-132.36 -43.51,-36.31 -76.36,-103.42 -91.4,-119.57l-347.66 49.89z"/>
    <path class="fil8" d="M541.14 9972.39c50.22,0 132.69,-39.1 176.02,130.57 22.73,88.99 17.68,191.86 17.68,303.14 21.65,-14.49 88.66,-83.53 117.59,-101 7.5,-116.43 26.69,-229.07 82.79,-328.41 22.2,-39.31 35.41,-49.46 68.13,-75.6 -3.11,-42.43 -30.87,-137.43 -41.42,-185.73 -24.98,-114.39 -105.02,-502.47 -100.58,-577.03 -1.2,1.2 -2.65,2.84 -3.42,3.76 -0.76,0.91 -2.41,2.64 -3.31,3.77 -87.32,109.68 -290.96,680.59 -313.48,826.53z"/>
    <path class="fil8" d="M2017.43 9205.27l-111.26 518.27c-11.59,50.87 -37.54,126.24 -42.97,172.99 44.29,33 75.54,108.21 95.31,177.14 30.48,106.25 29.54,220.15 35.89,236.13 21.58,-72.56 136.88,-211.67 210.39,-269.61 37.24,-29.36 62.59,-41.48 105.69,-61.86 -25.49,-166.55 -167.78,-537.27 -244.08,-702.07 -6.91,-14.92 -13.66,-28.74 -21.03,-44.44 -10.87,-23.16 -12.19,-38.23 -27.94,-26.55z"/>
    <path class="fil9" d="M1147.1 7506.75c-25.31,98 -191.25,69.85 -160.65,-45.32 25.97,-97.74 188.78,-63.56 160.65,45.32zm-191.51 -528.98c-14.84,33.46 -38.03,53.41 -59.32,84.44 -18.02,26.27 -39.3,53.58 -64.52,70.31 -14.55,70.24 -26.71,104.85 -20.24,184.3 6.02,73.94 27.21,103.52 42.01,161.08 28.12,29.98 98.78,185.15 257.78,143.96 255.45,-66.19 247.63,-569.49 8.56,-660.48 -52.1,-19.83 -124.69,-21.66 -164.27,16.39z"/>
    <path class="fil9" d="M1766.4 7360.72c52.6,-13.13 102.08,25.68 110.08,69.14 10.2,55.37 -26.26,100.37 -69.62,108.85 -123.47,24.15 -150.63,-150.48 -40.46,-177.99zm-247.68 -71.54l6.99 47.84c16.59,42.24 18.99,70.44 40.63,110.61 18.31,33.99 43.41,66.82 67.08,87.46 79.67,69.47 132.21,68.21 239.82,30.71 3.33,-5.63 27.32,-26.15 37.35,-35.89 20.55,-19.95 21.67,-20.52 38.24,-45 26.81,-39.62 31.03,-69.19 49.33,-112.08 16.04,-112.4 12.91,-208.07 -29.57,-301.42 -28.75,2.65 -70.38,-45 -86.22,-64.47 -19.3,-23.74 -53.51,-50.37 -66.68,-81.11 -34.9,-24.97 -99.47,-14.65 -137.2,3.41 -44.85,21.47 -65.93,43.08 -93.17,79.31 -52.84,70.28 -71.12,173.41 -66.6,280.63z"/>
    <path class="fil10" d="M1113.24 8053.66l-102.82 -3.96 95.97 218.27c-85.34,-0.32 -172.16,-15.67 -242.03,-46.73 -92.36,-41.05 -101.31,-58.15 -167.87,-114.14l15 -11.67 -18.54 2.47 -29.31 4.37 -5.51 2.97c19.92,43.83 97.49,102.47 157.3,128.46 77.52,33.68 135.52,43.81 224.35,57.78 29.09,-19.17 162.76,-17.36 194.61,-2 4.28,19.58 7.35,45.87 0.61,66.88 -21.14,21.77 -33.94,14.57 -72.35,16.35l-3.69 0.27c9.72,35.6 43.38,97.02 60.69,134.28 9.92,21.37 17.24,44.88 30.53,64.67 13.57,20.21 29.44,31.52 42.32,52.02l355.37 0.14c11.06,-25.16 29.24,-42.36 43.63,-65.59l230.41 -505.69 -120.2 -22.7c-34.27,78.44 -95.89,178.89 -139.53,249.35 -43.96,70.97 -112.01,175.92 -166.85,218.82 -41.06,16.92 -129.85,-82.05 -151.19,-109.49 -8.44,-10.85 -15.48,-18.76 -23.96,-29.65 -74.81,-96.03 -181.08,-274.62 -206.94,-305.48z"/>
    <path class="fil11" d="M1057.91 8908.87c-28.24,13.37 -25.84,33.48 -75.72,30.31 -16.44,15.53 -83.83,117.3 -92.52,145.7 5.9,87.74 27.8,156.28 118.44,152.19 58.35,-25.47 89.63,-62.26 120.89,-112.11 23.35,-37.24 68.12,-118.28 80.31,-162.93l452.37 -0.02c14.49,3.3 51.67,96.13 76.22,138.03 30.17,51.49 43.91,66.9 80.78,103.83 7.89,7.9 8.01,5.02 9.39,13.08 103.71,45.18 130.2,8.51 158.39,-86.85 -6.44,-25.18 -93.36,-172 -116.28,-188.45 -44.93,-7.63 -40.8,-22.33 -62.94,-42.28 -27.01,-24.35 -26.18,-12.03 -42.94,-49.4l-646.53 2.2c-34.65,38.74 1.7,13.39 -59.86,56.7z"/>
    <path class="fil6" d="M1873.24 7565.8c-19.08,173.08 -161.81,470.25 -263.5,631.43l-14.32 32c-0.05,-0.67 -0.06,2.04 0.25,2.99l7.73 2.15c24.7,-7.98 -6.16,7.15 38.2,-40.57 17.12,-18.42 27.92,-28.45 45.65,-40.66l-96.76 155.92c-70.78,105.98 -82,93.44 -112.05,136.65 -21.82,-11.27 -71.07,-51.52 -78.69,-70.6 -31.85,-34.58 -73.93,-62.37 -95.08,-106.79 -19.04,-39.99 -52,-99.43 -64.78,-140.37 -12.05,-33.9 -34.96,-42.45 -56.89,-71 -10.9,-14.19 -17.5,-24.04 -31.92,-34.28 -75.6,-53.65 -137.34,-137.51 -160.76,-152.15 5.91,22.63 22.84,41.6 35.58,58.14 17.75,23.05 27.44,31.44 41.66,59.95 17.02,12.39 31.68,36.79 42.84,60.04l2.84 5.01c25.86,30.86 132.13,209.45 206.94,305.48 8.48,10.89 15.52,18.8 23.96,29.65 21.34,27.44 110.13,126.41 151.19,109.49 54.84,-42.9 122.89,-147.85 166.85,-218.82 43.64,-70.46 105.26,-170.91 139.53,-249.35 12.61,-20.1 16.7,-36.69 32.27,-51.15 62.58,-122.46 98.71,-152.3 146.41,-313.92 9.83,-33.3 29.37,-88.22 31.55,-122.64 -9.5,-34.45 -12.73,-126.86 -13.78,-169.57 -18.3,42.89 -22.52,72.46 -49.33,112.08 -16.57,24.48 -17.69,25.05 -38.24,45 -10.03,9.74 -34.02,30.26 -37.35,35.89z"/>
    <path class="fil12" d="M604.13 7140.52c10.61,21.13 28.91,381.44 31.6,437.53 -4.38,35.42 3.37,28.93 4.05,59.41 30.12,0 32.37,5.94 65.36,5.94 -15.34,-22.89 -22.93,-12.43 -23.77,-45.8 -0.77,-1.47 -1.56,-5.41 -1.8,-4.62 -0.25,0.79 -1.37,-3.51 -1.68,-4.77 -1.8,-7.33 -2.17,-7.59 -3.34,-16.08 -1.27,-9.29 -1.63,-23.94 -2.16,-33.74 -6.5,-120.2 -28.5,-349.49 -27.16,-441.58 25.15,-47.68 4.98,-313.47 3.49,-394.15 -1.4,-75.16 153.99,-86.68 215.76,-94.11 31.56,-3.79 58.86,-10.81 97.03,-10.81 22.53,-47.74 52.88,-117.73 68.11,-172.3l-250.68 50.04c-78.33,22.21 -160.58,43.03 -190.5,112.5 -19.75,45.86 -2.66,85.24 6.22,126.17 16.19,74.56 9.68,202.61 15.98,287.54 2.28,30.71 -6.51,69.41 -6.51,138.83z"/>
    <path class="fil12" d="M1843.58 6544.27c61.28,0 134.37,-5.17 186.24,6.16 85.83,18.74 73.03,62.34 79.16,110.96l23.45 261.73c3.72,26.81 16.66,52.39 22.38,80.35 13.06,21.99 34.4,436.38 35.89,497.34 -2.96,29.44 -10.95,16.97 -18.07,47.53 18.82,-1.56 45.51,-11.15 59.42,-17.82l-2.6 -53.47 -28.53 -445.6c5.05,-54.45 -16.97,-83.57 -20.98,-108.31l-21.89 -303.95c14.73,-120.71 -6.44,-174.77 -127.87,-205.77 -57.17,-14.6 -173.16,-29.57 -243.27,-29.57l56.67 160.42z"/>
    <path class="fil13" d="M1833.03 6795.39l96.01 8.82c-2.16,-34.17 -27.88,-96.85 -39.32,-131.5 -8.36,-25.29 -13.98,-36.71 -22.39,-60.79 -8.99,-25.76 -13.44,-42.91 -23.75,-67.65l-56.67 -160.42c-21.58,-79.88 -109.09,-292.21 -146.49,-424.34 -23.38,-82.61 -91.68,-446.51 -103.5,-473.98 -49.77,83.36 71.24,574.27 101.77,684.11 41.88,150.64 97.76,314.73 148.11,464.06 14,41.53 40.74,120.46 46.23,161.69z"/>
    <path class="fil14" d="M526.9 8055.79l30.17 65.26c15.04,16.15 47.89,83.26 91.4,119.57 150.73,125.75 307.26,137.61 510.49,132.36l3.69 -0.27c13.79,-24.27 7.09,-34.41 5.51,-63.88l-133.86 9.83c-82.94,5.15 -191.24,-22.01 -254.24,-55.07 -60.98,-32 -132.49,-94.43 -157.81,-155.99 -13.54,-18.2 -27.23,-47.33 -31.28,-72.07 -51.95,-104.32 -33.37,-327.35 -14.1,-443.16 10.95,-65.8 7.77,-44.52 21.55,-49.97l-10.75 -136.65 -36.83 -6.76 -36.44 148.73c-29.04,145.63 -36.75,284.96 -7.87,430.94 6.75,34.11 14.7,48.03 20.37,77.13z"/>
    <path class="fil15" d="M1105.16 8784.18c-9.22,55.15 -31.2,83.17 -47.25,124.69 61.56,-43.31 25.21,-17.96 59.86,-56.7l646.53 -2.2c16.76,37.37 15.93,25.05 42.94,49.4 22.14,19.95 18.01,34.65 62.94,42.28 -21.76,-47.65 -121,-168.04 -155.84,-198.23 -14.08,3.96 -43.44,4.64 -63.27,7.38 -4.61,0.64 -29.84,4.77 -31.41,4.76 -47.21,-0.21 -21.8,8.36 -31.64,-12.99 -10.36,13.58 -10.39,-17.46 -9.02,16.89l-279.73 -1.56c-8.22,-28.59 1.47,-0.93 -10.86,-13.85 -13.57,19.01 3.62,5.52 -19.14,10.33 -11.97,2.52 -56.48,-8.91 -95.24,-7.38 -8.98,0.35 -13.19,1.37 -22.2,0.6 -14.85,-1.27 -6.34,0.49 -12.85,-3.63 -18.57,15.52 -26.98,18.39 -33.82,40.21z"/>
    <path class="fil16" d="M2018.16 6983.7c-7.58,14.41 -19.72,67.76 -27.3,85.6l-22.27 2.11c42.48,93.35 45.61,189.02 29.57,301.42 1.05,42.71 4.28,135.12 13.78,169.57 14.26,6.42 48.71,0 78.3,0 -3.47,-171.42 18.48,-71.86 21.45,-142.87l-19.84 -308.44c-3.9,-72.71 -10.3,-76.04 -46.77,-113.11 -17.92,1.24 -15.36,0.24 -26.92,5.72z"/>
    <path class="fil6" d="M711.49 8095.43l-15 11.67c66.56,55.99 75.51,73.09 167.87,114.14 69.87,31.06 156.69,46.41 242.03,46.73l-95.97 -218.27 -298.93 45.73z"/>
    <path class="fil16" d="M781.58 7625.58c29.11,0 53.07,5.25 72.09,-8.4 16.84,-19.22 3.36,-108.48 -0.15,-139.28 -14.8,-57.56 -35.99,-87.14 -42.01,-161.08 -6.47,-79.45 5.69,-114.06 20.24,-184.3 -43.09,-1.26 -53.52,-28.71 -60.82,-71.36l-15.87 0c-35.41,49.92 -37.77,44.72 -32.66,124.82 3.31,51.94 6.93,104.1 10.38,155.61 2.11,31.37 4.33,133.27 11.29,156.4 14.41,47.8 27.69,-12.87 37.51,127.59z"/>
    <path class="fil17" d="M1406.5 8724.72c6.55,-5.76 -8.03,-9.07 35.39,-8.86 32.4,0.15 27.44,2.46 34.5,8.86 -13.56,9.23 -13.77,6.81 -34.5,6.88l-35.39 -6.88zm154.18 -65.62c19.85,-7.38 10.52,-6.53 30.82,-0.98 14.24,60.64 -54.18,42.53 -30.82,0.98zm-272.27 84.95c12.33,12.92 2.64,-14.74 10.86,13.85l279.73 1.56c-1.37,-34.35 -1.34,-3.31 9.02,-16.89l42.61 -71.73 8.3 -5.95 15.74 -37.69 207.92 2.62c-23.19,-14.13 -173.03,-5.02 -214.72,-5.73l-355.37 -0.14c-47.63,0.21 -246.4,-9.43 -271.33,5.89l200.86 -2.57c11.5,2.52 17.02,15.4 22.97,27.04l43.41 89.74z"/>
    <path class="fil8" d="M-120.7 10217.9c-3.32,12.06 -4.66,12.39 -5.94,27.79 65.36,-43.77 73.37,-70.97 192.07,-134.7 39.86,-21.41 191.92,-89.87 239.95,-91.07 -10.19,-45.17 -59.82,-111.52 -100.75,-116.89 -94.85,-12.43 -194.36,115.69 -241.36,183.12l-83.97 131.75z"/>
    <path class="fil5" d="M1921.91 8052.81l726.56 114.19 -99.03 -44.54c-4.37,-1.56 -13.68,-4.61 -17.62,-6.53l50.76 -2.09c-36.34,-27.23 -428.53,-103.91 -477.8,-111.45 -54.57,-8.36 -120.95,-20.33 -177.03,-20.33l-5.84 70.75z"/>
    <path class="fil18" d="M818.02 10899.23c19.9,-10.53 35.13,-21.66 55.92,-33.2 20.76,-11.52 42.99,-16.66 62.91,-26.21 -12.45,53.44 -17.83,12.47 -17.83,101 25.86,-6.91 50.97,-41.95 69.81,-60.9 32.26,-32.47 42.07,-50.21 78.65,-40.82 43.67,11.2 94.14,41.74 126.28,70.57 14.2,12.73 18.57,20.67 34.21,31.15 -10.78,-46.28 -67.09,-156.27 -83.18,-211.38l-190.12 -25.08c-12.71,7.59 -88.48,120.72 -105.27,143.07 -12.06,16.03 -26.13,32.15 -31.38,51.8z"/>
    <path class="fil18" d="M1703.27 10703.26l-83.17 207.85c30.69,-20.55 43.27,-49.52 118.78,-83.22 17.47,-7.8 38,-10.34 53.51,-17.78 17.95,26.81 35.52,32.55 58.05,54.84 18.58,18.39 33.95,44.94 60.78,52.1 0,-65.87 -13.25,-61.8 -23.77,-106.94 18.27,8.76 27.59,4.73 77.31,29.64 35.23,17.65 55.75,37.52 71.22,41.66 -45.65,-68.18 -97.17,-133.45 -142.59,-202.12l-190.12 23.97z"/>
    <path class="fil12" d="M2045.08 6977.98c36.47,37.07 42.87,40.4 46.77,113.11l19.84 308.44c-2.97,71.01 -24.92,-28.55 -21.45,142.87 -1.8,24.95 44.68,21.02 72.55,-15.97 13.86,-18.4 9.14,2.1 4.4,-25.62l-31.93 -499.06 2.07 -23.75c-13.81,-9.04 -28.51,-21.71 -47.03,-21.94 -0.04,0 -29.51,4.83 -29.67,4.89 -26.46,9.79 -14.11,-0.1 -15.55,17.03z"/>
    <path class="fil12" d="M663.55 7098.78c13.77,21.98 33.7,434.07 36.63,497.09l-1.18 23.76c26.76,7.1 15.41,16.6 43.4,22.87 26.76,5.99 50.15,5.05 39.18,-16.92 -9.82,-140.46 -23.1,-79.79 -37.51,-127.59 -6.96,-23.13 -9.18,-125.03 -11.29,-156.4 -3.45,-51.51 -7.07,-103.67 -10.38,-155.61 -5.11,-80.1 -2.75,-74.9 32.66,-124.82 2.04,-6.28 21.1,-16.95 -46.68,-13.98 -17.25,0.76 0.15,-5.12 -21.05,7.66 -15.32,9.23 -4.41,7.09 -23.78,12.26l0 31.68z"/>
    <path class="fil8" d="M2567.56 9966.45c73.21,7.6 165.5,57.81 217.38,88.76 33.36,19.91 59.83,40.8 89.66,64.81 30.32,24.41 50.42,57.27 82.58,78.14 -35.51,-81.23 -99.22,-161.96 -161.38,-225.13 -39.09,-39.73 -127.48,-113.96 -189.24,-59.78 -17.06,14.96 -31.93,32.16 -39,53.2z"/>
    <path class="fil5" d="M655.57 8023.65l37.38 74.25 18.54 -2.47 298.93 -45.73 102.82 3.96 -2.84 -5.01 -103.38 -3.3 15.12 -57.35c-72.46,0 -123.92,0.24 -188.9,9.27 -33.26,4.63 -56.85,6.75 -89.13,11.88 -31.22,4.97 -59.79,13.93 -88.54,14.5z"/>
    <path class="fil19" d="M1784.57 7510.95c-33.32,17.91 -55.35,-5.7 -41.52,-29.42 14.31,-24.55 53.8,-13.97 41.52,29.42zm-18.17 -150.23c-110.17,27.51 -83.01,202.14 40.46,177.99 43.36,-8.48 79.82,-53.48 69.62,-108.85 -8,-43.46 -57.48,-82.27 -110.08,-69.14z"/>
    <path class="fil20" d="M853.67 6858.15c-15.61,2.41 -41.4,12.89 -51.28,21.1 -18.7,15.54 -13.29,34.99 -8.13,57.14 13.62,3.18 13.57,4.64 29.7,5.64 60.39,-28.69 82.83,-33.89 162.03,-40.06 71.43,-5.56 155.29,38 140.92,-44.06 -70.14,-40.03 -190.96,-13.74 -273.24,0.24z"/>
    <path class="fil19" d="M1068.74 7541.31c-18.95,-18.44 -0.5,-31.81 10.7,-38.63 20.52,2.53 20.87,4.65 27.82,21.9 -5.49,15.51 -19.59,35.14 -38.52,16.73zm78.36 -34.56c28.13,-108.88 -134.68,-143.06 -160.65,-45.32 -30.6,115.17 135.34,143.32 160.65,45.32z"/>
    <path class="fil20" d="M1852.52 6858.73c31.9,0.98 76.36,2.47 98.71,18.25 16.41,-7.5 17.52,-8.61 31.28,-17.82l0 -35.65c-10.3,-6.9 -9.11,-8.43 -22.14,-13.84 -18.41,-7.64 -23.76,-5.1 -31.33,-5.46l-96.01 -8.82c-47.69,3.04 -175.12,13 -163.09,67.44 8.36,37.87 45.96,18.75 76.76,10.01 33.93,-9.63 68.78,-13.83 105.82,-14.11z"/>
    <path class="fil19" d="M782.69 7023.58c5.7,-8.79 18.62,-8.23 28.03,-4.01 -0.51,0.7 1.95,8.18 -12.11,11.18 -25.58,5.47 -11.84,-3.46 -15.92,-7.17zm35.33 -38.1c-29.63,11.06 -72.7,26.63 -47.09,75.68 7.3,42.65 17.73,70.1 60.82,71.36 25.22,-16.73 46.5,-44.04 64.52,-70.31 21.29,-31.03 44.48,-50.98 59.32,-84.44 1.82,-17.97 -6.1,-11.17 -27.79,-10.41 -9.44,0.33 -28.09,3.35 -38.23,4.71 -24.95,3.36 -47.39,9.2 -71.55,13.41z"/>
    <path class="fil21" d="M1399.75 8375.11c17.43,8.76 31.26,23.94 48.05,35.83 24.85,-9.35 74.08,-59.81 89.25,-78.36 26.8,-32.73 43.65,-62.94 66.35,-98.21l-7.73 -2.15c-19.56,20.92 -40.14,33.83 -58.95,52.76 -23.68,23.84 -40.55,33.85 -58.05,53.37 -7.56,6.24 -0.02,0.78 -11.69,8.07l-25.37 14.62c-31.62,-30.74 -63.5,-53.7 -84.96,-106.89 -15.71,-24.04 -94.45,-107.59 -116.76,-126.2 12.78,40.94 45.74,100.38 64.78,140.37 21.15,44.42 63.23,72.21 95.08,106.79z"/>
    <path class="fil8" d="M389.26 8551.75c19.72,25.21 352.81,75.39 405.1,76.21 -31.71,-37.09 -99.87,-75.78 -170.48,-88.84 -105.37,-19.47 -144.44,4.76 -234.62,12.63z"/>
    <path class="fil19" d="M1970.39 6960.16c0.93,-0.46 -6.37,-11.7 14.6,-2.75 16.3,6.96 5.96,4.35 11.54,15.28 -22.92,-4.13 -12.76,1.35 -26.14,-12.53zm-1.8 111.25l22.27 -2.11c7.58,-17.84 19.72,-71.19 27.3,-85.6 -3.23,-38.16 -19.91,-42.58 -47.53,-51.7 -55.3,-9.53 -96.58,-13.03 -154.44,-7.57l-0.5 1.4c13.17,30.74 47.38,57.37 66.68,81.11 15.84,19.47 57.47,67.12 86.22,64.47z"/>
    <path class="fil6" d="M1034.3 8318.66l5.48 -27.18c-88.83,-13.97 -146.83,-24.1 -224.35,-57.78 -59.81,-25.99 -137.38,-84.63 -157.3,-128.46l-35.88 2.36c25.32,61.56 96.83,123.99 157.81,155.99 63,33.06 171.3,60.22 254.24,55.07z"/>
    <path class="fil14" d="M1000.52 8645.98c10.52,10.86 -0.43,10.37 48.52,14.68 18.11,1.6 35.52,3.51 54.06,5.42 36.54,3.76 83.87,2.41 116.67,7.88 -38.67,17.78 -59.11,43.42 -80.79,70.01 6.51,4.12 -2,2.36 12.85,3.63 9.01,0.77 13.22,-0.25 22.2,-0.6 38.76,-1.53 83.27,9.9 95.24,7.38 22.76,-4.81 5.57,8.68 19.14,-10.33l-43.41 -89.74c-5.95,-11.64 -11.47,-24.52 -22.97,-27.04l-200.86 2.57 -20.65 16.14z"/>
    <path class="fil22" d="M2229.45 7477.05c30.48,-0.58 44.24,-0.53 30.68,-99.38l-16.05 -251.31c-2.7,-111.03 -11.54,-94.91 -43.16,-94.91l28.53 445.6z"/>
    <path class="fil5" d="M271.42 8119.78l63.17 -9.16c-4.26,4.53 -4.64,5.21 -13.03,9.65l-112.15 50.67 347.66 -49.89 -30.17 -65.26c-12.57,-1.77 -233.71,46.28 -255.48,63.99z"/>
    <path class="fil22" d="M587.67 7405.75l10.75 136.65c-0.64,43.48 5.39,42.1 37.31,35.65 -2.69,-56.09 -20.99,-416.4 -31.6,-437.53 -37.39,-4.48 -30.58,6.55 -30.13,45.13 0.38,32.88 4.05,47.2 6.05,71.89 4.29,52.67 2.92,95.4 7.62,148.21z"/>
    <path class="fil8" d="M2107.06 8610.03c38.53,7.58 147.73,-17.67 192.88,-25.55 45.98,-8.02 155.74,-20.25 181.98,-44.29 -84.27,-6.15 -126.59,-26.99 -221.86,-6.63 -66.25,14.16 -116.27,41.1 -153,76.47z"/>
    <path class="fil23" d="M681.37 7597.6l18.81 -1.73c-2.93,-63.02 -22.86,-475.11 -36.63,-497.09l-18.32 -1.97c-1.34,92.09 20.66,321.38 27.16,441.58 0.53,9.8 0.89,24.45 2.16,33.74 1.17,8.49 1.54,8.75 3.34,16.08 0.31,1.26 1.43,5.56 1.68,4.77 0.24,-0.79 1.03,3.15 1.8,4.62z"/>
    <path class="fil19" d="M1525.71 7337.02l-6.99 -47.84c-58.96,-36.68 -129.9,-47.58 -194.61,-6.98 -25.2,15.81 -17.6,24.69 -21.54,64.28 37.4,-7.86 62.24,-25.33 104.59,-28.17 45.89,-3.08 75.98,11.42 118.55,18.71z"/>
    <path class="fil23" d="M2167.19 7500.81l23.51 0c-1.49,-60.96 -22.83,-475.35 -35.89,-497.34l-19.55 -1.72 31.93 499.06z"/>
    <path class="fil24" d="M1039.78 8291.48l-5.48 27.18 133.86 -9.83c1.58,29.47 8.28,39.61 -5.51,63.88 38.41,-1.78 51.21,5.42 72.35,-16.35 6.74,-21.01 3.67,-47.3 -0.61,-66.88 -31.85,-15.36 -165.52,-17.17 -194.61,2z"/>
    <path class="fil18" d="M1603.4 8234.37c-22.7,35.27 -39.55,65.48 -66.35,98.21 -15.17,18.55 -64.4,69.01 -89.25,78.36 -16.79,-11.89 -30.62,-27.07 -48.05,-35.83 7.62,19.08 56.87,59.33 78.69,70.6 30.05,-43.21 41.27,-30.67 112.05,-136.65l96.76 -155.92c-17.73,12.21 -28.53,22.24 -45.65,40.66 -44.36,47.72 -13.5,32.59 -38.2,40.57z"/>
    <path class="fil25" d="M1801.71 8030.11l120.2 22.7 5.84 -70.75c-35.83,0 -48.98,-11.43 -93.77,-3.1 -15.57,14.46 -19.66,31.05 -32.27,51.15z"/>
    <path class="fil6" d="M1816.19 6924.43c57.86,-5.46 99.14,-1.96 154.44,7.57 -4.22,-20.36 -8.88,-38.38 -19.4,-55.02 -22.35,-15.78 -66.81,-17.27 -98.71,-18.25l12.56 53.76c-1.12,0.14 -19.41,-0.31 -19.68,-0.26 -13.89,2.52 3.39,-2.42 -11.43,2.77 -16.13,5.65 -6.68,0.29 -17.78,9.43z"/>
    <path class="fil14" d="M1638.93 8664.89c44.99,-1.3 78.11,-2.9 123.15,-7.56 31.76,-3.29 90.71,-1.7 111.86,-16.74l-11.35 -10.77 -207.92 -2.62 -15.74 37.69z"/>
    <path class="fil14" d="M1588.02 8742.57c9.84,21.35 -15.57,12.78 31.64,12.99 1.57,0.01 26.8,-4.12 31.41,-4.76 19.83,-2.74 49.19,-3.42 63.27,-7.38 -17.71,-27.36 -45.11,-58.75 -83.71,-72.58l-42.61 71.73z"/>
    <path class="fil17" d="M982.19 8939.18c49.88,3.17 47.48,-16.94 75.72,-30.31 16.05,-41.52 38.03,-69.54 47.25,-124.69 -24.45,17.19 -45.7,47.77 -65.09,73.51 -19.52,25.91 -42.05,51.62 -57.88,81.49z"/>
    <path class="fil25" d="M1110.4 8048.65c-11.16,-23.25 -25.82,-47.65 -42.84,-60.04l-45.42 -0.61 -15.12 57.35 103.38 3.3z"/>
    <path class="fil26" d="M1595.67 7869.71c52.17,0.49 56.61,-74.21 38.15,-85.4 -30,-18.18 -48.77,49.62 -38.15,85.4z"/>
    <path class="fil26" d="M1304.02 7868.09c12.29,-37.86 -10.97,-97.32 -36.61,-83.57 -17.19,9.22 -11.83,37.68 -4.9,56 8.35,22.05 13.97,31.73 41.51,27.57z"/>
    <path class="fil27" d="M1478.67 8338.35c-36.53,-1.55 -85.28,-64.54 -122.02,-84.2 21.46,53.19 53.34,76.15 84.96,106.89l25.37 -14.62c11.67,-7.29 4.13,-1.83 11.69,-8.07z"/>
    <path class="fil25" d="M625.32 8029.59c3.91,16.25 8.22,29.21 13.2,42.8 1.18,3.23 5.81,15.51 6.81,16.99 8.6,12.79 1.01,9.01 18.31,12.89l29.31 -4.37 -37.38 -74.25 -30.25 5.94z"/>
    <path class="fil5" d="M590.97 8035.53c4.05,24.74 17.74,53.87 31.28,72.07l35.88 -2.36 5.51 -2.97c-17.3,-3.88 -9.71,-0.1 -18.31,-12.89 -1,-1.48 -5.63,-13.76 -6.81,-16.99 -4.98,-13.59 -9.29,-26.55 -13.2,-42.8 -16.26,4.78 -11.61,5.47 -34.35,5.94z"/>
    <path class="fil9" d="M1784.57 7510.95c12.28,-43.39 -27.21,-53.97 -41.52,-29.42 -13.83,23.72 8.2,47.33 41.52,29.42z"/>
    <path class="fil28" d="M1107.26 7524.58c-6.95,-17.25 -7.3,-19.37 -27.82,-21.9 -11.2,6.82 -29.65,20.19 -10.7,38.63 18.93,18.41 33.03,-1.22 38.52,-16.73z"/>
    <path class="fil29" d="M1560.68 8659.1c-23.36,41.55 45.06,59.66 30.82,-0.98 -20.3,-5.55 -10.97,-6.4 -30.82,0.98z"/>
    <path class="fil29" d="M1406.5 8724.72l35.39 6.88c20.73,-0.07 20.94,2.35 34.5,-6.88 -7.06,-6.4 -2.1,-8.71 -34.5,-8.86 -43.42,-0.21 -28.84,3.1 -35.39,8.86z"/>
    <path class="fil30" d="M782.69 7023.58c4.08,3.71 -9.66,12.64 15.92,7.17 14.06,-3 11.6,-10.48 12.11,-11.18 -9.41,-4.22 -22.33,-4.78 -28.03,4.01z"/>
    <path class="fil31" d="M1970.39 6960.16c13.38,13.88 3.22,8.4 26.14,12.53 -5.58,-10.93 4.76,-8.32 -11.54,-15.28 -20.97,-8.95 -13.67,2.29 -14.6,2.75z"/>
    <polygon class="fil18" points="1620.1,10911.11 1614.15,10911.11 1619.1,10918.04 "/>
    <polygon class="fil18" points="818.02,10899.23 812.08,10899.23 817.03,10906.16 "/>
   </g>
   <g>
    <path class="fil4" d="M1304.02 7868.09c-27.54,4.16 -33.16,-5.52 -41.51,-27.57 -6.93,-18.32 -12.29,-46.78 4.9,-56 25.64,-13.75 48.9,45.71 36.61,83.57zm291.65 1.62c-10.62,-35.78 8.15,-103.58 38.15,-85.4 18.46,11.19 14.02,85.89 -38.15,85.4zm-566.05 -1444.27c-15.23,54.57 -45.58,124.56 -68.11,172.3 -13.25,21.42 -18.31,36.37 -28.89,61.13 -10.32,24.15 -18.62,39.57 -29.72,65.34 -14.55,33.82 -45.74,94.95 -49.23,133.94 82.28,-13.98 203.1,-40.27 273.24,-0.24 14.37,82.06 -69.49,38.5 -140.92,44.06 -79.2,6.17 -101.64,11.37 -162.03,40.06 0,21.23 -2.56,27.12 -5.94,43.45 24.16,-4.21 46.6,-10.05 71.55,-13.41 10.14,-1.36 28.79,-4.38 38.23,-4.71 21.69,-0.76 29.61,-7.56 27.79,10.41 39.58,-38.05 112.17,-36.22 164.27,-16.39 239.07,90.99 246.89,594.29 -8.56,660.48 -159,41.19 -229.66,-113.98 -257.78,-143.96 3.51,30.8 16.99,120.06 0.15,139.28 18.4,47.48 31.38,92.77 55.41,137.17 10.87,20.09 22.96,40.67 36.16,58.9 14.43,19.92 35.15,40.27 45.08,57.27 23.42,14.64 85.16,98.5 160.76,152.15 14.42,10.24 21.02,20.09 31.92,34.28 21.93,28.55 44.84,37.1 56.89,71 22.31,18.61 101.05,102.16 116.76,126.2 36.74,19.66 85.49,82.65 122.02,84.2 17.5,-19.52 34.37,-29.53 58.05,-53.37 18.81,-18.93 39.39,-31.84 58.95,-52.76 -0.31,-0.95 -0.3,-3.66 -0.25,-2.99l14.32 -32c101.69,-161.18 244.42,-458.35 263.5,-631.43 -107.61,37.5 -160.15,38.76 -239.82,-30.71 -23.67,-20.64 -48.77,-53.47 -67.08,-87.46 -21.64,-40.17 -24.04,-68.37 -40.63,-110.61 -42.57,-7.29 -72.66,-21.79 -118.55,-18.71 -42.35,2.84 -67.19,20.31 -104.59,28.17 3.94,-39.59 -3.66,-48.47 21.54,-64.28 64.71,-40.6 135.65,-29.7 194.61,6.98 -4.52,-107.22 13.76,-210.35 66.6,-280.63 27.24,-36.23 48.32,-57.84 93.17,-79.31 37.73,-18.06 102.3,-28.38 137.2,-3.41l0.5 -1.4c11.1,-9.14 1.65,-3.78 17.78,-9.43 14.82,-5.19 -2.46,-0.25 11.43,-2.77 0.27,-0.05 18.56,0.4 19.68,0.26l-12.56 -53.76c-37.04,0.28 -71.89,4.48 -105.82,14.11 -30.8,8.74 -68.4,27.86 -76.76,-10.01 -12.03,-54.44 115.4,-64.4 163.09,-67.44 -5.49,-41.23 -32.23,-120.16 -46.23,-161.69 -50.35,-149.33 -106.23,-313.42 -148.11,-464.06 -30.53,-109.84 -151.54,-600.75 -101.77,-684.11 -4.69,-15.82 -3.33,-9.8 -11.89,-22.58 -69.88,1.56 -144.24,135.3 -175.73,186.68 -66.56,108.62 -129.82,244.24 -174.11,366.55l-120.32 337.17c-7.74,23.41 -14.76,46.94 -25.25,72.09z"/>
    <path class="fil5" d="M2826.18 8243.34c38,36.73 127.47,103.53 80.8,193.83 -36.12,69.91 -144.87,103.68 -173.44,127.13l-3.27 81.17c-15.54,-18.18 -32.78,-64.69 -46.03,-64.38l-4.72 13.82c-5.16,26.16 3.67,96.92 -4.77,141.44l-73.04 -129.23c-56.01,8.66 -126.46,31.7 -188.17,44.11 -167.24,33.64 -456.21,77.48 -616.28,79.52l125.14 137.3c187.5,217.79 330.42,609.41 401.52,893.58 17.99,71.91 33.22,141.59 47.32,215.04 13.12,68.31 19.77,154.33 35.93,219.9 36.42,-122.79 99.05,-330.54 165.91,-406.01 97.16,-109.68 273.34,160.99 305.05,217.09 -42.45,-223.06 -167.43,-500.62 -65,-725.69 79.22,-174.06 215.12,-472.33 207.88,-658.33 -5.8,-148.97 -59.32,-317.55 -194.83,-380.29z"/>
    <path class="fil5" d="M117.08 8652.41c-14.76,-114.1 30.48,-61.36 -63.9,-113.39 -44.65,-24.61 -75.91,-45.83 -100.22,-78.23 -65.43,-87.21 19.95,-181.27 78.64,-215.8 -16.44,6.25 -31.3,18.15 -45.69,27.72 -22.68,15.08 -19.15,16.11 -37.21,34.25 -266.59,267.84 -28.1,713.12 85.85,981.35 39.24,92.37 45.91,131.56 36.33,245.19 -7.1,84.12 -23.39,170.62 -41.52,249.91 -17.66,77.2 -45.22,158.06 -59.29,230.93 317.04,-514.18 367.32,-90.71 471.35,189.24 15.19,-73.35 21.87,-152.09 36.62,-226.04 14.75,-73.92 29.14,-141.73 47.6,-214.47 78.75,-310.29 203.11,-645.69 403.01,-892.08l121.96 -133.39c-239.15,0 -580.91,-68.13 -803.42,-124.02l-77.15 128.83 -0.33 -154.34c-29.78,4.37 -34.88,46.6 -52.63,64.34z"/>
    <path class="fil4" d="M1008.11 9237.07l-9.39 13.48c-4.2,10.29 -3.52,7.79 -4.08,20.75 -5.39,123.89 63.06,422.03 102.53,522.34 30.77,78.2 76.08,163.78 120.43,212.94 37.5,41.57 127.23,126.16 212.19,125.27 212.84,-2.22 371.26,-384.28 406.57,-598.3 11.56,-70.08 26.29,-256.84 -8.29,-316.6 -1.38,-8.06 -1.5,-5.18 -9.39,-13.08 -36.87,-36.93 -50.61,-52.34 -80.78,-103.83 -24.55,-41.9 -61.73,-134.73 -76.22,-138.03l-452.37 0.02c-12.19,44.65 -56.96,125.69 -80.31,162.93 -31.26,49.85 -62.54,86.64 -120.89,112.11z"/>
    <path class="fil6" d="M861.35 9138.33c-4.44,74.56 75.6,462.64 100.58,577.03 10.55,48.3 38.31,143.3 41.42,185.73 -32.72,26.14 -45.93,36.29 -68.13,75.6 -56.1,99.34 -75.29,211.98 -82.79,328.41 7.79,96.25 8.45,175.74 70.05,269.85 28.27,43.19 37.31,43.89 50.01,62.86 -5.72,24.56 -15.77,39.85 -17.82,66.55l190.12 25.08c-9.96,-141.01 -27.94,-70.94 19.83,-166.86 31.22,-62.66 87.11,-198.27 87.11,-269.36 120.48,57.8 254.17,54.48 368.37,-5.94l70.48 244.4c38.97,106.22 12.69,47.93 12.69,171.58l190.12 -23.97c-7.93,-16.36 -19.18,-51.52 -23.76,-71.18 98.67,-66.08 108.67,-222.35 124.77,-298.31 -6.35,-15.98 -5.41,-129.88 -35.89,-236.13 -19.77,-68.93 -51.02,-144.14 -95.31,-177.14 5.43,-46.75 31.38,-122.12 42.97,-172.99l111.26 -518.27c4.19,-30.01 -10.85,-59.3 -30.97,-75.17 -28.19,95.36 -54.68,132.03 -158.39,86.85 34.58,59.76 19.85,246.52 8.29,316.6 -35.31,214.02 -193.73,596.08 -406.57,598.3 -84.96,0.89 -174.69,-83.7 -212.19,-125.27 -44.35,-49.16 -89.66,-134.74 -120.43,-212.94 -39.47,-100.31 -107.92,-398.45 -102.53,-522.34 0.56,-12.96 -0.12,-10.46 4.08,-20.75l9.39 -13.48c-90.64,4.09 -112.54,-64.45 -118.44,-152.19l-11.95 14.69c-13.83,19.09 -15.52,22.08 -16.37,38.76z"/>
    <path class="fil7" d="M117.08 8652.41c17.75,-17.74 22.85,-59.97 52.63,-64.34l0.33 154.34 77.15 -128.83c222.51,55.89 564.27,124.02 803.42,124.02l-121.96 133.39c-199.9,246.39 -324.26,581.79 -403.01,892.08 -18.46,72.74 -32.85,140.55 -47.6,214.47 -14.75,73.95 -21.43,152.69 -36.62,226.04 -104.03,-279.95 -154.31,-703.42 -471.35,-189.24 14.07,-72.87 41.63,-153.73 59.29,-230.93 18.13,-79.29 34.42,-165.79 41.52,-249.91 9.58,-113.63 2.91,-152.82 -36.33,-245.19 -113.95,-268.23 -352.44,-713.51 -85.85,-981.35 18.06,-18.14 14.53,-19.17 37.21,-34.25 14.39,-9.57 29.25,-21.47 45.69,-27.72 -58.69,34.53 -144.07,128.59 -78.64,215.8 24.31,32.4 55.57,53.62 100.22,78.23 94.38,52.03 49.14,-0.71 63.9,113.39zm154.34 -532.63c-56.67,-2.8 -215.21,68.21 -267.71,99.57 -38.24,22.86 -73.17,48.42 -105.06,79.12 -9.16,8.82 -14.37,11.54 -22.52,19.07 -113.33,104.82 -121.98,235.57 -121.8,389.56 0.2,179.7 124.7,396.01 192.05,550.6 64.67,148.46 45.51,315.68 21.01,487.9 -7.43,52.27 -15.3,104.04 -25.24,158.93l-62.85 313.37 83.97 -131.75c47,-67.43 146.51,-195.55 241.36,-183.12 40.93,5.37 90.56,71.72 100.75,116.89 20.82,29.82 65.52,162.7 78.23,202.7 22.77,71.7 42.67,150.2 60.11,225.07l3.54 -8.34c0.33,-0.99 1.19,-3.11 1.57,-4.37l64.7 -345.25c9.14,-42.98 19.93,-74.66 27.61,-117.34 22.52,-145.94 226.16,-716.85 313.48,-826.53 0.9,-1.13 2.55,-2.86 3.31,-3.77 0.77,-0.92 2.22,-2.56 3.42,-3.76 0.85,-16.68 2.54,-19.67 16.37,-38.76l11.95 -14.69c8.69,-28.4 76.08,-130.17 92.52,-145.7 15.83,-29.87 38.36,-55.58 57.88,-81.49 19.39,-25.74 40.64,-56.32 65.09,-73.51 6.84,-21.82 15.25,-24.69 33.82,-40.21 21.68,-26.59 42.12,-52.23 80.79,-70.01 -32.8,-5.47 -80.13,-4.12 -116.67,-7.88 -18.54,-1.91 -35.95,-3.82 -54.06,-5.42 -48.95,-4.31 -38,-3.82 -48.52,-14.68 -16.41,13.08 -22.04,8.05 -47.95,4.74 -18.07,-2.31 -34.09,-4.21 -51.95,-6.42 -35.56,-4.4 -72.75,-7.04 -106.26,-16.34 -52.29,-0.82 -385.38,-51 -405.1,-76.21 -40.59,9.06 -158.54,-33.16 -199.44,-48.07 -60.33,-22 -122.13,-50.69 -159.13,-84.82 -62.47,-57.64 -26.87,-123.97 22.03,-162.47 106.3,-83.7 142.86,-74.68 156.69,-85.45l112.15 -50.67c8.39,-4.44 8.77,-5.12 13.03,-9.65l-63.17 9.16z"/>
    <path class="fil7" d="M2826.18 8243.34c135.51,62.74 189.03,231.32 194.83,380.29 7.24,186 -128.66,484.27 -207.88,658.33 -102.43,225.07 22.55,502.63 65,725.69 -31.71,-56.1 -207.89,-326.77 -305.05,-217.09 -66.86,75.47 -129.49,283.22 -165.91,406.01 -16.16,-65.57 -22.81,-151.59 -35.93,-219.9 -14.1,-73.45 -29.33,-143.13 -47.32,-215.04 -71.1,-284.17 -214.02,-675.79 -401.52,-893.58l-125.14 -137.3c160.07,-2.04 449.04,-45.88 616.28,-79.52 61.71,-12.41 132.16,-35.45 188.17,-44.11l73.04 129.23c8.44,-44.52 -0.39,-115.28 4.77,-141.44l4.72 -13.82c13.25,-0.31 30.49,46.2 46.03,64.38l3.27 -81.17c28.57,-23.45 137.32,-57.22 173.44,-127.13 46.67,-90.3 -42.8,-157.1 -80.8,-193.83zm-177.71 -76.34c58.91,28.54 79.28,26.62 151.49,84.91 201.9,162.98 -247.22,297.92 -318.04,288.28 -26.24,24.04 -136,36.27 -181.98,44.29 -45.15,7.88 -154.35,33.13 -192.88,25.55 -30.7,16.75 -191.56,37.76 -233.12,30.56 -21.15,15.04 -80.1,13.45 -111.86,16.74 -45.04,4.66 -78.16,6.26 -123.15,7.56l-8.3 5.95c38.6,13.83 66,45.22 83.71,72.58 34.84,30.19 134.08,150.58 155.84,198.23 22.92,16.45 109.84,163.27 116.28,188.45 20.12,15.87 35.16,45.16 30.97,75.17 15.75,-11.68 17.07,3.39 27.94,26.55 7.37,15.7 14.12,29.52 21.03,44.44 76.3,164.8 218.59,535.52 244.08,702.07 4.58,12.57 7.49,35 11.83,52.32l37.97 175.92c8.29,41.43 14.17,73.66 21.14,115.52l21.11 115.54c0.35,0.93 1.01,2.85 1.81,4.12 19.24,-82.58 41.07,-168.43 67.59,-247.3 14.46,-43.01 25.32,-77.29 41.83,-118.59 12.13,-30.33 35.61,-86.93 53.8,-109.41 7.07,-21.04 21.94,-38.24 39,-53.2 61.76,-54.18 150.15,20.05 189.24,59.78 62.16,63.17 125.87,143.9 161.38,225.13 4.86,10.42 4.63,10.14 11.59,17.82 -0.56,-25.18 -8.61,-50.58 -14.22,-74.9 -6.59,-28.6 -10.2,-51 -16.67,-78.39 -44.27,-187.35 -86.73,-455.51 -76.23,-648.96 3.6,-66.46 15.44,-101.34 34.9,-149.27 53.5,-131.82 126.08,-250.1 166.04,-392.45 40.84,-145.53 51.7,-340.86 -20.47,-476.12 -13.08,-24.52 -23.17,-31.58 -38.54,-50.58 -87.67,-108.46 -311.15,-230.69 -421,-231.47l-50.76 2.09c3.94,1.92 13.25,4.97 17.62,6.53l99.03 44.54z"/>
    <path class="fil6" d="M1647.87 8624.09c41.69,0.71 191.53,-8.4 214.72,5.73l11.35 10.77c41.56,7.2 202.42,-13.81 233.12,-30.56 36.73,-35.37 86.75,-62.31 153,-76.47 95.27,-20.36 137.59,0.48 221.86,6.63 70.82,9.64 519.94,-125.3 318.04,-288.28 -72.21,-58.29 -92.58,-56.37 -151.49,-84.91l-726.56 -114.19 -230.41 505.69c-14.39,23.23 -32.57,40.43 -43.63,65.59z"/>
    <path class="fil6" d="M209.41 8170.94c-13.83,10.77 -50.39,1.75 -156.69,85.45 -48.9,38.5 -84.5,104.83 -22.03,162.47 37,34.13 98.8,62.82 159.13,84.82 40.9,14.91 158.85,57.13 199.44,48.07 90.18,-7.87 129.25,-32.1 234.62,-12.63 70.61,13.06 138.77,51.75 170.48,88.84 33.51,9.3 70.7,11.94 106.26,16.34 17.86,2.21 33.88,4.11 51.95,6.42 25.91,3.31 31.54,8.34 47.95,-4.74l20.65 -16.14c24.93,-15.32 223.7,-5.68 271.33,-5.89 -12.88,-20.5 -28.75,-31.81 -42.32,-52.02 -13.29,-19.79 -20.61,-43.3 -30.53,-64.67 -17.31,-37.26 -50.97,-98.68 -60.69,-134.28 -203.23,5.25 -359.76,-6.61 -510.49,-132.36 -43.51,-36.31 -76.36,-103.42 -91.4,-119.57l-347.66 49.89z"/>
    <path class="fil8" d="M541.14 9972.39c50.22,0 132.69,-39.1 176.02,130.57 22.73,88.99 17.68,191.86 17.68,303.14 21.65,-14.49 88.66,-83.53 117.59,-101 7.5,-116.43 26.69,-229.07 82.79,-328.41 22.2,-39.31 35.41,-49.46 68.13,-75.6 -3.11,-42.43 -30.87,-137.43 -41.42,-185.73 -24.98,-114.39 -105.02,-502.47 -100.58,-577.03 -1.2,1.2 -2.65,2.84 -3.42,3.76 -0.76,0.91 -2.41,2.64 -3.31,3.77 -87.32,109.68 -290.96,680.59 -313.48,826.53z"/>
    <path class="fil8" d="M2017.43 9205.27l-111.26 518.27c-11.59,50.87 -37.54,126.24 -42.97,172.99 44.29,33 75.54,108.21 95.31,177.14 30.48,106.25 29.54,220.15 35.89,236.13 21.58,-72.56 136.88,-211.67 210.39,-269.61 37.24,-29.36 62.59,-41.48 105.69,-61.86 -25.49,-166.55 -167.78,-537.27 -244.08,-702.07 -6.91,-14.92 -13.66,-28.74 -21.03,-44.44 -10.87,-23.16 -12.19,-38.23 -27.94,-26.55z"/>
    <path class="fil9" d="M1147.1 7506.75c-25.31,98 -191.25,69.85 -160.65,-45.32 25.97,-97.74 188.78,-63.56 160.65,45.32zm-191.51 -528.98c-14.84,33.46 -38.03,53.41 -59.32,84.44 -18.02,26.27 -39.3,53.58 -64.52,70.31 -14.55,70.24 -26.71,104.85 -20.24,184.3 6.02,73.94 27.21,103.52 42.01,161.08 28.12,29.98 98.78,185.15 257.78,143.96 255.45,-66.19 247.63,-569.49 8.56,-660.48 -52.1,-19.83 -124.69,-21.66 -164.27,16.39z"/>
    <path class="fil9" d="M1766.4 7360.72c52.6,-13.13 102.08,25.68 110.08,69.14 10.2,55.37 -26.26,100.37 -69.62,108.85 -123.47,24.15 -150.63,-150.48 -40.46,-177.99zm-247.68 -71.54l6.99 47.84c16.59,42.24 18.99,70.44 40.63,110.61 18.31,33.99 43.41,66.82 67.08,87.46 79.67,69.47 132.21,68.21 239.82,30.71 3.33,-5.63 27.32,-26.15 37.35,-35.89 20.55,-19.95 21.67,-20.52 38.24,-45 26.81,-39.62 31.03,-69.19 49.33,-112.08 16.04,-112.4 12.91,-208.07 -29.57,-301.42 -28.75,2.65 -70.38,-45 -86.22,-64.47 -19.3,-23.74 -53.51,-50.37 -66.68,-81.11 -34.9,-24.97 -99.47,-14.65 -137.2,3.41 -44.85,21.47 -65.93,43.08 -93.17,79.31 -52.84,70.28 -71.12,173.41 -66.6,280.63z"/>
    <path class="fil10" d="M1113.24 8053.66l-102.82 -3.96 95.97 218.27c-85.34,-0.32 -172.16,-15.67 -242.03,-46.73 -92.36,-41.05 -101.31,-58.15 -167.87,-114.14l15 -11.67 -18.54 2.47 -29.31 4.37 -5.51 2.97c19.92,43.83 97.49,102.47 157.3,128.46 77.52,33.68 135.52,43.81 224.35,57.78 29.09,-19.17 162.76,-17.36 194.61,-2 4.28,19.58 7.35,45.87 0.61,66.88 -21.14,21.77 -33.94,14.57 -72.35,16.35l-3.69 0.27c9.72,35.6 43.38,97.02 60.69,134.28 9.92,21.37 17.24,44.88 30.53,64.67 13.57,20.21 29.44,31.52 42.32,52.02l355.37 0.14c11.06,-25.16 29.24,-42.36 43.63,-65.59l230.41 -505.69 -120.2 -22.7c-34.27,78.44 -95.89,178.89 -139.53,249.35 -43.96,70.97 -112.01,175.92 -166.85,218.82 -41.06,16.92 -129.85,-82.05 -151.19,-109.49 -8.44,-10.85 -15.48,-18.76 -23.96,-29.65 -74.81,-96.03 -181.08,-274.62 -206.94,-305.48z"/>
    <path class="fil11" d="M1057.91 8908.87c-28.24,13.37 -25.84,33.48 -75.72,30.31 -16.44,15.53 -83.83,117.3 -92.52,145.7 5.9,87.74 27.8,156.28 118.44,152.19 58.35,-25.47 89.63,-62.26 120.89,-112.11 23.35,-37.24 68.12,-118.28 80.31,-162.93l452.37 -0.02c14.49,3.3 51.67,96.13 76.22,138.03 30.17,51.49 43.91,66.9 80.78,103.83 7.89,7.9 8.01,5.02 9.39,13.08 103.71,45.18 130.2,8.51 158.39,-86.85 -6.44,-25.18 -93.36,-172 -116.28,-188.45 -44.93,-7.63 -40.8,-22.33 -62.94,-42.28 -27.01,-24.35 -26.18,-12.03 -42.94,-49.4l-646.53 2.2c-34.65,38.74 1.7,13.39 -59.86,56.7z"/>
    <path class="fil6" d="M1873.24 7565.8c-19.08,173.08 -161.81,470.25 -263.5,631.43l-14.32 32c-0.05,-0.67 -0.06,2.04 0.25,2.99l7.73 2.15c24.7,-7.98 -6.16,7.15 38.2,-40.57 17.12,-18.42 27.92,-28.45 45.65,-40.66l-96.76 155.92c-70.78,105.98 -82,93.44 -112.05,136.65 -21.82,-11.27 -71.07,-51.52 -78.69,-70.6 -31.85,-34.58 -73.93,-62.37 -95.08,-106.79 -19.04,-39.99 -52,-99.43 -64.78,-140.37 -12.05,-33.9 -34.96,-42.45 -56.89,-71 -10.9,-14.19 -17.5,-24.04 -31.92,-34.28 -75.6,-53.65 -137.34,-137.51 -160.76,-152.15 5.91,22.63 22.84,41.6 35.58,58.14 17.75,23.05 27.44,31.44 41.66,59.95 17.02,12.39 31.68,36.79 42.84,60.04l2.84 5.01c25.86,30.86 132.13,209.45 206.94,305.48 8.48,10.89 15.52,18.8 23.96,29.65 21.34,27.44 110.13,126.41 151.19,109.49 54.84,-42.9 122.89,-147.85 166.85,-218.82 43.64,-70.46 105.26,-170.91 139.53,-249.35 12.61,-20.1 16.7,-36.69 32.27,-51.15 62.58,-122.46 98.71,-152.3 146.41,-313.92 9.83,-33.3 29.37,-88.22 31.55,-122.64 -9.5,-34.45 -12.73,-126.86 -13.78,-169.57 -18.3,42.89 -22.52,72.46 -49.33,112.08 -16.57,24.48 -17.69,25.05 -38.24,45 -10.03,9.74 -34.02,30.26 -37.35,35.89z"/>
    <path class="fil12" d="M604.13 7140.52c10.61,21.13 28.91,381.44 31.6,437.53 -4.38,35.42 3.37,28.93 4.05,59.41 30.12,0 32.37,5.94 65.36,5.94 -15.34,-22.89 -22.93,-12.43 -23.77,-45.8 -0.77,-1.47 -1.56,-5.41 -1.8,-4.62 -0.25,0.79 -1.37,-3.51 -1.68,-4.77 -1.8,-7.33 -2.17,-7.59 -3.34,-16.08 -1.27,-9.29 -1.63,-23.94 -2.16,-33.74 -6.5,-120.2 -28.5,-349.49 -27.16,-441.58 25.15,-47.68 4.98,-313.47 3.49,-394.15 -1.4,-75.16 153.99,-86.68 215.76,-94.11 31.56,-3.79 58.86,-10.81 97.03,-10.81 22.53,-47.74 52.88,-117.73 68.11,-172.3l-250.68 50.04c-78.33,22.21 -160.58,43.03 -190.5,112.5 -19.75,45.86 -2.66,85.24 6.22,126.17 16.19,74.56 9.68,202.61 15.98,287.54 2.28,30.71 -6.51,69.41 -6.51,138.83z"/>
    <path class="fil12" d="M1843.58 6544.27c61.28,0 134.37,-5.17 186.24,6.16 85.83,18.74 73.03,62.34 79.16,110.96l23.45 261.73c3.72,26.81 16.66,52.39 22.38,80.35 13.06,21.99 34.4,436.38 35.89,497.34 -2.96,29.44 -10.95,16.97 -18.07,47.53 18.82,-1.56 45.51,-11.15 59.42,-17.82l-2.6 -53.47 -28.53 -445.6c5.05,-54.45 -16.97,-83.57 -20.98,-108.31l-21.89 -303.95c14.73,-120.71 -6.44,-174.77 -127.87,-205.77 -57.17,-14.6 -173.16,-29.57 -243.27,-29.57l56.67 160.42z"/>
    <path class="fil13" d="M1833.03 6795.39l96.01 8.82c-2.16,-34.17 -27.88,-96.85 -39.32,-131.5 -8.36,-25.29 -13.98,-36.71 -22.39,-60.79 -8.99,-25.76 -13.44,-42.91 -23.75,-67.65l-56.67 -160.42c-21.58,-79.88 -109.09,-292.21 -146.49,-424.34 -23.38,-82.61 -91.68,-446.51 -103.5,-473.98 -49.77,83.36 71.24,574.27 101.77,684.11 41.88,150.64 97.76,314.73 148.11,464.06 14,41.53 40.74,120.46 46.23,161.69z"/>
    <path class="fil14" d="M526.9 8055.79l30.17 65.26c15.04,16.15 47.89,83.26 91.4,119.57 150.73,125.75 307.26,137.61 510.49,132.36l3.69 -0.27c13.79,-24.27 7.09,-34.41 5.51,-63.88l-133.86 9.83c-82.94,5.15 -191.24,-22.01 -254.24,-55.07 -60.98,-32 -132.49,-94.43 -157.81,-155.99 -13.54,-18.2 -27.23,-47.33 -31.28,-72.07 -51.95,-104.32 -33.37,-327.35 -14.1,-443.16 10.95,-65.8 7.77,-44.52 21.55,-49.97l-10.75 -136.65 -36.83 -6.76 -36.44 148.73c-29.04,145.63 -36.75,284.96 -7.87,430.94 6.75,34.11 14.7,48.03 20.37,77.13z"/>
    <path class="fil15" d="M1105.16 8784.18c-9.22,55.15 -31.2,83.17 -47.25,124.69 61.56,-43.31 25.21,-17.96 59.86,-56.7l646.53 -2.2c16.76,37.37 15.93,25.05 42.94,49.4 22.14,19.95 18.01,34.65 62.94,42.28 -21.76,-47.65 -121,-168.04 -155.84,-198.23 -14.08,3.96 -43.44,4.64 -63.27,7.38 -4.61,0.64 -29.84,4.77 -31.41,4.76 -47.21,-0.21 -21.8,8.36 -31.64,-12.99 -10.36,13.58 -10.39,-17.46 -9.02,16.89l-279.73 -1.56c-8.22,-28.59 1.47,-0.93 -10.86,-13.85 -13.57,19.01 3.62,5.52 -19.14,10.33 -11.97,2.52 -56.48,-8.91 -95.24,-7.38 -8.98,0.35 -13.19,1.37 -22.2,0.6 -14.85,-1.27 -6.34,0.49 -12.85,-3.63 -18.57,15.52 -26.98,18.39 -33.82,40.21z"/>
    <path class="fil16" d="M2018.16 6983.7c-7.58,14.41 -19.72,67.76 -27.3,85.6l-22.27 2.11c42.48,93.35 45.61,189.02 29.57,301.42 1.05,42.71 4.28,135.12 13.78,169.57 14.26,6.42 48.71,0 78.3,0 -3.47,-171.42 18.48,-71.86 21.45,-142.87l-19.84 -308.44c-3.9,-72.71 -10.3,-76.04 -46.77,-113.11 -17.92,1.24 -15.36,0.24 -26.92,5.72z"/>
    <path class="fil6" d="M711.49 8095.43l-15 11.67c66.56,55.99 75.51,73.09 167.87,114.14 69.87,31.06 156.69,46.41 242.03,46.73l-95.97 -218.27 -298.93 45.73z"/>
    <path class="fil16" d="M781.58 7625.58c29.11,0 53.07,5.25 72.09,-8.4 16.84,-19.22 3.36,-108.48 -0.15,-139.28 -14.8,-57.56 -35.99,-87.14 -42.01,-161.08 -6.47,-79.45 5.69,-114.06 20.24,-184.3 -43.09,-1.26 -53.52,-28.71 -60.82,-71.36l-15.87 0c-35.41,49.92 -37.77,44.72 -32.66,124.82 3.31,51.94 6.93,104.1 10.38,155.61 2.11,31.37 4.33,133.27 11.29,156.4 14.41,47.8 27.69,-12.87 37.51,127.59z"/>
    <path class="fil17" d="M1406.5 8724.72c6.55,-5.76 -8.03,-9.07 35.39,-8.86 32.4,0.15 27.44,2.46 34.5,8.86 -13.56,9.23 -13.77,6.81 -34.5,6.88l-35.39 -6.88zm154.18 -65.62c19.85,-7.38 10.52,-6.53 30.82,-0.98 14.24,60.64 -54.18,42.53 -30.82,0.98zm-272.27 84.95c12.33,12.92 2.64,-14.74 10.86,13.85l279.73 1.56c-1.37,-34.35 -1.34,-3.31 9.02,-16.89l42.61 -71.73 8.3 -5.95 15.74 -37.69 207.92 2.62c-23.19,-14.13 -173.03,-5.02 -214.72,-5.73l-355.37 -0.14c-47.63,0.21 -246.4,-9.43 -271.33,5.89l200.86 -2.57c11.5,2.52 17.02,15.4 22.97,27.04l43.41 89.74z"/>
    <path class="fil8" d="M-120.7 10217.9c-3.32,12.06 -4.66,12.39 -5.94,27.79 65.36,-43.77 73.37,-70.97 192.07,-134.7 39.86,-21.41 191.92,-89.87 239.95,-91.07 -10.19,-45.17 -59.82,-111.52 -100.75,-116.89 -94.85,-12.43 -194.36,115.69 -241.36,183.12l-83.97 131.75z"/>
    <path class="fil5" d="M1921.91 8052.81l726.56 114.19 -99.03 -44.54c-4.37,-1.56 -13.68,-4.61 -17.62,-6.53l50.76 -2.09c-36.34,-27.23 -428.53,-103.91 -477.8,-111.45 -54.57,-8.36 -120.95,-20.33 -177.03,-20.33l-5.84 70.75z"/>
    <path class="fil18" d="M818.02 10899.23c19.9,-10.53 35.13,-21.66 55.92,-33.2 20.76,-11.52 42.99,-16.66 62.91,-26.21 -12.45,53.44 -17.83,12.47 -17.83,101 25.86,-6.91 50.97,-41.95 69.81,-60.9 32.26,-32.47 42.07,-50.21 78.65,-40.82 43.67,11.2 94.14,41.74 126.28,70.57 14.2,12.73 18.57,20.67 34.21,31.15 -10.78,-46.28 -67.09,-156.27 -83.18,-211.38l-190.12 -25.08c-12.71,7.59 -88.48,120.72 -105.27,143.07 -12.06,16.03 -26.13,32.15 -31.38,51.8z"/>
    <path class="fil18" d="M1703.27 10703.26l-83.17 207.85c30.69,-20.55 43.27,-49.52 118.78,-83.22 17.47,-7.8 38,-10.34 53.51,-17.78 17.95,26.81 35.52,32.55 58.05,54.84 18.58,18.39 33.95,44.94 60.78,52.1 0,-65.87 -13.25,-61.8 -23.77,-106.94 18.27,8.76 27.59,4.73 77.31,29.64 35.23,17.65 55.75,37.52 71.22,41.66 -45.65,-68.18 -97.17,-133.45 -142.59,-202.12l-190.12 23.97z"/>
    <path class="fil12" d="M2045.08 6977.98c36.47,37.07 42.87,40.4 46.77,113.11l19.84 308.44c-2.97,71.01 -24.92,-28.55 -21.45,142.87 -1.8,24.95 44.68,21.02 72.55,-15.97 13.86,-18.4 9.14,2.1 4.4,-25.62l-31.93 -499.06 2.07 -23.75c-13.81,-9.04 -28.51,-21.71 -47.03,-21.94 -0.04,0 -29.51,4.83 -29.67,4.89 -26.46,9.79 -14.11,-0.1 -15.55,17.03z"/>
    <path class="fil12" d="M663.55 7098.78c13.77,21.98 33.7,434.07 36.63,497.09l-1.18 23.76c26.76,7.1 15.41,16.6 43.4,22.87 26.76,5.99 50.15,5.05 39.18,-16.92 -9.82,-140.46 -23.1,-79.79 -37.51,-127.59 -6.96,-23.13 -9.18,-125.03 -11.29,-156.4 -3.45,-51.51 -7.07,-103.67 -10.38,-155.61 -5.11,-80.1 -2.75,-74.9 32.66,-124.82 2.04,-6.28 21.1,-16.95 -46.68,-13.98 -17.25,0.76 0.15,-5.12 -21.05,7.66 -15.32,9.23 -4.41,7.09 -23.78,12.26l0 31.68z"/>
    <path class="fil8" d="M2567.56 9966.45c73.21,7.6 165.5,57.81 217.38,88.76 33.36,19.91 59.83,40.8 89.66,64.81 30.32,24.41 50.42,57.27 82.58,78.14 -35.51,-81.23 -99.22,-161.96 -161.38,-225.13 -39.09,-39.73 -127.48,-113.96 -189.24,-59.78 -17.06,14.96 -31.93,32.16 -39,53.2z"/>
    <path class="fil5" d="M655.57 8023.65l37.38 74.25 18.54 -2.47 298.93 -45.73 102.82 3.96 -2.84 -5.01 -103.38 -3.3 15.12 -57.35c-72.46,0 -123.92,0.24 -188.9,9.27 -33.26,4.63 -56.85,6.75 -89.13,11.88 -31.22,4.97 -59.79,13.93 -88.54,14.5z"/>
    <path class="fil19" d="M1784.57 7510.95c-33.32,17.91 -55.35,-5.7 -41.52,-29.42 14.31,-24.55 53.8,-13.97 41.52,29.42zm-18.17 -150.23c-110.17,27.51 -83.01,202.14 40.46,177.99 43.36,-8.48 79.82,-53.48 69.62,-108.85 -8,-43.46 -57.48,-82.27 -110.08,-69.14z"/>
    <path class="fil20" d="M853.67 6858.15c-15.61,2.41 -41.4,12.89 -51.28,21.1 -18.7,15.54 -13.29,34.99 -8.13,57.14 13.62,3.18 13.57,4.64 29.7,5.64 60.39,-28.69 82.83,-33.89 162.03,-40.06 71.43,-5.56 155.29,38 140.92,-44.06 -70.14,-40.03 -190.96,-13.74 -273.24,0.24z"/>
    <path class="fil19" d="M1068.74 7541.31c-18.95,-18.44 -0.5,-31.81 10.7,-38.63 20.52,2.53 20.87,4.65 27.82,21.9 -5.49,15.51 -19.59,35.14 -38.52,16.73zm78.36 -34.56c28.13,-108.88 -134.68,-143.06 -160.65,-45.32 -30.6,115.17 135.34,143.32 160.65,45.32z"/>
    <path class="fil20" d="M1852.52 6858.73c31.9,0.98 76.36,2.47 98.71,18.25 16.41,-7.5 17.52,-8.61 31.28,-17.82l0 -35.65c-10.3,-6.9 -9.11,-8.43 -22.14,-13.84 -18.41,-7.64 -23.76,-5.1 -31.33,-5.46l-96.01 -8.82c-47.69,3.04 -175.12,13 -163.09,67.44 8.36,37.87 45.96,18.75 76.76,10.01 33.93,-9.63 68.78,-13.83 105.82,-14.11z"/>
    <path class="fil19" d="M782.69 7023.58c5.7,-8.79 18.62,-8.23 28.03,-4.01 -0.51,0.7 1.95,8.18 -12.11,11.18 -25.58,5.47 -11.84,-3.46 -15.92,-7.17zm35.33 -38.1c-29.63,11.06 -72.7,26.63 -47.09,75.68 7.3,42.65 17.73,70.1 60.82,71.36 25.22,-16.73 46.5,-44.04 64.52,-70.31 21.29,-31.03 44.48,-50.98 59.32,-84.44 1.82,-17.97 -6.1,-11.17 -27.79,-10.41 -9.44,0.33 -28.09,3.35 -38.23,4.71 -24.95,3.36 -47.39,9.2 -71.55,13.41z"/>
    <path class="fil21" d="M1399.75 8375.11c17.43,8.76 31.26,23.94 48.05,35.83 24.85,-9.35 74.08,-59.81 89.25,-78.36 26.8,-32.73 43.65,-62.94 66.35,-98.21l-7.73 -2.15c-19.56,20.92 -40.14,33.83 -58.95,52.76 -23.68,23.84 -40.55,33.85 -58.05,53.37 -7.56,6.24 -0.02,0.78 -11.69,8.07l-25.37 14.62c-31.62,-30.74 -63.5,-53.7 -84.96,-106.89 -15.71,-24.04 -94.45,-107.59 -116.76,-126.2 12.78,40.94 45.74,100.38 64.78,140.37 21.15,44.42 63.23,72.21 95.08,106.79z"/>
    <path class="fil8" d="M389.26 8551.75c19.72,25.21 352.81,75.39 405.1,76.21 -31.71,-37.09 -99.87,-75.78 -170.48,-88.84 -105.37,-19.47 -144.44,4.76 -234.62,12.63z"/>
    <path class="fil19" d="M1970.39 6960.16c0.93,-0.46 -6.37,-11.7 14.6,-2.75 16.3,6.96 5.96,4.35 11.54,15.28 -22.92,-4.13 -12.76,1.35 -26.14,-12.53zm-1.8 111.25l22.27 -2.11c7.58,-17.84 19.72,-71.19 27.3,-85.6 -3.23,-38.16 -19.91,-42.58 -47.53,-51.7 -55.3,-9.53 -96.58,-13.03 -154.44,-7.57l-0.5 1.4c13.17,30.74 47.38,57.37 66.68,81.11 15.84,19.47 57.47,67.12 86.22,64.47z"/>
    <path class="fil6" d="M1034.3 8318.66l5.48 -27.18c-88.83,-13.97 -146.83,-24.1 -224.35,-57.78 -59.81,-25.99 -137.38,-84.63 -157.3,-128.46l-35.88 2.36c25.32,61.56 96.83,123.99 157.81,155.99 63,33.06 171.3,60.22 254.24,55.07z"/>
    <path class="fil14" d="M1000.52 8645.98c10.52,10.86 -0.43,10.37 48.52,14.68 18.11,1.6 35.52,3.51 54.06,5.42 36.54,3.76 83.87,2.41 116.67,7.88 -38.67,17.78 -59.11,43.42 -80.79,70.01 6.51,4.12 -2,2.36 12.85,3.63 9.01,0.77 13.22,-0.25 22.2,-0.6 38.76,-1.53 83.27,9.9 95.24,7.38 22.76,-4.81 5.57,8.68 19.14,-10.33l-43.41 -89.74c-5.95,-11.64 -11.47,-24.52 -22.97,-27.04l-200.86 2.57 -20.65 16.14z"/>
    <path class="fil22" d="M2229.45 7477.05c30.48,-0.58 44.24,-0.53 30.68,-99.38l-16.05 -251.31c-2.7,-111.03 -11.54,-94.91 -43.16,-94.91l28.53 445.6z"/>
    <path class="fil5" d="M271.42 8119.78l63.17 -9.16c-4.26,4.53 -4.64,5.21 -13.03,9.65l-112.15 50.67 347.66 -49.89 -30.17 -65.26c-12.57,-1.77 -233.71,46.28 -255.48,63.99z"/>
    <path class="fil22" d="M587.67 7405.75l10.75 136.65c-0.64,43.48 5.39,42.1 37.31,35.65 -2.69,-56.09 -20.99,-416.4 -31.6,-437.53 -37.39,-4.48 -30.58,6.55 -30.13,45.13 0.38,32.88 4.05,47.2 6.05,71.89 4.29,52.67 2.92,95.4 7.62,148.21z"/>
    <path class="fil8" d="M2107.06 8610.03c38.53,7.58 147.73,-17.67 192.88,-25.55 45.98,-8.02 155.74,-20.25 181.98,-44.29 -84.27,-6.15 -126.59,-26.99 -221.86,-6.63 -66.25,14.16 -116.27,41.1 -153,76.47z"/>
    <path class="fil23" d="M681.37 7597.6l18.81 -1.73c-2.93,-63.02 -22.86,-475.11 -36.63,-497.09l-18.32 -1.97c-1.34,92.09 20.66,321.38 27.16,441.58 0.53,9.8 0.89,24.45 2.16,33.74 1.17,8.49 1.54,8.75 3.34,16.08 0.31,1.26 1.43,5.56 1.68,4.77 0.24,-0.79 1.03,3.15 1.8,4.62z"/>
    <path class="fil19" d="M1525.71 7337.02l-6.99 -47.84c-58.96,-36.68 -129.9,-47.58 -194.61,-6.98 -25.2,15.81 -17.6,24.69 -21.54,64.28 37.4,-7.86 62.24,-25.33 104.59,-28.17 45.89,-3.08 75.98,11.42 118.55,18.71z"/>
    <path class="fil23" d="M2167.19 7500.81l23.51 0c-1.49,-60.96 -22.83,-475.35 -35.89,-497.34l-19.55 -1.72 31.93 499.06z"/>
    <path class="fil24" d="M1039.78 8291.48l-5.48 27.18 133.86 -9.83c1.58,29.47 8.28,39.61 -5.51,63.88 38.41,-1.78 51.21,5.42 72.35,-16.35 6.74,-21.01 3.67,-47.3 -0.61,-66.88 -31.85,-15.36 -165.52,-17.17 -194.61,2z"/>
    <path class="fil18" d="M1603.4 8234.37c-22.7,35.27 -39.55,65.48 -66.35,98.21 -15.17,18.55 -64.4,69.01 -89.25,78.36 -16.79,-11.89 -30.62,-27.07 -48.05,-35.83 7.62,19.08 56.87,59.33 78.69,70.6 30.05,-43.21 41.27,-30.67 112.05,-136.65l96.76 -155.92c-17.73,12.21 -28.53,22.24 -45.65,40.66 -44.36,47.72 -13.5,32.59 -38.2,40.57z"/>
    <path class="fil25" d="M1801.71 8030.11l120.2 22.7 5.84 -70.75c-35.83,0 -48.98,-11.43 -93.77,-3.1 -15.57,14.46 -19.66,31.05 -32.27,51.15z"/>
    <path class="fil6" d="M1816.19 6924.43c57.86,-5.46 99.14,-1.96 154.44,7.57 -4.22,-20.36 -8.88,-38.38 -19.4,-55.02 -22.35,-15.78 -66.81,-17.27 -98.71,-18.25l12.56 53.76c-1.12,0.14 -19.41,-0.31 -19.68,-0.26 -13.89,2.52 3.39,-2.42 -11.43,2.77 -16.13,5.65 -6.68,0.29 -17.78,9.43z"/>
    <path class="fil14" d="M1638.93 8664.89c44.99,-1.3 78.11,-2.9 123.15,-7.56 31.76,-3.29 90.71,-1.7 111.86,-16.74l-11.35 -10.77 -207.92 -2.62 -15.74 37.69z"/>
    <path class="fil14" d="M1588.02 8742.57c9.84,21.35 -15.57,12.78 31.64,12.99 1.57,0.01 26.8,-4.12 31.41,-4.76 19.83,-2.74 49.19,-3.42 63.27,-7.38 -17.71,-27.36 -45.11,-58.75 -83.71,-72.58l-42.61 71.73z"/>
    <path class="fil17" d="M982.19 8939.18c49.88,3.17 47.48,-16.94 75.72,-30.31 16.05,-41.52 38.03,-69.54 47.25,-124.69 -24.45,17.19 -45.7,47.77 -65.09,73.51 -19.52,25.91 -42.05,51.62 -57.88,81.49z"/>
    <path class="fil25" d="M1110.4 8048.65c-11.16,-23.25 -25.82,-47.65 -42.84,-60.04l-45.42 -0.61 -15.12 57.35 103.38 3.3z"/>
    <path class="fil26" d="M1595.67 7869.71c52.17,0.49 56.61,-74.21 38.15,-85.4 -30,-18.18 -48.77,49.62 -38.15,85.4z"/>
    <path class="fil26" d="M1304.02 7868.09c12.29,-37.86 -10.97,-97.32 -36.61,-83.57 -17.19,9.22 -11.83,37.68 -4.9,56 8.35,22.05 13.97,31.73 41.51,27.57z"/>
    <path class="fil27" d="M1478.67 8338.35c-36.53,-1.55 -85.28,-64.54 -122.02,-84.2 21.46,53.19 53.34,76.15 84.96,106.89l25.37 -14.62c11.67,-7.29 4.13,-1.83 11.69,-8.07z"/>
    <path class="fil25" d="M625.32 8029.59c3.91,16.25 8.22,29.21 13.2,42.8 1.18,3.23 5.81,15.51 6.81,16.99 8.6,12.79 1.01,9.01 18.31,12.89l29.31 -4.37 -37.38 -74.25 -30.25 5.94z"/>
    <path class="fil5" d="M590.97 8035.53c4.05,24.74 17.74,53.87 31.28,72.07l35.88 -2.36 5.51 -2.97c-17.3,-3.88 -9.71,-0.1 -18.31,-12.89 -1,-1.48 -5.63,-13.76 -6.81,-16.99 -4.98,-13.59 -9.29,-26.55 -13.2,-42.8 -16.26,4.78 -11.61,5.47 -34.35,5.94z"/>
    <path class="fil9" d="M1784.57 7510.95c12.28,-43.39 -27.21,-53.97 -41.52,-29.42 -13.83,23.72 8.2,47.33 41.52,29.42z"/>
    <path class="fil28" d="M1107.26 7524.58c-6.95,-17.25 -7.3,-19.37 -27.82,-21.9 -11.2,6.82 -29.65,20.19 -10.7,38.63 18.93,18.41 33.03,-1.22 38.52,-16.73z"/>
    <path class="fil29" d="M1560.68 8659.1c-23.36,41.55 45.06,59.66 30.82,-0.98 -20.3,-5.55 -10.97,-6.4 -30.82,0.98z"/>
    <path class="fil29" d="M1406.5 8724.72l35.39 6.88c20.73,-0.07 20.94,2.35 34.5,-6.88 -7.06,-6.4 -2.1,-8.71 -34.5,-8.86 -43.42,-0.21 -28.84,3.1 -35.39,8.86z"/>
    <path class="fil30" d="M782.69 7023.58c4.08,3.71 -9.66,12.64 15.92,7.17 14.06,-3 11.6,-10.48 12.11,-11.18 -9.41,-4.22 -22.33,-4.78 -28.03,4.01z"/>
    <path class="fil31" d="M1970.39 6960.16c13.38,13.88 3.22,8.4 26.14,12.53 -5.58,-10.93 4.76,-8.32 -11.54,-15.28 -20.97,-8.95 -13.67,2.29 -14.6,2.75z"/>
    <polygon class="fil18" points="1620.1,10911.11 1614.15,10911.11 1619.1,10918.04 "/>
    <polygon class="fil18" points="818.02,10899.23 812.08,10899.23 817.03,10906.16 "/>
   </g>
  </g>
 </g>
</svg>